<svg xmlns="http://www.w3.org/2000/svg" viewBox="0 0 500 372.06"><defs><style>.cls-1{fill:#ebebeb;}.cls-2{fill:#f5f5f5;}.cls-14,.cls-16,.cls-20,.cls-3,.cls-8,.cls-9{fill:#fff;}.cls-4{fill:#e6e6e6;}.cls-5{fill:#f0f0f0;}.cls-6{fill:#e0e0e0;}.cls-7{fill:#407bff;}.cls-12,.cls-19,.cls-8{opacity:0.6;}.cls-17,.cls-18,.cls-9{opacity:0.4;}.cls-10,.cls-20{opacity:0.3;}.cls-11{fill:#263238;}.cls-13,.cls-15,.cls-16{opacity:0.2;}.cls-14{opacity:0.5;}.cls-21{opacity:0.9;}</style></defs><title>Asset 20</title><g id="Layer_2" data-name="Layer 2"><g id="Car_1" data-name="Car 1"><rect class="cls-1" x="416.78" y="343.54" width="33.12" height="0.25"/><rect class="cls-1" x="322.53" y="346.26" width="8.69" height="0.25"/><rect class="cls-1" x="396.59" y="334.26" width="19.19" height="0.25"/><rect class="cls-1" x="52.46" y="335.94" width="43.19" height="0.25"/><rect class="cls-1" x="104.56" y="335.94" width="6.33" height="0.25"/><rect class="cls-1" x="131.47" y="340.16" width="93.68" height="0.25"/><path class="cls-1" d="M238.4,282.85H45.3a5.71,5.71,0,0,1-5.71-5.71V5.71A5.71,5.71,0,0,1,45.3,0H238.4a5.71,5.71,0,0,1,5.71,5.71V277.14A5.71,5.71,0,0,1,238.4,282.85ZM45.3.25a5.47,5.47,0,0,0-5.46,5.46V277.14a5.47,5.47,0,0,0,5.46,5.46H238.4a5.47,5.47,0,0,0,5.46-5.46V5.71A5.47,5.47,0,0,0,238.4.25Z"/><path class="cls-1" d="M454.7,282.85H261.6a5.71,5.71,0,0,1-5.71-5.71V5.71A5.71,5.71,0,0,1,261.6,0H454.7a5.71,5.71,0,0,1,5.71,5.71V277.14A5.71,5.71,0,0,1,454.7,282.85ZM261.6.25a5.47,5.47,0,0,0-5.46,5.46V277.14a5.47,5.47,0,0,0,5.46,5.46H454.7a5.47,5.47,0,0,0,5.46-5.46V5.71A5.47,5.47,0,0,0,454.7.25Z"/><rect class="cls-1" y="327.45" width="500" height="0.25"/><rect class="cls-1" x="153.02" y="201.72" width="42.22" height="123.8" transform="translate(348.26 527.25) rotate(180)"/><rect class="cls-2" x="189.92" y="85.81" width="42.22" height="239.71" transform="translate(422.07 411.34) rotate(180)"/><rect class="cls-3" x="220.41" y="109.35" width="4.32" height="5.5" transform="translate(445.13 224.19) rotate(180)"/><rect class="cls-3" x="197.35" y="109.35" width="4.32" height="5.5" transform="translate(399.01 224.19) rotate(180)"/><rect class="cls-3" x="220.41" y="127.16" width="4.32" height="5.5" transform="translate(445.13 259.81) rotate(180)"/><rect class="cls-3" x="208.88" y="127.16" width="4.32" height="5.5" transform="translate(422.07 259.81) rotate(180)"/><rect class="cls-3" x="197.35" y="144.96" width="4.32" height="5.5" transform="translate(399.01 295.43) rotate(180)"/><rect class="cls-3" x="220.41" y="162.77" width="4.32" height="5.5" transform="translate(445.13 331.04) rotate(180)"/><rect class="cls-3" x="208.88" y="162.77" width="4.32" height="5.5" transform="translate(422.07 331.04) rotate(180)"/><rect class="cls-3" x="208.88" y="180.58" width="4.32" height="5.5" transform="translate(422.07 366.66) rotate(180)"/><rect class="cls-3" x="197.35" y="180.58" width="4.32" height="5.5" transform="translate(399.01 366.66) rotate(180)"/><rect class="cls-3" x="208.88" y="198.39" width="4.32" height="5.5" transform="translate(422.07 402.27) rotate(180)"/><rect class="cls-3" x="197.35" y="198.39" width="4.32" height="5.5" transform="translate(399.01 402.27) rotate(180)"/><rect class="cls-3" x="197.35" y="216.2" width="4.32" height="5.5" transform="translate(399.01 437.89) rotate(180)"/><rect class="cls-3" x="208.88" y="234.01" width="4.32" height="5.5" transform="translate(422.07 473.51) rotate(180)"/><rect class="cls-2" x="109.75" y="102.92" width="46.89" height="222.6" transform="translate(266.38 428.45) rotate(180)"/><rect class="cls-4" x="109.75" y="114.84" width="46.89" height="4.58"/><rect class="cls-4" x="109.75" y="127.61" width="46.89" height="4.58"/><rect class="cls-4" x="109.75" y="140.38" width="46.89" height="4.58"/><rect class="cls-4" x="109.75" y="153.15" width="46.89" height="4.58"/><rect class="cls-4" x="109.75" y="165.92" width="46.89" height="4.58"/><rect class="cls-4" x="109.75" y="178.69" width="46.89" height="4.58"/><rect class="cls-4" x="109.75" y="191.46" width="46.89" height="4.58"/><rect class="cls-4" x="109.75" y="204.23" width="46.89" height="4.58"/><rect class="cls-4" x="109.75" y="217" width="46.89" height="4.58"/><rect class="cls-4" x="109.75" y="229.77" width="46.89" height="4.58"/><rect class="cls-4" x="109.75" y="242.54" width="46.89" height="4.58"/><rect class="cls-4" x="109.75" y="255.31" width="46.89" height="4.58"/><rect class="cls-4" x="109.75" y="268.07" width="46.89" height="4.58"/><rect class="cls-4" x="109.75" y="280.84" width="46.89" height="4.58"/><rect class="cls-4" x="109.75" y="293.61" width="46.89" height="4.58"/><rect class="cls-4" x="109.75" y="306.38" width="46.89" height="4.58"/><rect class="cls-5" x="69.92" y="170.72" width="46.89" height="154.81" transform="translate(186.73 496.24) rotate(180)"/><rect class="cls-3" x="79.67" y="180.58" width="4.32" height="5.5"/><rect class="cls-3" x="102.73" y="180.58" width="4.32" height="5.5"/><rect class="cls-3" x="79.67" y="198.39" width="4.32" height="5.5"/><rect class="cls-3" x="91.2" y="198.39" width="4.32" height="5.5"/><rect class="cls-3" x="102.73" y="216.2" width="4.32" height="5.5"/><rect class="cls-3" x="79.67" y="234.01" width="4.32" height="5.5"/><rect class="cls-3" x="91.2" y="234.01" width="4.32" height="5.5"/><rect class="cls-3" x="91.2" y="251.81" width="4.32" height="5.5"/><rect class="cls-3" x="102.73" y="251.81" width="4.32" height="5.5"/><rect class="cls-3" x="91.2" y="269.62" width="4.32" height="5.5"/><rect class="cls-3" x="102.73" y="269.62" width="4.32" height="5.5"/><rect class="cls-3" x="102.73" y="287.43" width="4.32" height="5.5"/><rect class="cls-3" x="91.2" y="305.24" width="4.32" height="5.5"/><rect class="cls-6" x="329.97" y="189.78" width="42.94" height="135.75" transform="translate(702.89 515.3) rotate(180)"/><rect class="cls-1" x="408.07" y="250.03" width="38.67" height="75.5" transform="translate(854.82 575.55) rotate(180)"/><rect class="cls-2" x="372.92" y="179.35" width="38.67" height="146.18" transform="translate(784.51 504.87) rotate(180)"/><rect class="cls-3" x="400.84" y="193.7" width="3.96" height="3.35" transform="translate(805.63 390.75) rotate(180)"/><rect class="cls-3" x="379.71" y="193.7" width="3.96" height="3.35" transform="translate(763.39 390.75) rotate(180)"/><rect class="cls-3" x="400.84" y="204.56" width="3.96" height="3.35" transform="translate(805.63 412.47) rotate(180)"/><rect class="cls-3" x="390.27" y="204.56" width="3.96" height="3.35" transform="translate(784.51 412.47) rotate(180)"/><rect class="cls-3" x="379.71" y="215.42" width="3.96" height="3.35" transform="translate(763.39 434.19) rotate(180)"/><rect class="cls-3" x="400.84" y="226.28" width="3.96" height="3.35" transform="translate(805.63 455.9) rotate(180)"/><rect class="cls-3" x="390.27" y="226.28" width="3.96" height="3.35" transform="translate(784.51 455.9) rotate(180)"/><rect class="cls-3" x="390.27" y="237.14" width="3.96" height="3.35" transform="translate(784.51 477.62) rotate(180)"/><rect class="cls-3" x="379.71" y="237.14" width="3.96" height="3.35" transform="translate(763.39 477.62) rotate(180)"/><rect class="cls-3" x="390.27" y="248" width="3.96" height="3.35" transform="translate(784.51 499.34) rotate(180)"/><rect class="cls-3" x="379.71" y="248" width="3.96" height="3.35" transform="translate(763.39 499.34) rotate(180)"/><rect class="cls-3" x="379.71" y="258.86" width="3.96" height="3.35" transform="translate(763.39 521.06) rotate(180)"/><rect class="cls-3" x="390.27" y="269.72" width="3.96" height="3.35" transform="translate(784.51 542.78) rotate(180)"/><rect class="cls-3" x="360.03" y="204.56" width="3.96" height="3.35" transform="translate(724.01 412.47) rotate(180)"/><rect class="cls-3" x="338.91" y="204.56" width="3.96" height="3.35" transform="translate(681.77 412.47) rotate(180)"/><rect class="cls-3" x="360.03" y="215.42" width="3.96" height="3.35" transform="translate(724.01 434.19) rotate(180)"/><rect class="cls-3" x="349.47" y="215.42" width="3.96" height="3.35" transform="translate(702.89 434.19) rotate(180)"/><rect class="cls-3" x="338.91" y="226.28" width="3.96" height="3.35" transform="translate(681.77 455.9) rotate(180)"/><rect class="cls-3" x="360.03" y="237.14" width="3.96" height="3.35" transform="translate(724.01 477.62) rotate(180)"/><rect class="cls-3" x="349.47" y="237.14" width="3.96" height="3.35" transform="translate(702.89 477.62) rotate(180)"/><rect class="cls-3" x="349.47" y="248" width="3.96" height="3.35" transform="translate(702.89 499.34) rotate(180)"/><rect class="cls-3" x="338.91" y="248" width="3.96" height="3.35" transform="translate(681.77 499.34) rotate(180)"/><rect class="cls-3" x="349.47" y="258.86" width="3.96" height="3.35" transform="translate(702.89 521.06) rotate(180)"/><rect class="cls-3" x="338.91" y="258.86" width="3.96" height="3.35" transform="translate(681.77 521.06) rotate(180)"/><rect class="cls-3" x="338.91" y="269.72" width="3.96" height="3.35" transform="translate(681.77 542.78) rotate(180)"/><rect class="cls-3" x="349.47" y="280.57" width="3.96" height="3.35" transform="translate(702.89 564.5) rotate(180)"/><rect class="cls-5" x="293.5" y="231.12" width="42.94" height="94.41" transform="translate(629.94 556.65) rotate(180)"/><rect class="cls-3" x="302.43" y="237.14" width="3.96" height="3.35"/><rect class="cls-3" x="323.55" y="237.14" width="3.96" height="3.35"/><rect class="cls-3" x="302.43" y="248" width="3.96" height="3.35"/><rect class="cls-3" x="312.99" y="248" width="3.96" height="3.35"/><rect class="cls-3" x="323.55" y="258.86" width="3.96" height="3.35"/><rect class="cls-3" x="302.43" y="269.72" width="3.96" height="3.35"/><rect class="cls-3" x="312.99" y="269.72" width="3.96" height="3.35"/><rect class="cls-3" x="312.99" y="280.57" width="3.96" height="3.35"/><rect class="cls-3" x="323.55" y="280.57" width="3.96" height="3.35"/><rect class="cls-3" x="312.99" y="291.43" width="3.96" height="3.35"/><rect class="cls-3" x="323.55" y="291.43" width="3.96" height="3.35"/><rect class="cls-3" x="323.55" y="302.29" width="3.96" height="3.35"/><rect class="cls-3" x="312.99" y="313.15" width="3.96" height="3.35"/><rect class="cls-1" x="273.84" y="130.26" width="8" height="195.26" rx="2.4"/><rect class="cls-6" x="293.1" y="71.34" width="125.52" height="54.32" rx="7.25"/><rect class="cls-2" x="296.1" y="74.34" width="119.52" height="48.32" rx="4.25"/><path class="cls-1" d="M280.34,140.47h-5V76.76A16.8,16.8,0,0,1,292.14,60H414.38a2.5,2.5,0,0,1,2.5,2.5h0a2.49,2.49,0,0,1-2.5,2.5H292.14a11.8,11.8,0,0,0-11.8,11.8Z"/><rect class="cls-1" x="355.81" y="62.46" width="2.53" height="11.88"/><rect class="cls-1" x="301.51" y="62.46" width="2.53" height="11.88"/><rect class="cls-1" x="410.11" y="62.46" width="2.53" height="11.88"/><path class="cls-6" d="M322.35,112h-4.43V101.73a4.06,4.06,0,0,0-1.19-2.87l-6.57-6.57,3.13-3.13,6.57,6.57a8.43,8.43,0,0,1,2.49,6Z"/><polygon class="cls-6" points="308.68 96.78 306.5 84.98 318.3 87.16 308.68 96.78"/><path class="cls-6" d="M387.54,112H392V101.73a4.06,4.06,0,0,1,1.19-2.87l6.57-6.57-3.13-3.13L390,95.73a8.39,8.39,0,0,0-2.49,6Z"/><polygon class="cls-6" points="401.21 96.78 403.39 84.98 391.6 87.16 401.21 96.78"/><polygon class="cls-6" points="361.74 95.26 354.94 85.38 348.15 95.26 352.73 95.26 352.73 111.98 357.16 111.98 357.16 95.26 361.74 95.26"/><path class="cls-6" d="M43.44,320.71H62.35a3.59,3.59,0,0,1,3.59,3.59v3.91a0,0,0,0,1,0,0H39.84a0,0,0,0,1,0,0v-3.91A3.59,3.59,0,0,1,43.44,320.71Z"/><path class="cls-2" d="M69.54,320.71H88.45A3.59,3.59,0,0,1,92,324.31v3.91a0,0,0,0,1,0,0H65.94a0,0,0,0,1,0,0v-3.91A3.59,3.59,0,0,1,69.54,320.71Z"/><path class="cls-6" d="M95.64,320.71h18.91a3.59,3.59,0,0,1,3.59,3.59v3.91a0,0,0,0,1,0,0H92a0,0,0,0,1,0,0v-3.91A3.59,3.59,0,0,1,95.64,320.71Z"/><path class="cls-2" d="M121.74,320.71h18.91a3.59,3.59,0,0,1,3.59,3.59v3.91a0,0,0,0,1,0,0h-26.1a0,0,0,0,1,0,0v-3.91A3.59,3.59,0,0,1,121.74,320.71Z"/><path class="cls-6" d="M147.84,320.71h18.91a3.59,3.59,0,0,1,3.59,3.59v3.91a0,0,0,0,1,0,0h-26.1a0,0,0,0,1,0,0v-3.91A3.59,3.59,0,0,1,147.84,320.71Z"/><path class="cls-2" d="M173.93,320.71h18.91a3.59,3.59,0,0,1,3.59,3.59v3.91a0,0,0,0,1,0,0h-26.1a0,0,0,0,1,0,0v-3.91A3.59,3.59,0,0,1,173.93,320.71Z"/><path class="cls-6" d="M200,320.71h18.91a3.59,3.59,0,0,1,3.59,3.59v3.91a0,0,0,0,1,0,0h-26.1a0,0,0,0,1,0,0v-3.91A3.59,3.59,0,0,1,200,320.71Z"/><path class="cls-2" d="M226.13,320.71H245a3.59,3.59,0,0,1,3.59,3.59v3.91a0,0,0,0,1,0,0h-26.1a0,0,0,0,1,0,0v-3.91A3.59,3.59,0,0,1,226.13,320.71Z"/><path class="cls-6" d="M252.23,320.71h18.91a3.59,3.59,0,0,1,3.59,3.59v3.91a0,0,0,0,1,0,0h-26.1a0,0,0,0,1,0,0v-3.91A3.59,3.59,0,0,1,252.23,320.71Z"/><path class="cls-2" d="M278.33,320.71h18.91a3.59,3.59,0,0,1,3.59,3.59v3.91a0,0,0,0,1,0,0h-26.1a0,0,0,0,1,0,0v-3.91A3.59,3.59,0,0,1,278.33,320.71Z"/><path class="cls-6" d="M304.43,320.71h18.91a3.59,3.59,0,0,1,3.59,3.59v3.91a0,0,0,0,1,0,0h-26.1a0,0,0,0,1,0,0v-3.91A3.59,3.59,0,0,1,304.43,320.71Z"/><path class="cls-2" d="M330.53,320.71h18.91a3.59,3.59,0,0,1,3.59,3.59v3.91a0,0,0,0,1,0,0h-26.1a0,0,0,0,1,0,0v-3.91A3.59,3.59,0,0,1,330.53,320.71Z"/><path class="cls-6" d="M356.63,320.71h18.91a3.59,3.59,0,0,1,3.59,3.59v3.91a0,0,0,0,1,0,0H353a0,0,0,0,1,0,0v-3.91A3.59,3.59,0,0,1,356.63,320.71Z"/><path class="cls-2" d="M382.73,320.71h18.91a3.59,3.59,0,0,1,3.59,3.59v3.91a0,0,0,0,1,0,0h-26.1a0,0,0,0,1,0,0v-3.91A3.59,3.59,0,0,1,382.73,320.71Z"/><path class="cls-6" d="M408.83,320.71h18.91a3.59,3.59,0,0,1,3.59,3.59v3.91a0,0,0,0,1,0,0h-26.1a0,0,0,0,1,0,0v-3.91A3.59,3.59,0,0,1,408.83,320.71Z"/><path class="cls-2" d="M434.93,320.71h18.91a3.59,3.59,0,0,1,3.59,3.59v3.91a0,0,0,0,1,0,0h-26.1a0,0,0,0,1,0,0v-3.91A3.59,3.59,0,0,1,434.93,320.71Z"/><path class="cls-2" d="M342.76,50.07c0,2.56,19.94,0,42.77,0s17.6-14.67,13.69-17c-4.16-2.43-9.57,0-9.57,0s1.85-8.51-5.46-10.18c-6-1.38-9.32,6.36-9.32,6.36s-3.08-5.19-8.57-3.39c-5.7,1.87-3.8,8.56-6.08,10.59S347.7,38,347.7,39.59c0,2.18,8.58,1.69,8.58,3.07,0,2.65-21.62,0-21.62,3.09,0,2.64,19.43-.12,19.43,1.79C354.09,48.92,342.76,48.39,342.76,50.07Z"/><path class="cls-2" d="M146.09,66.32c0,3.24,25.27,0,54.2,0s22.3-18.59,17.35-21.48c-5.27-3.07-12.12,0-12.12,0s2.34-10.78-6.93-12.9C190.93,30.2,186.78,40,186.78,40s-3.91-6.58-10.86-4.3c-7.22,2.38-4.81,10.85-7.7,13.43S152.35,51,152.35,53c0,2.77,10.87,2.15,10.87,3.89,0,3.36-27.4,0-27.4,3.92,0,3.34,24.63-.15,24.63,2.26C160.45,64.86,146.09,64.19,146.09,66.32Z"/><path class="cls-2" d="M73.29,66.73c0,2.32,18.09,0,38.8,0s16-13.31,12.42-15.37c-3.78-2.21-8.68,0-8.68,0s1.68-7.72-5-9.24c-5.48-1.25-8.45,5.77-8.45,5.77s-2.8-4.71-7.77-3.07c-5.17,1.69-3.45,7.76-5.52,9.6s-11.36,1.36-11.36,2.8c0,2,7.79,1.54,7.79,2.79,0,2.41-19.62,0-19.62,2.8,0,2.4,17.64-.11,17.64,1.63C83.58,65.69,73.29,65.21,73.29,66.73Z"/><ellipse id="_Path_" data-name="&lt;Path&gt;" class="cls-2" cx="250" cy="360.74" rx="193.89" ry="11.32"/><polygon class="cls-7" points="197.62 288.79 125.22 189.58 207.6 241.92 192.75 105.89 245.44 222.35 276.29 120.84 283.02 226.83 360.4 159.84 311.11 251.68 400.85 224.07 290.97 298.6 248.03 305.73 197.62 288.79"/><polygon class="cls-8" points="197.62 288.79 125.22 189.58 207.6 241.92 192.75 105.89 245.44 222.35 276.29 120.84 283.02 226.83 360.4 159.84 311.11 251.68 400.85 224.07 290.97 298.6 248.03 305.73 197.62 288.79"/><polygon class="cls-7" points="293.43 266.21 330.43 197.29 275.45 244.88 270.65 169.29 247.04 246.99 207.31 159.18 218.21 258.97 159.31 221.54 203.02 281.43 248.74 296.8 287.66 290.33 347.96 249.44 293.43 266.21"/><polygon class="cls-7" points="224.06 276.26 214.8 264.55 208.94 267.36 208.94 268.33 220.78 278.43 224.06 277.24 224.06 276.26"/><polygon class="cls-7" points="208.94 268.33 214.8 265.53 224.06 277.24 220.78 278.43 208.94 268.33"/><polygon class="cls-8" points="208.94 268.33 214.8 265.53 224.06 277.24 220.78 278.43 208.94 268.33"/><polygon class="cls-7" points="205.67 271.08 204.4 262.18 200.49 261.83 200.19 262.33 203.29 271.19 205.37 271.58 205.67 271.08"/><polygon class="cls-7" points="200.19 262.33 204.1 262.69 205.37 271.58 203.29 271.19 200.19 262.33"/><polygon class="cls-8" points="200.19 262.33 204.1 262.69 205.37 271.58 203.29 271.19 200.19 262.33"/><polygon class="cls-7" points="239.06 271.09 254.12 264.84 252.66 258.04 251.61 257.77 237.6 267.12 238 270.82 239.06 271.09"/><polygon class="cls-7" points="251.61 257.77 253.07 264.57 238 270.82 237.6 267.12 251.61 257.77"/><polygon class="cls-9" points="251.61 257.77 253.07 264.57 238 270.82 237.6 267.12 251.61 257.77"/><polygon class="cls-7" points="233.13 238.07 230.55 229.39 226.65 229.69 226.43 230.25 230.81 238.57 232.91 238.62 233.13 238.07"/><polygon class="cls-7" points="226.43 230.25 230.33 229.94 232.91 238.62 230.81 238.57 226.43 230.25"/><polygon class="cls-9" points="226.43 230.25 230.33 229.94 232.91 238.62 230.81 238.57 226.43 230.25"/><polygon class="cls-7" points="268.4 275.12 273.47 265.06 269.57 262.75 268.89 263.14 265.8 274.06 267.72 275.51 268.4 275.12"/><polygon class="cls-7" points="268.89 263.14 272.79 265.44 267.72 275.51 265.8 274.06 268.89 263.14"/><polygon class="cls-10" points="268.89 263.14 272.79 265.44 267.72 275.51 265.8 274.06 268.89 263.14"/><polygon class="cls-7" points="257.32 260.15 257.44 250.91 261.47 249.53 261.85 249.95 259.81 259.64 257.69 260.58 257.32 260.15"/><polygon class="cls-7" points="261.85 249.95 257.82 251.34 257.69 260.58 259.81 259.64 261.85 249.95"/><polygon class="cls-10" points="261.85 249.95 257.82 251.34 257.69 260.58 259.81 259.64 261.85 249.95"/><path class="cls-11" d="M438.33,277.36h10.92a.93.93,0,0,1,.93.93v.52a.93.93,0,0,1-.93.93h-8.62a2.3,2.3,0,0,1-2.3-2.3v-.08A0,0,0,0,1,438.33,277.36Z" transform="matrix(0.95, -0.3, 0.3, 0.95, -63.06, 145.95)"/><polygon class="cls-11" points="261.21 336.27 307.07 324.12 297.14 309.9 278.43 303.54 268.1 306.79 260.12 317.97 260.23 329.57 261.21 336.27"/><polygon class="cls-11" points="385.53 299.48 428.63 283.68 430.71 279.78 425.26 270.21 408.33 263.49 393.69 265.9 383.48 282.21 383.57 296.87 385.53 299.48"/><polygon points="261.21 336.27 307.07 324.12 297.14 309.9 278.43 303.54 268.1 306.79 260.12 317.97 260.23 329.57 261.21 336.27"/><polygon points="385.53 299.48 428.63 283.68 430.71 279.78 425.26 270.21 408.33 263.49 393.69 265.9 383.48 282.21 383.57 296.87 385.53 299.48"/><polygon class="cls-7" points="247.42 318.35 253.53 326.62 254.46 335.15 253.11 343.64 255.16 343 259.87 338.79 258.24 323.25 252.22 316.84 247.42 318.35"/><polygon class="cls-12" points="247.42 318.35 253.53 326.62 254.46 335.15 253.11 343.64 255.16 343 259.87 338.79 258.24 323.25 252.22 316.84 247.42 318.35"/><path class="cls-7" d="M442.18,262.11l-9.4-9.21a15,15,0,0,0-7.44-4L390.43,229a39,39,0,0,0-31-3.32l-49.73,15.63a22.24,22.24,0,0,0-14.09,13.22l-9.14,23.68-23,9.76a29.32,29.32,0,0,0-17.87,27.16l1.76,3.2,8.32,4.93L257,334.36l-1.8,8.64,5.65-1.78a4.05,4.05,0,0,0,2.6-5.25c-.18-.48-.34-1-.48-1.49a20.68,20.68,0,0,1,39.65-11.78v.05a5.1,5.1,0,0,0,6.39,3.34L385.82,302a4.93,4.93,0,0,0,3.26-6.2c-.09-.27-.17-.54-.24-.82a20.68,20.68,0,0,1,39.64-11.78c.06.17.1.35.15.53l13.25-4.16a6,6,0,0,0,4.21-5.42l0-.66a6.83,6.83,0,0,0-.31-2.46l-1.89-6A6.83,6.83,0,0,0,442.18,262.11Z"/><path class="cls-10" d="M442.18,262.11l-9.4-9.21a15,15,0,0,0-7.44-4L390.43,229a39,39,0,0,0-31-3.32l-49.73,15.63a22.24,22.24,0,0,0-14.09,13.22l-9.14,23.68-23,9.76a29.32,29.32,0,0,0-17.87,27.16l1.76,3.2,8.32,4.93L257,334.36l-1.8,8.64,5.65-1.78a4.05,4.05,0,0,0,2.6-5.25c-.18-.48-.34-1-.48-1.49a20.68,20.68,0,0,1,39.65-11.78v.05a5.1,5.1,0,0,0,6.39,3.34L385.82,302a4.93,4.93,0,0,0,3.26-6.2c-.09-.27-.17-.54-.24-.82a20.68,20.68,0,0,1,39.64-11.78c.06.17.1.35.15.53l13.25-4.16a6,6,0,0,0,4.21-5.42l0-.66a6.83,6.83,0,0,0-.31-2.46l-1.89-6A6.83,6.83,0,0,0,442.18,262.11Z"/><g class="cls-13"><path class="cls-3" d="M306.71,321.4h0a1.08,1.08,0,0,1-1.34-.68,23.77,23.77,0,0,0-34.77-12.11,4.3,4.3,0,0,1-4.82-.15c0,.52.13,1.21.21,1.68.29,1.83.62,3.9-1,4.47-1.26.44-2-.81-2.55-1.79a20.32,20.32,0,0,0,.85,4.22,1.08,1.08,0,0,1-.69,1.33h0a1.07,1.07,0,0,1-1.38-.7c-1-3.3-1.61-7,.36-7.84,1.12-.51,1.88.46,2.41,1.35,0-.25-.08-.49-.11-.7-.28-1.81-.61-3.86,1-4.48a2,2,0,0,1,2.08.61,2.19,2.19,0,0,0,2.58.17,25.64,25.64,0,0,1,5.81-2.65A25.93,25.93,0,0,1,307.4,320,1.09,1.09,0,0,1,306.71,321.4Z"/></g><path class="cls-12" d="M245.66,315.15h0l2.68,1.46s7-22.55,17.87-27.17l23-9.75-2.67-1.46-23,9.76A29.32,29.32,0,0,0,245.66,315.15Z"/><path class="cls-7" d="M233.3,280.42h0l1.19,2.8S254,269.9,265.37,273.05l24.06,6.65-1.19-2.81-24.06-6.65A29.31,29.31,0,0,0,233.3,280.42Z"/><path class="cls-10" d="M233.3,280.42h0l1.19,2.8S254,269.9,265.37,273.05l24.06,6.65-1.19-2.81-24.06-6.65A29.31,29.31,0,0,0,233.3,280.42Z"/><path class="cls-12" d="M259.33,308.11c.91,2.89.51,5.59-.9,6s-3.28-1.55-4.19-4.44-.5-5.59.9-6S258.43,305.22,259.33,308.11Z"/><path class="cls-14" d="M255.61,303.62a2.76,2.76,0,0,0-.87,1.69l1.69.91.3,1.82,1.54,1.65-2-1.27-.56-1.8-1.11-.05a10,10,0,0,0,.48,2.87c.81,2.58,2.39,4.43,3.73,4.48,1.06-.8,1.3-3.23.48-5.81S256.94,303.68,255.61,303.62Z"/><rect class="cls-11" x="431.7" y="268.16" width="16.76" height="5.8" rx="2.33" transform="translate(-61.01 144.36) rotate(-17.44)"/><rect class="cls-9" x="431.7" y="268.16" width="16.76" height="5.8" rx="2.33" transform="translate(-61.01 144.36) rotate(-17.44)"/><g class="cls-13"><path class="cls-3" d="M384.21,292.79h0a1.07,1.07,0,0,1-1.21-1,25.91,25.91,0,0,1,47.79-16.15,1.06,1.06,0,0,1-.4,1.47l0,0a1.08,1.08,0,0,1-1.44-.39,23.75,23.75,0,0,0-43.79,14.83A1.06,1.06,0,0,1,384.21,292.79Z"/></g><path class="cls-11" d="M360.43,259.53l37.21-11.69a2.34,2.34,0,0,0,.46-4.26l-12.51-7.13a29.6,29.6,0,0,0-23.54-2.52l-10.16,3.19a2.33,2.33,0,0,0-1.47,3.09l7.14,18A2.34,2.34,0,0,0,360.43,259.53Z"/><path class="cls-11" d="M341.89,240.26l-29.56,9.29a12.92,12.92,0,0,0-8.19,7.67l-7,18.23a2.33,2.33,0,0,0,2.88,3.06l49.07-15.41a2.34,2.34,0,0,0,1.53-2.93l-5.77-18.38A2.34,2.34,0,0,0,341.89,240.26Z"/><path class="cls-15" d="M296.39,286.73l1.28,2.3-.47,3.65,1.63,2.63-.89,5.72,9.58,15.4a4.87,4.87,0,0,0,5.59,2.07l50.31-15.8a4.1,4.1,0,0,0,2.68-5.14l-9.38-29.86a4.09,4.09,0,0,0-5.09-2.69l-52.92,16A4,4,0,0,0,296.39,286.73Z"/><polygon class="cls-16" points="260 300.87 270.41 291.57 290.89 285.14 269.98 294.72 260 300.87"/><polygon class="cls-16" points="269.09 299.39 281.07 297.75 294.05 295.19 281.96 300.61 269.09 299.39"/><polygon class="cls-15" points="263.21 301.24 271.13 302.89 267.25 304.11 263.21 301.24"/><path class="cls-10" d="M302.84,286.3l-3.14,2.09,3.51.79a.94.94,0,0,0,.89-1.56Z"/><path class="cls-10" d="M300.26,294.86l3.52-1.87a.69.69,0,0,1,1,.86l-.44,1.16,1.38,2.71a.7.7,0,0,1-1.07.85Z"/><path class="cls-11" d="M355.45,267.87c.24.76-.71,1.74-2.13,2.18s-8.93,2.13-9.17,1.37,6.88-3.68,8.3-4.13S355.22,267.1,355.45,267.87Z"/><path class="cls-9" d="M355.45,267.87c.24.76-.71,1.74-2.13,2.18s-8.93,2.13-9.17,1.37,6.88-3.68,8.3-4.13S355.22,267.1,355.45,267.87Z"/><path class="cls-11" d="M299.26,256.31a3,3,0,0,0-2-4.06l-.48-.13a22.3,22.3,0,0,0-1.11,2.43l-8.39,21.75,1.23.34a3,3,0,0,0,3.63-1.82l7.13-18.48Z"/><polygon class="cls-16" points="291.94 270.95 290.66 268.9 293.5 268.64 291.14 268.01 294.99 264.28 292.07 266.2 295.4 262.2 294.4 262.02 297.1 258.85 293.31 262.36 294 262.71 291.73 264.7 288.86 272.14 289.75 274.96 289.4 271.68 290.58 270.24 291.49 271.52 291.99 273.12 291.94 270.95"/><path class="cls-17" d="M430.49,257.34l5,5.22a2.7,2.7,0,0,1-1.13,4.45l-1.35.42-9.21-9.56,3.91-1.23A2.68,2.68,0,0,1,430.49,257.34Z"/><polygon class="cls-9" points="429.94 264.22 435.45 262.49 432.26 259.17 426.75 260.9 429.94 264.22"/><path class="cls-15" d="M360.57,266.49l1.31,4.17a1.82,1.82,0,0,0,2.28,1.18L413,256.52a3.4,3.4,0,0,0,2.38-2.7,3.18,3.18,0,0,0-1.61-3.24l-3.32-1.9A7.9,7.9,0,0,0,404,248l-40.83,13.33A4.1,4.1,0,0,0,360.57,266.49Z"/><polygon class="cls-16" points="301.25 274.86 301.05 271.41 304.91 271.99 302.92 268.12 313.65 270.58 310.36 269.08 313.14 267.17 308.6 268.28 303.82 266.14 304.98 263.66 312.02 263 311.47 261.23 315.39 261.13 310.45 259.79 310.65 262.24 306.2 261.26 310.5 255.77 302.48 261.54 302.48 261.54 298.69 271.35 301.25 274.86"/><circle class="cls-11" cx="408.75" cy="289.35" r="17.24" transform="translate(-88.24 227.71) rotate(-28.22)"/><circle class="cls-14" cx="408.75" cy="289.35" r="10.96" transform="matrix(0.43, -0.9, 0.9, 0.43, -29.08, 532.45)"/><path class="cls-11" d="M411.18,288.58a2.55,2.55,0,1,1-3.19-1.66A2.55,2.55,0,0,1,411.18,288.58Z"/><g class="cls-18"><path d="M405.36,284.7l-.28-4.2a9.52,9.52,0,0,0-4.39,3.68l4.08,1A7,7,0,0,1,405.36,284.7Z"/><path d="M404.6,293.32a5.63,5.63,0,0,1-.5-.58l-4.19.28a9.55,9.55,0,0,0,3.67,4.39Z"/><path d="M408.63,295.1a6.48,6.48,0,0,1-.77-.07l-2.77,3.17a9.55,9.55,0,0,0,5.71.5Z"/><path d="M403,289.22a6.51,6.51,0,0,1,.07-.76l-3.17-2.77a9.45,9.45,0,0,0-.5,5.7Z"/><path d="M414.5,289.47a6.31,6.31,0,0,1-.07.76L417.6,293a9.47,9.47,0,0,0,.5-5.71Z"/><path d="M412.9,285.37a5.76,5.76,0,0,1,.5.59l4.19-.28a9.58,9.58,0,0,0-3.67-4.4Z"/><path d="M412.73,293.5a5.47,5.47,0,0,1-.59.49l.28,4.2a9.46,9.46,0,0,0,4.39-3.68Z"/><path d="M409.64,283.67l2.77-3.17a9.55,9.55,0,0,0-5.71-.51l2.17,3.61A4.9,4.9,0,0,1,409.64,283.67Z"/></g><path class="cls-14" d="M410.15,288.91a1.47,1.47,0,0,1-2.8.88c-.24-.78.62-.23,1.39-.47S409.91,288.13,410.15,288.91Z"/><ellipse class="cls-11" cx="281.01" cy="329.48" rx="15.09" ry="17.24" transform="translate(-85.83 99.37) rotate(-17.44)"/><path class="cls-14" d="M290.17,326.6c1.81,5.77-.82,11.74-5.87,13.33s-10.63-1.8-12.44-7.58.81-11.74,5.87-13.33S288.36,320.83,290.17,326.6Z"/><path class="cls-11" d="M283.14,328.81a2.25,2.25,0,1,1-2.89-1.76A2.41,2.41,0,0,1,283.14,328.81Z"/><g class="cls-18"><path d="M277.84,324.76l-.4-4.16a7.84,7.84,0,0,0-3.76,3.48l3.66,1.15A4.42,4.42,0,0,1,277.84,324.76Z"/><path d="M277.47,333.26c-.16-.19-.31-.39-.46-.6l-3.71.13a10.33,10.33,0,0,0,3.42,4.48Z"/><path d="M281.11,335.16a5.06,5.06,0,0,1-.68-.1l-2.35,3a7.85,7.85,0,0,0,5.08.7Z"/><path d="M275.91,329.15c0-.25,0-.51,0-.75L273,325.54a10.37,10.37,0,0,0-.24,5.63Z"/><path d="M286.12,329.8a6.34,6.34,0,0,1,0,.76l2.91,2.85a10.24,10.24,0,0,0,.25-5.62Z"/><path d="M284.56,325.69a6.7,6.7,0,0,1,.45.6l3.72-.13a10.25,10.25,0,0,0-3.42-4.47Z"/><path d="M284.69,333.72a5.47,5.47,0,0,1-.5.47l.39,4.16a7.78,7.78,0,0,0,3.77-3.48Z"/><path d="M281.6,323.89l2.35-3a7.85,7.85,0,0,0-5.08-.71l2.05,3.65A4,4,0,0,1,281.6,323.89Z"/></g><path class="cls-14" d="M282.24,329.09a1.3,1.3,0,1,1-2.45.77c-.24-.77.54-.2,1.21-.41S282,328.32,282.24,329.09Z"/><path class="cls-11" d="M398.54,242.8,386,235.67a30.6,30.6,0,0,0-24.25-2.6l-10.16,3.19a3.25,3.25,0,0,0-2,4.28l7.15,18a3.23,3.23,0,0,0,4,1.89l37.21-11.69a3.23,3.23,0,0,0,.63-5.89Zm-.17,3a1.39,1.39,0,0,1-1,1.22l-37.22,11.69a1.44,1.44,0,0,1-1.77-.84l-7.14-17.95a1.45,1.45,0,0,1,.91-1.91l10.16-3.19a28.81,28.81,0,0,1,22.82,2.45l12.52,7.13A1.38,1.38,0,0,1,398.37,245.76Z"/><path class="cls-11" d="M341.62,239.4l-29.56,9.29a13.73,13.73,0,0,0-8.75,8.21l-7,18.22a3.23,3.23,0,0,0,4,4.25L349.33,264a3.25,3.25,0,0,0,2.12-4.06l-5.78-18.38A3.24,3.24,0,0,0,341.62,239.4Zm-43.38,37.87a1.42,1.42,0,0,1-.29-1.5l7-18.22a12,12,0,0,1,7.62-7.15l.95-.3,6.64,21.13-20.47,6.43A1.42,1.42,0,0,1,298.24,277.27Zm51.49-16.83a1.43,1.43,0,0,1-.94,1.8l-27.69,8.7-6.63-21.12,27.69-8.7a1.43,1.43,0,0,1,1.8.94Z"/><g class="cls-19"><path d="M398.54,242.8,386,235.67a30.6,30.6,0,0,0-24.25-2.6l-10.16,3.19a3.25,3.25,0,0,0-2,4.28l7.15,18a3.23,3.23,0,0,0,4,1.89l37.21-11.69a3.23,3.23,0,0,0,.63-5.89Zm-.17,3a1.39,1.39,0,0,1-1,1.22l-37.22,11.69a1.44,1.44,0,0,1-1.77-.84l-7.14-17.95a1.45,1.45,0,0,1,.91-1.91l10.16-3.19a28.81,28.81,0,0,1,22.82,2.45l12.52,7.13A1.38,1.38,0,0,1,398.37,245.76Z"/><path d="M341.62,239.4l-29.56,9.29a13.73,13.73,0,0,0-8.75,8.21l-7,18.22a3.23,3.23,0,0,0,4,4.25L349.33,264a3.25,3.25,0,0,0,2.12-4.06l-5.78-18.38A3.24,3.24,0,0,0,341.62,239.4Zm-43.38,37.87a1.42,1.42,0,0,1-.29-1.5l7-18.22a12,12,0,0,1,7.62-7.15l.95-.3,6.64,21.13-20.47,6.43A1.42,1.42,0,0,1,298.24,277.27Zm51.49-16.83a1.43,1.43,0,0,1-.94,1.8l-27.69,8.7-6.63-21.12,27.69-8.7a1.43,1.43,0,0,1,1.8.94Z"/></g><polygon class="cls-15" points="253.94 313.75 258.5 318.09 258.24 323.25 253.94 313.75"/><path class="cls-11" d="M57.75,302l9.33,9,35.61,11.18L130.08,328a3.34,3.34,0,0,0,2.72-.61l.16-.12a3.34,3.34,0,0,1,2.63-.63l37.67,6.86a3.05,3.05,0,0,1,1.74,1l3.62,4.21a3,3,0,0,0,1.74,1l23,4.19,41.1-1.29a2,2,0,0,0,1.95-2l.08-9.67-1.28-18.22-46.19-9.35L173.44,323l-49.12-9.88L105,285.21l-34.32-5L60.1,294.8Z"/><path class="cls-12" d="M57.75,302l9.33,9,35.61,11.18L130.08,328a3.34,3.34,0,0,0,2.72-.61l.16-.12a3.34,3.34,0,0,1,2.63-.63l37.67,6.86a3.05,3.05,0,0,1,1.74,1l3.62,4.21a3,3,0,0,0,1.74,1l23,4.19,41.1-1.29a2,2,0,0,0,1.95-2l.08-9.67-1.28-18.22-46.19-9.35L173.44,323l-49.12-9.88L105,285.21l-34.32-5L60.1,294.8Z"/><path class="cls-7" d="M257,295.24l-2.86-.94s-1.79-3.55-2.9-4.15c-1.62-.87-5.71.6-7.35-.22-1.45-.73-2.58-4.46-4.09-5.07-1.81-.73-5.91,1.71-7.71,1-.83-.35-1.42-2.54-2.28-2.79-1.23-.35-4.84,1.62-4.84,1.62l-24.38-8.05S198.84,270.1,198,268c-1-2.31-3.67-6.65-4.31-9.09-.42-1.57-.22-4.87-.47-6.48a46.67,46.67,0,0,0-1.56-5.09,8.28,8.28,0,0,0-4.93-5.3L182,240.26a165,165,0,0,0-30.11-8.49L81.76,219a3.91,3.91,0,0,0-4.4,2.55L64.22,258.71a3.22,3.22,0,0,0-.16.61l-7.67,42.09a1.49,1.49,0,0,0,2.71,1.1l8.64-12.77a10,10,0,0,1,10.5-5l22,4a9.93,9.93,0,0,1,7.83,7.27l5.16,19.78a4.27,4.27,0,0,0,3.37,3.13l70.87,12.9a4.26,4.26,0,0,0,4.25-1.74l11.8-16.69a9.92,9.92,0,0,1,9.9-4l22,4a9.94,9.94,0,0,1,8.06,8.4l2.14,15.19a.91.91,0,0,0,1.8,0s1.8-23.21,4-30.59C252.4,303.4,257,295.24,257,295.24Z"/><path class="cls-14" d="M257,295.24l-2.86-.94s-1.79-3.55-2.9-4.15c-1.62-.87-5.71.6-7.35-.22-1.45-.73-2.58-4.46-4.09-5.07-1.81-.73-5.91,1.71-7.71,1-.83-.35-1.42-2.54-2.28-2.79-1.23-.35-4.84,1.62-4.84,1.62l-24.38-8.05S198.84,270.1,198,268c-1-2.31-3.67-6.65-4.31-9.09-.42-1.57-.22-4.87-.47-6.48a46.67,46.67,0,0,0-1.56-5.09,8.28,8.28,0,0,0-4.93-5.3L182,240.26a165,165,0,0,0-30.11-8.49L81.76,219a3.91,3.91,0,0,0-4.4,2.55L64.22,258.71a3.22,3.22,0,0,0-.16.61l-7.67,42.09a1.49,1.49,0,0,0,2.71,1.1l8.64-12.77a10,10,0,0,1,10.5-5l22,4a9.93,9.93,0,0,1,7.83,7.27l5.16,19.78a4.27,4.27,0,0,0,3.37,3.13l70.87,12.9a4.26,4.26,0,0,0,4.25-1.74l11.8-16.69a9.92,9.92,0,0,1,9.9-4l22,4a9.94,9.94,0,0,1,8.06,8.4l2.14,15.19a.91.91,0,0,0,1.8,0s1.8-23.21,4-30.59C252.4,303.4,257,295.24,257,295.24Z"/><path class="cls-15" d="M210.88,302.81l10.78-13.88a1.22,1.22,0,0,1,2.18.87l-.5,5a1.69,1.69,0,0,0,3,1.16l4.44-6.13a1.22,1.22,0,0,1,2.2.62l.72,9a1.69,1.69,0,0,0,3,.87l4.53-6.16a1.22,1.22,0,0,1,2.19.88l-1.38,10.8,1.45,9.25-20.11-7.84-13.28-.54Z"/><path class="cls-15" d="M250.17,298.67s-3.77,3.44-4.52,4.94c-.44.89-1.51,3.32-.71,3.93s3.19-1.17,3.92-2c1.1-1.27,2.2-6.33,2.2-6.33A.53.53,0,0,0,250.17,298.67Z"/><path class="cls-15" d="M214.84,288.63l-10.69,3.2a.59.59,0,0,0-.39.35L201.45,298a.61.61,0,0,0,.88.75l10.31-6a.53.53,0,0,0,.14-.12l2.69-3A.61.61,0,0,0,214.84,288.63Z"/><path class="cls-7" d="M80.43,221.67A8.12,8.12,0,0,0,85.61,225l103.9,18.91a8.25,8.25,0,0,0-2.82-1.84L182,240.26a165,165,0,0,0-30.11-8.49L81.76,219a3.91,3.91,0,0,0-2.79.55Z"/><rect class="cls-11" x="82.41" y="232.07" width="40.23" height="27.57" rx="2.82" transform="translate(45.69 -14.39) rotate(10.32)"/><path class="cls-11" d="M187.19,275.28l-52-9.47a2.31,2.31,0,0,1-1.87-2.69l4.11-22.56a2.32,2.32,0,0,1,2.69-1.87l42.09,7.66a2.34,2.34,0,0,1,1.84,1.74s.86,3,1,4.08c.2,1.89-.15,5.73.26,7.58.49,2.19,2.76,6.17,3.54,8.29.38,1.07,1,4.42,1,4.42A2.31,2.31,0,0,1,187.19,275.28Z"/><path class="cls-16" d="M186.22,262.38a16.11,16.11,0,0,1-1-2.63,48,48,0,0,1-.2-6.61l-5.12-5.52,3.46,6.27L170,245.81,182,257l-10.45,0-6.79-2.91-8.39.15,8.15,1.17,7,3.57,4.85.36L172,263.11l-4.78.38-3.84,3.9,4.59-2.82,4.7,0,6.41-4.79,3.14.57-5,5.47L172,269l9.45-3.09-1.52-.28,3.85-3.9-2,8.53Z"/><rect class="cls-20" x="66.95" y="271.1" width="129.81" height="2.33" rx="1.12" transform="translate(50.9 -19.21) rotate(10.32)"/><rect class="cls-20" x="118.27" y="302.84" width="68.23" height="2.33" rx="1.12" transform="translate(56.92 -22.38) rotate(10.32)"/><rect class="cls-7" x="131.54" y="277.21" width="8.57" height="2.33" rx="1.12" transform="translate(52.06 -19.83) rotate(10.32)"/><path class="cls-7" d="M190.6,275.41l1.15-6.36a1.55,1.55,0,0,0-1.25-1.81l-2.5-.45a2.54,2.54,0,0,0-3,2l-1.3,7.13a2.55,2.55,0,0,0,2,3l3.43.63,1,1.48,1.45.26.62-3.41Z"/><circle class="cls-11" cx="84.54" cy="316.77" r="21.4" transform="translate(-234.04 239.35) rotate(-61.4)"/><path class="cls-9" d="M97.22,320.66a15.15,15.15,0,0,0,.38-1.51,13.9,13.9,0,0,0,.18-1.55L93,316a8.48,8.48,0,0,0-.44-2.07l3.73-3.4A13.73,13.73,0,0,0,94.49,308L90,310.29a8.41,8.41,0,0,0-1.77-1.15l.22-5.05a12.33,12.33,0,0,0-1.51-.37,11.69,11.69,0,0,0-1.55-.18l-1.56,4.8a8,8,0,0,0-2.07.45l-3.41-3.73a13.59,13.59,0,0,0-2.56,1.77l2.29,4.5a8.44,8.44,0,0,0-1.14,1.78l-5-.23a15.15,15.15,0,0,0-.38,1.51,13.9,13.9,0,0,0-.18,1.55l4.81,1.57a8.58,8.58,0,0,0,.44,2.07L72.83,323a13.27,13.27,0,0,0,1.77,2.56l4.5-2.29a8.74,8.74,0,0,0,1.78,1.15l-.22,5.05a12.33,12.33,0,0,0,1.51.37,11.73,11.73,0,0,0,1.54.18l1.57-4.8a8,8,0,0,0,2.07-.45l3.41,3.73a13.2,13.2,0,0,0,2.55-1.77L91,322.21a8.44,8.44,0,0,0,1.14-1.78Z"/><path class="cls-8" d="M87.25,301.89a15.12,15.12,0,1,0,12.18,17.59A15.12,15.12,0,0,0,87.25,301.89Zm-5.08,27.93A13.26,13.26,0,1,1,97.6,319.15,13.27,13.27,0,0,1,82.17,329.82Z"/><path class="cls-8" d="M91.48,318a7.05,7.05,0,1,1-5.67-8.2A7,7,0,0,1,91.48,318Z"/><path class="cls-14" d="M88.13,317.42a3.64,3.64,0,1,1-2.93-4.23A3.64,3.64,0,0,1,88.13,317.42Z"/><path class="cls-15" d="M208.19,283.64l6.82,1.83a.69.69,0,0,1,0,1.34l-6,1.2a.69.69,0,0,1-.8-.5l-.78-3A.68.68,0,0,1,208.19,283.64Z"/><path class="cls-7" d="M249.62,316.32a17.32,17.32,0,0,0-12.84-10.26l-22-4a17.41,17.41,0,0,0-17.27,7.06L184.12,328l-63-11.48-5.84-22.41a17.34,17.34,0,0,0-13.68-12.7l-22-4a17.34,17.34,0,0,0-18.33,8.75h0a2.27,2.27,0,0,1-2.38,1.14l-2-.37a2.39,2.39,0,0,0-2.77,1.91l-1.57,8.67a2.37,2.37,0,0,0,.87,2.29l3.13,2.46a1.53,1.53,0,0,0,1.1.86,1.5,1.5,0,0,0,1.5-.64l8.64-12.77a10,10,0,0,1,10.5-5l22,4a9.93,9.93,0,0,1,7.83,7.27l5.16,19.78a4.27,4.27,0,0,0,3.37,3.13l70.87,12.9a4.26,4.26,0,0,0,4.25-1.74l11.8-16.69a9.92,9.92,0,0,1,9.9-4l22,4a9.94,9.94,0,0,1,8.06,8.4l2.14,15.19a.91.91,0,0,0,1.8,0S248.33,325.66,249.62,316.32Z"/><path class="cls-11" d="M227.82,314.64s2.48.74,3.21-.12c0,0,4,5.23,6.34,5.92,0,0,2.9,7.06,4.15,7.7,0,0-.28,6.38,1.24,7.81,0,0-3.14,5-3.4,8.53,0,0-1.11-.1-1.15,2.09,0,0-.59-1.51-1.81-1.79l.34-6.21,1.59-6.41-.37-2.57-4.24-7.46L230,318.32Z"/><path class="cls-9" d="M227.82,314.64s2.48.74,3.21-.12c0,0,4,5.23,6.34,5.92,0,0,2.9,7.06,4.15,7.7,0,0-.28,6.38,1.24,7.81,0,0-3.14,5-3.4,8.53,0,0-1.11-.1-1.15,2.09,0,0-.59-1.51-1.81-1.79l.34-6.21,1.59-6.41-.37-2.57-4.24-7.46L230,318.32Z"/><circle class="cls-11" cx="219.49" cy="334.17" r="21.4" transform="translate(-172.76 411.53) rotate(-67.86)"/><path class="cls-8" d="M233.48,333.91c-.13-8.35-6.58-15-14.39-14.9s-14,7-13.9,15.36,6.58,15,14.39,14.9S233.62,342.26,233.48,333.91ZM219.55,347.4c-6.85.12-12.5-5.73-12.62-13.06s5.34-13.35,12.19-13.47,12.5,5.74,12.62,13.07S226.4,347.29,219.55,347.4Z"/><path class="cls-9" d="M231.67,335.49a12.79,12.79,0,0,0,0-3.11l-4.69-.6a8.49,8.49,0,0,0-.79-1.94l2.8-4.07a13,13,0,0,0-2.1-2.16l-3.71,3.11a7.46,7.46,0,0,0-1.84-.77l-.71-5a14.13,14.13,0,0,0-1.46-.08,11.49,11.49,0,0,0-1.45.13l-.56,5a7.46,7.46,0,0,0-1.81.84l-3.81-3a12.65,12.65,0,0,0-2,2.23l2.92,4a8.57,8.57,0,0,0-.72,2l-4.67.76a12.7,12.7,0,0,0,.05,3.1l4.69.61a8.49,8.49,0,0,0,.79,1.94l-2.79,4.07a12.57,12.57,0,0,0,2.09,2.16l3.71-3.11a7.87,7.87,0,0,0,1.84.77l.72,5a11.64,11.64,0,0,0,1.45.07,9.89,9.89,0,0,0,1.45-.12l.56-5a7.43,7.43,0,0,0,1.81-.83l3.81,3a12.61,12.61,0,0,0,2-2.23l-2.92-4a8.74,8.74,0,0,0,.72-2Z"/><path class="cls-20" d="M227.1,314.17a7.85,7.85,0,0,1,.59,5.15s6.76-.45,6,6.56c0,0,8.15,5.18,2.27,10,0,0,1.73,6.59-1.81,9.92a7.43,7.43,0,0,1,3.35-.05,21.4,21.4,0,0,0-10.36-31.61Z"/><path class="cls-21" d="M228.46,314.76a19.64,19.64,0,0,0,3.95,5.41c4.32,4.38,7.29,9.33,5.86,13.72-1.25,3.86-2,9.4-.5,11.4a21.38,21.38,0,0,0-9.31-30.53Z"/><path class="cls-8" d="M225.93,334a6.61,6.61,0,1,1-6.71-6.94A6.83,6.83,0,0,1,225.93,334Z"/><path class="cls-14" d="M222.74,334.08a3.41,3.41,0,1,1-3.46-3.58A3.54,3.54,0,0,1,222.74,334.08Z"/></g></g></svg>