<svg width="468" height="476" viewBox="0 0 468 476" fill="none" xmlns="http://www.w3.org/2000/svg">
<g clip-path="url(#clip0_764_2458)">
<path d="M374.459 441.205H364.635V441.488H374.459V441.205Z" fill="#EBEBEB"/>
<path d="M470.009 427.645H448.322V427.928H470.009V427.645Z" fill="#EBEBEB"/>
<path d="M108.267 429.543H59.4587V429.826H108.267V429.543Z" fill="#EBEBEB"/>
<path d="M125.485 429.543H118.328V429.826H125.485V429.543Z" fill="#EBEBEB"/>
<path d="M254.596 434.315H148.742V434.598H254.596V434.315Z" fill="#EBEBEB"/>
<path d="M269.573 369.554H51.3713C47.8152 369.554 44.9213 366.66 44.9213 363.104V56.3858C44.9213 52.8297 47.8152 49.9358 51.3713 49.9358H269.573C273.128 49.9358 276.022 52.8297 276.022 56.3858V363.104C276.022 366.66 273.128 369.554 269.573 369.554ZM51.3713 50.2194C47.97 50.2194 45.2038 52.9857 45.2038 56.387V363.105C45.2038 366.506 47.97 369.273 51.3713 369.273H269.573C272.973 369.273 275.74 366.506 275.74 363.105V56.3858C275.74 52.9857 272.973 50.2183 269.573 50.2183L51.3713 50.2194Z" fill="#EBEBEB"/>
<path d="M513.989 369.554H295.787C292.232 369.554 289.338 366.66 289.338 363.104V56.3858C289.338 52.8297 292.232 49.9358 295.787 49.9358H513.989C517.546 49.9358 520.439 52.8297 520.439 56.3858V363.104C520.439 366.66 517.545 369.554 513.989 369.554ZM295.787 50.2194C292.387 50.2194 289.621 52.9857 289.621 56.387V363.105C289.621 366.506 292.387 369.273 295.787 369.273H513.989C517.39 369.273 520.156 366.506 520.156 363.105V56.3858C520.156 52.9857 517.39 50.2183 513.989 50.2183L295.787 50.2194Z" fill="#EBEBEB"/>
<path d="M565.18 419.95H0.180054V420.232H565.18V419.95Z" fill="#EBEBEB"/>
<path d="M135.024 343.508C134.069 332.594 122.929 328.509 109.727 329.664C96.5262 330.819 86.2635 336.777 87.2184 347.691L135.024 343.508Z" fill="#F0F0F0"/>
<path d="M109.291 324.676C115.418 324.14 117.374 318.965 116.837 312.838C116.301 306.711 113.476 301.954 107.349 302.491C101.222 303.026 99.2664 308.202 99.8032 314.329C100.339 320.456 103.164 325.213 109.291 324.676Z" fill="#F0F0F0"/>
<path d="M384.493 110.977C384.789 114.356 382.29 117.335 378.911 117.63C375.532 117.926 372.553 115.426 372.259 112.047C371.962 108.669 374.462 105.69 377.841 105.394C381.219 105.099 384.198 107.599 384.493 110.977Z" fill="#F5F5F5"/>
<path d="M418.476 108.004C418.772 111.383 416.272 114.362 412.893 114.657C409.515 114.953 406.536 112.453 406.24 109.075C405.944 105.696 408.443 102.717 411.822 102.421C415.202 102.126 418.179 104.626 418.476 108.004Z" fill="#F5F5F5"/>
<path d="M452.458 105.031C452.754 108.41 450.255 111.389 446.876 111.685C443.497 111.981 440.518 109.481 440.222 106.103C439.926 102.724 442.426 99.7452 445.805 99.4491C449.183 99.153 452.162 101.653 452.458 105.031Z" fill="#F5F5F5"/>
<path d="M387.524 145.615C387.82 148.994 385.32 151.973 381.942 152.269C378.563 152.565 375.584 150.065 375.288 146.687C374.992 143.308 377.492 140.329 380.87 140.034C384.25 139.737 387.229 142.235 387.524 145.615Z" fill="#F5F5F5"/>
<path d="M421.506 142.641C421.802 146.02 419.303 148.998 415.924 149.294C412.545 149.59 409.567 147.091 409.271 143.712C408.974 140.334 411.474 137.355 414.853 137.059C418.231 136.764 421.21 139.263 421.506 142.641Z" fill="#F5F5F5"/>
<path d="M455.489 139.668C455.785 143.047 453.285 146.025 449.906 146.32C446.528 146.616 443.549 144.117 443.253 140.738C442.957 137.359 445.457 134.381 448.835 134.085C452.214 133.791 455.193 136.29 455.489 139.668Z" fill="#F5F5F5"/>
<path d="M390.554 180.252C390.85 183.631 388.351 186.609 384.972 186.905C381.593 187.202 378.615 184.702 378.32 181.323C378.024 177.945 380.523 174.966 383.902 174.67C387.28 174.374 390.258 176.873 390.554 180.252Z" fill="#F5F5F5"/>
<path d="M424.537 177.279C424.833 180.658 422.333 183.636 418.955 183.932C415.576 184.228 412.597 181.729 412.301 178.35C412.005 174.971 414.505 171.993 417.883 171.698C421.262 171.401 424.241 173.9 424.537 177.279Z" fill="#F5F5F5"/>
<path d="M458.518 174.306C458.814 177.685 456.315 180.663 452.936 180.958C449.557 181.253 446.579 178.755 446.283 175.376C445.987 171.997 448.486 169.019 451.865 168.724C455.245 168.428 458.223 170.927 458.518 174.306Z" fill="#F5F5F5"/>
<path d="M451.177 176.3L381.358 182.409L443.262 107.188L379.835 112.738C379.094 112.802 378.441 112.254 378.376 111.513C378.312 110.772 378.86 110.119 379.601 110.054L449.419 103.945L387.516 179.166L450.943 173.617C451.684 173.552 452.337 174.1 452.402 174.84C452.466 175.582 451.918 176.236 451.177 176.3Z" fill="#E6E6E6"/>
<path d="M452.247 310.575C452.016 309.909 451.421 309.416 450.718 309.369C447.515 309.154 444.81 307.957 442.669 305.806C439.877 303.003 438.235 298.736 437.969 293.67C437.92 292.727 437.128 291.991 436.184 291.985C435.137 291.978 434.304 292.862 434.36 293.906C434.682 299.848 436.691 304.929 440.106 308.359C442.774 311.038 446.215 312.608 450.136 312.95C450.204 312.956 450.292 312.964 450.394 312.972C451.694 313.074 452.674 311.807 452.247 310.575Z" fill="#F0F0F0"/>
<path d="M448.636 332.264C433.659 330.953 422.86 320.746 419.442 304.818C419.224 303.802 419.871 302.802 420.895 302.624C421.841 302.46 422.765 303.059 422.965 303.998C426.027 318.323 435.641 327.497 448.951 328.662C463.547 329.939 479.223 320.336 482.031 296.127C482.145 295.146 483.001 294.422 483.984 294.507C484.991 294.596 485.746 295.494 485.627 296.497C482.936 319.322 467.929 333.952 448.636 332.264Z" fill="#F0F0F0"/>
<path d="M420.382 288.942C419.375 288.854 418.62 287.956 418.739 286.952C421.431 264.126 436.439 249.497 455.731 251.184C472.634 252.664 484.031 265.318 485.807 284.381C485.9 285.388 485.12 286.265 484.11 286.325H484.107C483.123 286.384 482.292 285.64 482.199 284.659C480.569 267.485 470.426 256.1 455.414 254.787C440.818 253.51 425.141 263.112 422.333 287.322C422.22 288.304 421.365 289.028 420.382 288.942Z" fill="#F0F0F0"/>
<path d="M449.372 322.582C446.588 322.338 443.976 321.688 441.58 320.641C440.604 320.215 440.202 319.041 440.712 318.106C441.156 317.292 442.147 316.939 442.995 317.313C445.249 318.303 447.739 318.885 450.423 319.032C461.494 319.666 473.178 311.825 474.322 292.879C475.028 281.211 471.031 271.785 463.568 267.278C462.768 266.794 462.471 265.783 462.883 264.944C463.352 263.992 464.541 263.64 465.45 264.188C474.085 269.402 478.723 280.04 477.933 293.097C476.829 311.366 465.43 323.516 450.215 322.644C449.934 322.626 449.651 322.606 449.372 322.582Z" fill="#F0F0F0"/>
<path d="M433.271 311.312C432.396 311.909 431.2 311.63 430.669 310.713C427.466 305.171 425.967 298.026 426.432 290.352C427.488 272.877 437.966 261 452.194 260.766C453.249 260.749 454.102 261.631 454.042 262.685V262.69C453.988 263.629 453.223 264.368 452.283 264.386C441.732 264.594 431.132 272.57 430.043 290.571C429.621 297.558 430.958 304.007 433.823 308.939C434.293 309.749 434.045 310.783 433.271 311.312Z" fill="#F0F0F0"/>
<path d="M457.977 309.834C457.609 308.996 457.931 308.029 458.715 307.557C463.466 304.696 466.385 298.691 466.435 291.453C466.475 285.655 464.792 280.751 461.697 277.643C459.31 275.245 456.224 274.039 452.526 274.045C446.955 274.06 442.444 277.112 439.944 282.483C439.551 283.328 438.573 283.728 437.697 283.406C436.701 283.04 436.228 281.893 436.678 280.933C439.769 274.335 445.57 270.446 452.516 270.427C457.148 270.42 461.21 272.028 464.26 275.091C468.041 278.887 470.097 284.706 470.051 291.477C469.993 300.018 466.395 307.178 460.535 310.682C459.613 311.234 458.41 310.818 457.977 309.834Z" fill="#F0F0F0"/>
<path d="M444.958 296.548C443.931 296.961 442.782 296.364 442.519 295.288C442.399 294.799 442.299 294.295 442.221 293.776C441.199 287.014 444.834 281.126 450.677 280.082C453.693 279.541 456.383 280.25 458.438 282.085C459.272 282.831 459.208 284.161 458.298 284.813L458.185 284.893C457.5 285.384 456.597 285.273 455.959 284.724C454.733 283.672 453.176 283.308 451.313 283.641C446.86 284.438 445.167 289.071 445.798 293.235C445.859 293.641 445.936 294.034 446.028 294.411C446.243 295.298 445.805 296.207 444.958 296.548Z" fill="#F0F0F0"/>
<path d="M450.934 303.506C450.929 303.506 450.924 303.504 450.919 303.504C449.673 303.394 448.984 301.997 449.649 300.936L449.803 300.691C450.136 300.16 450.731 299.867 451.357 299.911C451.893 299.947 452.46 299.913 453.054 299.807C456.942 299.111 458.726 295.491 458.696 291.811C458.688 290.893 459.324 290.099 460.231 289.963C461.292 289.802 462.295 290.591 462.315 291.664C462.422 297.561 458.951 302.428 453.69 303.368C452.741 303.537 451.817 303.584 450.934 303.506Z" fill="#F0F0F0"/>
<path d="M451.737 296.83C449.812 296.661 448.376 295.364 447.856 293.512C447.554 292.438 448.454 291.399 449.564 291.496L449.979 291.532C450.623 291.589 451.154 292.029 451.369 292.64C451.474 292.938 451.675 293.193 452.051 293.226C452.92 293.302 453.073 292.055 453.095 291.804C453.111 291.626 453.148 290.933 452.852 290.525C452.562 290.125 452.363 289.668 452.406 289.175C452.547 287.567 454.579 286.921 455.604 288.168C456.419 289.16 456.837 290.549 456.699 292.12C456.44 295.077 454.353 297.059 451.737 296.83Z" fill="#F0F0F0"/>
<path d="M417.754 256.388C416.758 256.301 416.022 255.424 416.109 254.429L417.48 238.76L433.149 240.131C434.144 240.218 434.88 241.095 434.793 242.09C434.706 243.086 433.829 243.821 432.833 243.734L420.768 242.679L419.713 254.744C419.626 255.739 418.748 256.475 417.754 256.388Z" fill="#F0F0F0"/>
<path d="M424.263 341.684L408.595 340.313L409.966 324.645C410.053 323.649 410.929 322.913 411.925 323C412.921 323.087 413.656 323.964 413.569 324.96L412.514 337.025L424.579 338.08C425.574 338.167 426.31 339.044 426.223 340.04C426.136 341.035 425.259 341.771 424.263 341.684Z" fill="#F0F0F0"/>
<path d="M84.625 307.772C84.0136 307.825 83.4735 307.373 83.4204 306.761L82.5774 297.128L92.2106 296.285C92.8231 296.232 93.3621 296.684 93.4152 297.296C93.4683 297.907 93.0163 298.448 92.4039 298.501L84.9854 299.149L85.634 306.568C85.6894 307.18 85.2363 307.719 84.625 307.772Z" fill="#E0E0E0"/>
<path d="M130.431 303.765C129.819 303.818 129.279 303.366 129.226 302.754L128.577 295.336L121.159 295.984C120.548 296.037 120.008 295.585 119.954 294.973C119.901 294.362 120.353 293.821 120.966 293.768L130.599 292.925L131.442 302.559C131.495 303.172 131.043 303.712 130.431 303.765Z" fill="#E0E0E0"/>
<path d="M135.177 345.248L125.543 346.091C124.932 346.144 124.392 345.692 124.339 345.079C124.286 344.468 124.738 343.928 125.35 343.875L132.769 343.226L132.12 335.808C132.067 335.195 132.519 334.656 133.131 334.603C133.743 334.55 134.283 335.002 134.336 335.614L135.177 345.248Z" fill="#E0E0E0"/>
<path d="M96.7883 348.606L87.1551 349.449L86.3121 339.815C86.259 339.203 86.711 338.663 87.3234 338.61C87.9348 338.557 88.4749 339.009 88.528 339.621L89.1767 347.04L96.5951 346.391C97.2064 346.338 97.7466 346.79 97.7997 347.403C97.8528 348.013 97.3997 348.552 96.7883 348.606Z" fill="#E0E0E0"/>
<path d="M129.659 147.111L92.7858 150.337L92.031 141.709C91.2479 132.757 97.8934 124.838 106.844 124.055C115.796 123.272 123.715 129.917 124.498 138.868L124.937 143.882L130.257 143.416L129.818 138.402C128.779 126.517 118.264 117.695 106.379 118.735C94.4933 119.774 85.6713 130.289 86.7109 142.174L87.4703 150.853C83.1797 151.689 80.1253 155.646 80.514 160.097L83.1481 190.204C83.565 194.964 87.7619 198.485 92.5225 198.07L133.801 194.458C138.562 194.042 142.083 189.845 141.667 185.085L139.033 154.978C138.616 150.216 134.42 146.694 129.659 147.111ZM113.996 170.31L114.903 180.677C115.052 182.378 113.794 183.878 112.092 184.027C110.39 184.176 108.891 182.917 108.741 181.216L107.834 170.849C106.48 170.015 105.514 168.588 105.365 166.882C105.114 164.017 107.234 161.492 110.099 161.241C112.963 160.99 115.489 163.11 115.74 165.974C115.888 167.679 115.184 169.253 113.996 170.31Z" fill="#EBEBEB"/>
<path d="M192.783 164.564L189.055 158.487C187.036 158.766 185.384 158.766 183.364 158.487L179.637 164.564L178.921 164.374C176.519 163.736 174.201 162.773 172.034 161.515L171.393 161.144L172.974 154.547C173.102 154.012 173.638 153.683 174.173 153.811C174.707 153.939 175.036 154.476 174.907 155.01L173.673 160.156C175.284 161.033 176.976 161.736 178.721 162.253L182.362 156.316L183.021 156.424C185.132 156.768 187.285 156.768 189.396 156.424L190.055 156.316L193.696 162.253C195.441 161.735 197.133 161.033 198.744 160.156L197.123 153.393L197.666 153.004C199.144 151.942 200.461 150.687 201.592 149.266C201.928 148.844 202.526 148.744 202.963 149.059C203.417 149.386 203.524 150.03 203.177 150.469C202.065 151.872 200.788 153.129 199.366 154.218L201.026 161.144L200.387 161.515C198.219 162.773 195.902 163.736 193.499 164.374L192.783 164.564ZM169.934 151.297C169.621 150.939 169.318 150.57 169.028 150.192L162.101 151.851L161.729 151.211C160.472 149.044 159.509 146.726 158.871 144.324L158.681 143.608L164.758 139.88C164.618 138.868 164.55 137.932 164.55 137.035C164.55 136.139 164.619 135.202 164.758 134.19L158.681 130.463L158.871 129.748C159.509 127.345 160.472 125.028 161.729 122.86L162.101 122.221L169.027 123.88C170.187 122.365 171.538 121.016 173.052 119.855L171.795 114.614C171.668 114.08 171.997 113.545 172.529 113.417L172.532 113.416C173.066 113.288 173.601 113.617 173.729 114.149L175.293 120.678L174.746 121.072C173.01 122.321 171.488 123.843 170.239 125.579L169.85 126.12L163.087 124.5C162.211 126.11 161.509 127.803 160.99 129.548L166.925 133.187L166.818 133.846C166.628 135.011 166.535 136.054 166.535 137.034C166.535 138.016 166.628 139.058 166.818 140.222L166.925 140.879L160.989 144.521C161.507 146.267 162.21 147.959 163.085 149.569L169.848 147.949L170.238 148.49C170.606 149.001 171 149.497 171.416 149.972C171.762 150.368 171.752 150.959 171.374 151.324L171.338 151.359C170.94 151.747 170.3 151.715 169.934 151.297ZM210.317 151.852L207.763 151.24C207.229 151.113 206.9 150.576 207.028 150.041C207.155 149.508 207.692 149.178 208.227 149.306L209.33 149.57C210.205 147.96 210.907 146.267 211.426 144.522L205.49 140.88L205.597 140.223C205.787 139.059 205.88 138.016 205.88 137.035C205.88 136.054 205.787 135.012 205.597 133.847L205.49 133.189L211.425 129.549C210.907 127.803 210.204 126.111 209.328 124.501L202.565 126.122L202.175 125.58C200.927 123.845 199.405 122.323 197.669 121.073L197.122 120.679L198.743 113.916C197.132 113.041 195.44 112.338 193.695 111.819L190.054 117.755L189.395 117.649C187.283 117.306 185.129 117.306 183.017 117.649L182.36 117.755L178.719 111.82C178.493 111.887 178.267 111.958 178.041 112.032C177.537 112.197 176.995 111.925 176.813 111.428C176.621 110.905 176.893 110.315 177.422 110.142C177.918 109.98 178.418 109.831 178.917 109.699L179.633 109.508L183.361 115.587C185.389 115.305 187.022 115.305 189.051 115.587L192.778 109.508L193.495 109.698C195.897 110.338 198.215 111.3 200.382 112.557L201.022 112.929L199.362 119.856C200.876 121.017 202.226 122.367 203.387 123.881L210.313 122.222L210.684 122.862C211.942 125.029 212.905 127.346 213.543 129.749L213.733 130.464L207.656 134.191C207.796 135.203 207.864 136.14 207.864 137.036C207.864 137.933 207.795 138.869 207.656 139.882L213.733 143.609L213.543 144.325C212.905 146.727 211.942 149.045 210.684 151.212L210.317 151.852ZM185.931 146.718C180.882 146.576 176.671 142.368 176.527 137.319C176.381 132.23 180.183 127.98 185.091 127.414C185.684 127.345 186.21 127.81 186.21 128.408C186.21 128.909 185.836 129.331 185.337 129.387C181.009 129.878 177.758 133.971 178.665 138.585C179.253 141.582 181.668 143.997 184.666 144.582C189.585 145.544 193.908 141.786 193.908 137.035C193.908 135.445 193.418 133.906 192.515 132.617C192.23 132.21 192.307 131.654 192.68 131.325C193.126 130.931 193.823 131.013 194.163 131.503C195.287 133.119 195.897 135.045 195.897 137.035C195.895 142.469 191.399 146.872 185.931 146.718Z" fill="#F0F0F0"/>
<path d="M122.575 247.279L120.167 243.353C118.863 243.534 117.795 243.534 116.491 243.353L114.083 247.279L113.621 247.156C112.068 246.743 110.571 246.122 109.171 245.308L108.757 245.067L109.779 240.805C109.861 240.46 110.208 240.247 110.553 240.331C110.897 240.413 111.11 240.76 111.027 241.105L110.231 244.429C111.272 244.995 112.364 245.449 113.492 245.784L115.844 241.949L116.27 242.019C117.633 242.241 119.024 242.241 120.388 242.019L120.814 241.949L123.167 245.784C124.295 245.449 125.387 244.995 126.428 244.429L125.381 240.06L125.731 239.808C126.686 239.123 127.537 238.311 128.268 237.394C128.485 237.121 128.871 237.057 129.154 237.26C129.446 237.472 129.515 237.887 129.292 238.171C128.573 239.077 127.748 239.89 126.829 240.594L127.902 245.067L127.488 245.308C126.088 246.121 124.591 246.742 123.038 247.156L122.575 247.279ZM107.814 238.709C107.611 238.477 107.416 238.24 107.228 237.995L102.754 239.067L102.514 238.654C101.702 237.254 101.08 235.756 100.668 234.204L100.544 233.741L104.47 231.333C104.38 230.679 104.336 230.075 104.336 229.495C104.336 228.916 104.38 228.311 104.47 227.656L100.544 225.248L100.668 224.786C101.08 223.234 101.702 221.737 102.514 220.336L102.754 219.923L107.228 220.995C107.978 220.017 108.85 219.145 109.829 218.395L109.017 215.009C108.935 214.665 109.147 214.319 109.491 214.237L109.493 214.235C109.838 214.153 110.183 214.365 110.266 214.71L111.276 218.928L110.922 219.183C109.801 219.989 108.818 220.972 108.011 222.095L107.759 222.445L103.39 221.398C102.825 222.439 102.371 223.532 102.036 224.66L105.87 227.011L105.801 227.437C105.678 228.19 105.619 228.863 105.619 229.497C105.619 230.131 105.679 230.805 105.801 231.557L105.871 231.982L102.037 234.335C102.372 235.462 102.826 236.555 103.391 237.596L107.761 236.55L108.013 236.9C108.25 237.23 108.504 237.551 108.773 237.858C108.997 238.113 108.99 238.495 108.746 238.73L108.722 238.753C108.463 238.998 108.051 238.978 107.814 238.709ZM133.902 239.066L132.252 238.672C131.908 238.589 131.694 238.242 131.777 237.898C131.859 237.553 132.206 237.341 132.551 237.423L133.264 237.594C133.829 236.553 134.283 235.46 134.617 234.332L130.783 231.98L130.853 231.555C130.975 230.803 131.035 230.129 131.035 229.495C131.035 228.861 130.975 228.188 130.853 227.435L130.784 227.009L134.618 224.657C134.284 223.53 133.83 222.437 133.265 221.396L128.895 222.443L128.643 222.092C127.836 220.971 126.853 219.987 125.732 219.18L125.378 218.926L126.426 214.556C125.385 213.99 124.293 213.537 123.165 213.201L120.813 217.036L120.388 216.967C119.024 216.745 117.633 216.745 116.268 216.967L115.844 217.036L113.492 213.201C113.346 213.244 113.199 213.291 113.055 213.338C112.729 213.444 112.379 213.269 112.261 212.948C112.137 212.61 112.313 212.23 112.655 212.118C112.976 212.013 113.299 211.917 113.62 211.832L114.083 211.709L116.491 215.635C117.802 215.454 118.856 215.454 120.167 215.635L122.575 211.709L123.037 211.832C124.589 212.246 126.086 212.867 127.487 213.678L127.901 213.919L126.828 218.394C127.807 219.144 128.678 220.015 129.428 220.994L133.903 219.922L134.143 220.335C134.955 221.735 135.577 223.232 135.989 224.785L136.112 225.247L132.187 227.655C132.277 228.31 132.321 228.914 132.321 229.494C132.321 230.073 132.277 230.678 132.187 231.332L136.112 233.74L135.989 234.203C135.577 235.755 134.955 237.252 134.143 238.652L133.902 239.066ZM118.149 235.75C114.886 235.658 112.168 232.939 112.074 229.677C111.979 226.39 114.436 223.644 117.606 223.278C117.989 223.234 118.328 223.534 118.328 223.92C118.328 224.244 118.087 224.516 117.765 224.552C114.969 224.869 112.868 227.513 113.454 230.495C113.833 232.431 115.394 233.991 117.331 234.37C120.508 234.991 123.302 232.563 123.302 229.494C123.302 228.467 122.985 227.472 122.402 226.639C122.218 226.377 122.268 226.017 122.508 225.804C122.798 225.549 123.246 225.603 123.466 225.92C124.193 226.964 124.587 228.208 124.587 229.494C124.585 233.005 121.68 235.85 118.149 235.75Z" fill="#E6E6E6"/>
<path d="M282.68 470.368C403.683 470.368 501.775 464.64 501.775 457.573C501.775 450.507 403.683 444.778 282.68 444.778C161.677 444.778 63.5854 450.507 63.5854 457.573C63.5854 464.64 161.677 470.368 282.68 470.368Z" fill="#F5F5F5"/>
<path d="M410.879 152.625H374.085L348.06 450.096H384.854C395.317 450.096 404.574 441.584 405.49 431.12L428.195 171.601C429.11 161.137 421.342 152.625 410.879 152.625Z" fill="#407BFF"/>
<path d="M403.371 152.625H278.846C268.382 152.625 259.125 161.137 258.21 171.601L235.505 431.12C234.589 441.584 242.357 450.096 252.821 450.096H377.346C387.81 450.096 397.067 441.584 397.982 431.12L420.687 171.601C421.602 161.137 413.835 152.625 403.371 152.625Z" fill="#407BFF"/>
<path opacity="0.3" d="M403.371 152.625H278.846C268.382 152.625 259.125 161.137 258.21 171.601L235.505 431.12C234.589 441.584 242.357 450.096 252.821 450.096H377.346C387.81 450.096 397.067 441.584 397.982 431.12L420.687 171.601C421.602 161.137 413.835 152.625 403.371 152.625Z" fill="white"/>
<path opacity="0.4" d="M402.839 158.704H370.008C368.071 158.704 366.253 159.975 365.535 161.831C362.881 168.69 356.159 173.387 349 173.387H329.585C322.425 173.387 316.525 168.689 315.07 161.831C314.677 159.975 313.082 158.705 311.145 158.705H278.314C271.191 158.705 264.913 164.478 264.289 171.601L241.584 431.12C240.962 438.242 246.23 444.015 253.352 444.015H377.877C384.999 444.015 391.278 438.242 391.901 431.12L414.606 171.601C415.229 164.478 409.961 158.704 402.839 158.704Z" fill="white"/>
<path d="M371.818 299.673H284.668C282.083 299.673 280.173 297.578 280.399 294.994L280.835 290.008C281.061 287.423 283.339 285.329 285.923 285.329H373.073C375.658 285.329 377.568 287.424 377.342 290.008L376.906 294.994C376.68 297.578 374.402 299.673 371.818 299.673Z" fill="white"/>
<path d="M369.935 321.188H282.785C280.201 321.188 278.29 319.093 278.516 316.51L278.952 311.523C279.178 308.939 281.456 306.845 284.041 306.845H371.191C373.775 306.845 375.686 308.94 375.46 311.523L375.024 316.51C374.798 319.093 372.52 321.188 369.935 321.188Z" fill="white"/>
<path opacity="0.1" d="M345.339 163.565C345.088 166.431 342.562 168.753 339.696 168.753C336.831 168.753 334.712 166.431 334.963 163.565C335.214 160.7 337.739 158.377 340.605 158.377C343.47 158.377 345.589 160.7 345.339 163.565Z" fill="black"/>
<path opacity="0.1" d="M342.985 163.565C342.848 165.13 341.468 166.399 339.902 166.399C338.337 166.399 337.179 165.13 337.316 163.565C337.452 162 338.832 160.731 340.398 160.731C341.964 160.731 343.121 162 342.985 163.565Z" fill="black"/>
<g opacity="0.8">
<path d="M387.509 172.219C386.669 172.219 386.048 171.539 386.121 170.699L386.364 167.92C386.438 167.081 387.178 166.4 388.018 166.4C388.857 166.4 389.479 167.081 389.405 167.92L389.162 170.699C389.089 171.539 388.349 172.219 387.509 172.219Z" fill="white"/>
<path d="M399.67 172.219C398.831 172.219 398.209 171.538 398.283 170.699L398.853 164.178C398.927 163.338 399.667 162.658 400.506 162.658C401.346 162.658 401.967 163.338 401.894 164.178L401.323 170.699C401.25 171.538 400.51 172.219 399.67 172.219Z" fill="white"/>
<path d="M393.59 172.219C392.75 172.219 392.128 171.538 392.202 170.699L392.609 166.049C392.682 165.209 393.422 164.529 394.262 164.529C395.102 164.529 395.723 165.209 395.65 166.049L395.243 170.699C395.169 171.538 394.429 172.219 393.59 172.219Z" fill="white"/>
</g>
<g opacity="0.8">
<path d="M283.398 172.219H275.764C275.289 172.219 274.937 171.833 274.979 171.358L275.337 167.259C275.379 166.783 275.798 166.398 276.273 166.398H283.906C284.382 166.398 284.733 166.783 284.691 167.259L284.333 171.358C284.291 171.833 283.873 172.219 283.398 172.219Z" fill="white"/>
<path d="M286.937 171.107C286.461 171.107 286.11 170.721 286.151 170.246L286.315 168.371C286.357 167.895 286.776 167.51 287.251 167.51C287.727 167.51 288.078 167.895 288.036 168.371L287.872 170.246C287.832 170.721 287.413 171.107 286.937 171.107Z" fill="white"/>
</g>
<path d="M357.472 266.895C372.678 252.339 374.193 229.245 360.857 215.313C347.52 201.38 324.382 201.885 309.176 216.44C293.97 230.996 292.455 254.09 305.792 268.022C319.128 281.955 342.267 281.45 357.472 266.895Z" fill="white"/>
<path d="M333.441 240.258C323.853 240.258 315.76 243.906 315.067 251.833L314.297 260.63H349.021L349.791 251.833C350.483 243.906 343.03 240.258 333.441 240.258Z" fill="#407BFF"/>
<path d="M333.758 236.636C338.208 236.636 340.26 233.029 340.649 228.579C341.039 224.129 339.617 220.522 335.167 220.522C330.717 220.522 328.665 224.129 328.276 228.579C327.887 233.029 329.308 236.636 333.758 236.636Z" fill="#407BFF"/>
<path d="M367.84 292.244C365.472 292.244 363.473 293.145 363.302 295.103L363.112 297.276H371.689L371.879 295.103C372.05 293.145 370.209 292.244 367.84 292.244Z" fill="#407BFF"/>
<path d="M367.918 291.349C369.018 291.349 369.524 290.457 369.62 289.359C369.716 288.26 369.366 287.369 368.266 287.369C367.167 287.369 366.661 288.261 366.565 289.359C366.468 290.459 366.82 291.349 367.918 291.349Z" fill="#407BFF"/>
<path d="M341.433 342.703H307.523C303.562 342.703 300.632 339.493 300.979 335.531C301.326 331.57 304.818 328.359 308.778 328.359H342.689C346.649 328.359 349.579 331.57 349.232 335.531C348.886 339.493 345.394 342.703 341.433 342.703Z" fill="#407BFF"/>
<path d="M337.343 422.684H301.05C296.865 422.684 293.769 419.291 294.135 415.105L296.45 388.635C296.816 384.45 300.506 381.056 304.691 381.056H340.984C345.169 381.056 348.265 384.45 347.899 388.635L345.584 415.105C345.218 419.291 341.528 422.684 337.343 422.684Z" fill="#407BFF"/>
<g opacity="0.6">
<path d="M326.15 395.321C326.37 392.803 324.507 390.761 321.988 390.761C319.469 390.761 317.249 392.803 317.029 395.321C316.898 396.821 317.516 398.141 318.561 398.971L317.763 408.086C317.632 409.582 318.738 410.795 320.234 410.795C321.731 410.795 323.049 409.582 323.18 408.086L323.978 398.971C325.17 398.141 326.019 396.822 326.15 395.321Z" fill="white"/>
</g>
<path d="M341.306 386.566H336.629L337.774 373.47C338.463 365.599 332.62 359.196 324.75 359.196C316.88 359.196 309.916 365.599 309.228 373.47L308.082 386.566H303.405L304.551 373.47C305.465 363.02 314.71 354.519 325.159 354.519C335.608 354.519 343.366 363.02 342.451 373.47L341.306 386.566Z" fill="#407BFF"/>
<path d="M368.414 312.301L368.524 311.045C368.637 309.76 367.683 308.716 366.398 308.716C365.113 308.716 363.978 309.761 363.866 311.045L363.756 312.301C363.243 312.301 362.791 312.717 362.747 313.23L362.455 316.571C362.409 317.084 362.789 317.499 363.302 317.499H367.958C368.471 317.499 368.923 317.084 368.968 316.571L369.261 313.23C369.306 312.717 368.927 312.301 368.414 312.301ZM366.349 309.29C367.316 309.29 368.033 310.076 367.95 311.044L367.84 312.3H364.332L364.441 311.044C364.526 310.076 365.381 309.29 366.349 309.29Z" fill="#407BFF"/>
<path d="M298.327 313.639L296.702 313.304C296.51 313.264 296.411 313.062 296.491 312.872L297.168 311.272C297.314 310.928 296.895 310.674 296.632 310.947L295.404 312.212C295.258 312.362 295.024 312.362 294.905 312.212L293.899 310.947C293.683 310.675 293.221 310.928 293.305 311.272L293.702 312.872C293.749 313.062 293.615 313.264 293.415 313.304L291.731 313.639C291.37 313.712 291.326 314.219 291.675 314.291L293.3 314.627C293.492 314.666 293.591 314.869 293.511 315.059L292.834 316.659C292.688 317.002 293.107 317.256 293.37 316.984L294.598 315.719C294.744 315.568 294.978 315.568 295.096 315.719L296.103 316.984C296.319 317.256 296.781 317.002 296.697 316.659L296.3 315.059C296.252 314.869 296.387 314.666 296.587 314.627L298.271 314.291C298.632 314.219 298.676 313.711 298.327 313.639Z" fill="#263238"/>
<path d="M309.02 313.639L307.395 313.304C307.203 313.264 307.104 313.062 307.184 312.872L307.861 311.272C308.007 310.928 307.589 310.674 307.325 310.947L306.097 312.212C305.951 312.362 305.718 312.362 305.599 312.212L304.592 310.947C304.376 310.675 303.914 310.928 303.999 311.272L304.395 312.872C304.443 313.062 304.307 313.264 304.108 313.304L302.424 313.639C302.063 313.712 302.019 314.219 302.367 314.291L303.992 314.627C304.184 314.666 304.283 314.869 304.203 315.059L303.526 316.659C303.38 317.002 303.799 317.256 304.062 316.984L305.29 315.719C305.436 315.568 305.669 315.568 305.788 315.719L306.795 316.984C307.011 317.256 307.473 317.002 307.389 316.659L306.992 315.059C306.944 314.869 307.08 314.666 307.279 314.627L308.963 314.291C309.325 314.219 309.369 313.711 309.02 313.639Z" fill="#263238"/>
<path d="M319.714 313.639L318.089 313.304C317.896 313.264 317.797 313.062 317.877 312.872L318.554 311.272C318.7 310.928 318.282 310.674 318.019 310.947L316.79 312.212C316.644 312.362 316.411 312.362 316.292 312.212L315.285 310.947C315.069 310.675 314.607 310.928 314.692 311.272L315.088 312.872C315.136 313.062 315.001 313.264 314.801 313.304L313.118 313.639C312.756 313.712 312.712 314.219 313.06 314.291L314.685 314.627C314.877 314.666 314.977 314.869 314.896 315.059L314.219 316.659C314.074 317.002 314.492 317.256 314.755 316.984L315.983 315.719C316.129 315.568 316.363 315.568 316.482 315.719L317.489 316.984C317.704 317.256 318.167 317.002 318.082 316.659L317.685 315.059C317.638 314.869 317.772 314.666 317.972 314.627L319.656 314.291C320.019 314.219 320.063 313.711 319.714 313.639Z" fill="#263238"/>
<path d="M330.408 313.639L328.783 313.304C328.591 313.264 328.491 313.062 328.572 312.872L329.248 311.272C329.394 310.928 328.976 310.674 328.713 310.947L327.484 312.212C327.339 312.362 327.105 312.362 326.986 312.212L325.979 310.947C325.763 310.675 325.301 310.928 325.386 311.272L325.783 312.872C325.83 313.062 325.696 313.264 325.496 313.304L323.812 313.639C323.45 313.712 323.406 314.219 323.755 314.291L325.38 314.627C325.573 314.666 325.672 314.869 325.592 315.059L324.915 316.659C324.769 317.002 325.187 317.256 325.45 316.984L326.679 315.719C326.825 315.568 327.058 315.568 327.177 315.719L328.184 316.984C328.4 317.256 328.862 317.002 328.777 316.659L328.381 315.059C328.333 314.869 328.468 314.666 328.668 314.627L330.351 314.291C330.712 314.219 330.757 313.711 330.408 313.639Z" fill="#263238"/>
<path d="M341.101 313.639L339.476 313.304C339.284 313.264 339.184 313.062 339.265 312.872L339.942 311.272C340.087 310.928 339.669 310.674 339.406 310.947L338.178 312.212C338.032 312.362 337.798 312.362 337.679 312.212L336.672 310.947C336.457 310.675 335.994 310.928 336.079 311.272L336.476 312.872C336.523 313.062 336.389 313.264 336.189 313.304L334.505 313.639C334.144 313.712 334.099 314.219 334.448 314.291L336.072 314.627C336.265 314.666 336.364 314.869 336.284 315.059L335.607 316.659C335.462 317.002 335.879 317.256 336.143 316.984L337.371 315.719C337.517 315.568 337.749 315.568 337.869 315.719L338.876 316.984C339.092 317.256 339.554 317.002 339.469 316.659L339.073 315.059C339.025 314.869 339.161 314.666 339.36 314.627L341.043 314.291C341.405 314.219 341.45 313.711 341.101 313.639Z" fill="#263238"/>
<path d="M351.794 313.639L350.169 313.304C349.977 313.264 349.878 313.062 349.958 312.872L350.635 311.272C350.779 310.928 350.362 310.674 350.099 310.947L348.871 312.212C348.725 312.362 348.492 312.362 348.373 312.212L347.366 310.947C347.15 310.675 346.688 310.928 346.772 311.272L347.169 312.872C347.217 313.062 347.081 313.264 346.882 313.304L345.198 313.639C344.837 313.712 344.793 314.219 345.141 314.291L346.766 314.627C346.958 314.666 347.057 314.869 346.977 315.059L346.3 316.659C346.154 317.002 346.572 317.256 346.836 316.984L348.064 315.719C348.21 315.568 348.444 315.568 348.562 315.719L349.569 316.984C349.785 317.256 350.247 317.002 350.162 316.659L349.766 315.059C349.718 314.869 349.853 314.666 350.053 314.627L351.737 314.291C352.098 314.219 352.143 313.711 351.794 313.639Z" fill="#263238"/>
<path d="M326.019 290.242H305.941C304.693 290.242 303.594 291.253 303.484 292.5C303.375 293.748 304.298 294.759 305.546 294.759H325.623C326.871 294.759 327.97 293.748 328.08 292.5C328.19 291.253 327.266 290.242 326.019 290.242Z" fill="#263238"/>
<path d="M346.401 290.242H334.75C333.503 290.242 332.403 291.253 332.294 292.5C332.184 293.748 333.107 294.759 334.355 294.759H346.005C347.253 294.759 348.352 293.748 348.462 292.5C348.571 291.253 347.648 290.242 346.401 290.242Z" fill="#263238"/>
<path d="M361.781 392.678C354.211 395.701 347.575 400.11 343.032 405.124C340.369 402.857 336.582 401.283 332.043 400.563L331.511 400.479L331.278 403.144L331.575 403.256C336.056 404.949 339.702 407.952 342.121 411.94L342.501 412.567L342.921 411.895C347.577 404.442 354.366 398.197 362.037 394.312L362.296 394.18L362.451 392.408L361.781 392.678Z" fill="#263238"/>
<path opacity="0.2" d="M260.809 170.193C259.398 172.675 258.466 175.445 258.209 178.379L241.381 370.729H293.448L303.909 330.622L300.466 290.515L310.928 250.408L307.485 210.301L317.946 170.194H260.809V170.193Z" fill="black"/>
<path d="M302.965 199.001L313.425 158.893H181.753L171.291 199.001L174.736 239.108L164.274 279.215L167.717 319.323L157.256 359.43H288.928L299.389 319.323L295.946 279.215L306.407 239.108L302.965 199.001Z" fill="#407BFF"/>
<path opacity="0.7" d="M302.965 199.001L313.425 158.893H181.753L171.291 199.001L174.736 239.108L164.274 279.215L167.717 319.323L157.256 359.43H288.928L299.389 319.323L295.946 279.215L306.407 239.108L302.965 199.001Z" fill="white"/>
<path opacity="0.5" d="M302.964 199.001H171.292L181.753 158.893H313.425L302.964 199.001Z" fill="white"/>
<path opacity="0.5" d="M295.946 279.215H164.274L174.736 239.108H306.408L295.946 279.215Z" fill="white"/>
<path opacity="0.5" d="M288.928 359.43H157.256L167.717 319.323H299.389L288.928 359.43Z" fill="white"/>
<path opacity="0.2" d="M285.345 215.761C284.214 216.115 282.765 216.327 281.186 216.327C278.862 216.327 276.819 215.867 275.657 215.175C275.338 214.984 274.988 214.889 274.638 214.889C274.312 214.889 273.988 214.98 273.688 215.144C273.665 215.156 273.64 215.161 273.619 215.175C273.606 215.182 273.59 215.188 273.578 215.196C273.147 215.447 272.605 215.667 271.972 215.845C270.886 216.149 269.544 216.328 268.091 216.328C267.696 216.328 267.309 216.315 266.934 216.29C265.807 216.213 264.78 216.028 263.932 215.763C263.784 215.717 263.635 215.69 263.489 215.68C262.464 215.612 261.543 216.398 261.543 217.485V218.71H210.365C206.404 218.71 203.193 221.921 203.193 225.882V233.11C203.193 237.071 206.404 240.282 210.365 240.282H268.59C268.719 240.282 268.843 240.27 268.971 240.263C269.599 240.783 270.253 241.301 270.946 241.827C271.776 242.455 272.649 243.092 273.564 243.757C274.202 244.219 275.076 244.219 275.714 243.757C283.035 238.447 287.736 234.785 287.736 224.722V217.487C287.735 216.242 286.531 215.39 285.345 215.761Z" fill="black"/>
<path d="M267.477 236.299H209.252C205.291 236.299 202.079 233.088 202.079 229.127V221.899C202.079 217.939 205.29 214.727 209.252 214.727H267.477C271.438 214.727 274.649 217.937 274.649 221.899V229.127C274.649 233.087 271.438 236.299 267.477 236.299Z" fill="#407BFF"/>
<path d="M280.074 212.345C277.75 212.345 275.708 211.885 274.545 211.192C273.907 210.812 273.145 210.812 272.507 211.192C271.345 211.885 269.303 212.345 266.978 212.345C265.398 212.345 263.95 212.133 262.819 211.78C261.634 211.409 260.429 212.26 260.429 213.503V220.739C260.429 230.801 265.13 234.464 272.451 239.773C273.089 240.236 273.963 240.236 274.601 239.773C281.922 234.464 286.623 230.801 286.623 220.739V213.503C286.623 212.26 285.419 211.409 284.233 211.78C283.102 212.133 281.654 212.345 280.074 212.345Z" fill="#407BFF"/>
<path opacity="0.3" d="M280.074 212.345C277.75 212.345 275.708 211.885 274.545 211.192C273.907 210.812 273.145 210.812 272.507 211.192C271.345 211.885 269.303 212.345 266.978 212.345C265.398 212.345 263.95 212.133 262.819 211.78C261.634 211.409 260.429 212.26 260.429 213.503V220.739C260.429 230.801 265.13 234.464 272.451 239.773C273.089 240.236 273.963 240.236 274.601 239.773C281.922 234.464 286.623 230.801 286.623 220.739V213.503C286.623 212.26 285.419 211.409 284.233 211.78C283.102 212.133 281.654 212.345 280.074 212.345Z" fill="white"/>
<path opacity="0.2" d="M272.507 211.192C271.345 211.885 269.303 212.345 266.978 212.345C265.398 212.345 263.95 212.133 262.819 211.78C261.634 211.409 260.429 212.26 260.429 213.502V220.739C260.429 230.801 265.13 234.464 272.451 239.773C272.77 240.004 273.147 240.12 273.526 240.12V210.906C273.176 210.906 272.825 211.001 272.507 211.192Z" fill="white"/>
<path d="M284.02 218.763C279.289 220.721 275.24 223.576 272.584 226.824C270.73 225.356 268.189 224.337 265.208 223.87L264.859 223.816V225.542L265.058 225.615C268.056 226.711 270.587 228.657 272.38 231.239L272.662 231.644L272.895 231.209C275.489 226.382 279.532 222.338 284.279 219.822L284.441 219.736V218.589L284.02 218.763Z" fill="#263238"/>
<path d="M311.101 170.171H306.105C303.334 170.171 301.285 167.926 301.527 165.155L301.965 160.159C302.208 157.389 304.65 155.143 307.42 155.143H312.416C315.187 155.143 317.235 157.39 316.994 160.159L316.556 165.155C316.313 167.926 313.871 170.171 311.101 170.171Z" fill="#407BFF"/>
<path d="M313.177 160.149L312.093 158.96L309.364 161.469L307.075 158.96L305.782 160.149L308.071 162.658L305.343 165.166L306.428 166.355L309.156 163.847L311.445 166.355L312.738 165.166L310.449 162.658L313.177 160.149Z" fill="white"/>
<path d="M199.48 213.268C202.377 216.417 205.144 219.68 207.876 222.973C210.612 226.262 213.28 229.61 215.915 232.988C216.03 233.135 215.984 233.075 216.011 233.119C216.024 233.138 216.026 233.17 216.042 233.185C216.071 233.218 216.087 233.272 216.122 233.302C216.174 233.385 216.25 233.445 216.325 233.524C216.486 233.668 216.705 233.778 216.949 233.823C217.07 233.841 217.198 233.859 217.328 233.845C217.398 233.854 217.46 233.833 217.533 233.831C217.572 233.832 217.6 233.811 217.637 233.807C217.695 233.782 217.659 233.833 217.815 233.74L220.645 232.206C224.442 230.195 228.269 228.23 232.228 226.466L235.537 230.564C232.348 233.498 229.027 237.169 225.675 239.858L223.144 241.848C223.079 241.907 222.807 242.085 222.636 242.199C222.441 242.325 222.25 242.46 222.043 242.571C221.633 242.797 221.219 243.023 220.78 243.197C219.912 243.572 218.985 243.811 218.046 243.955C216.163 244.236 214.205 244.046 212.378 243.392C211.468 243.064 210.585 242.627 209.782 242.068C209.37 241.802 208.994 241.489 208.619 241.173C208.43 241.016 208.262 240.841 208.085 240.671L207.636 240.215C204.646 237.148 201.688 234.052 198.798 230.897C195.905 227.744 193.046 224.564 190.316 221.268L199.48 213.268Z" fill="#B55B52"/>
<path d="M230.689 228.962L233.323 220.501L240.257 223.957C240.257 223.957 239.246 230.13 234.199 231.2L230.689 228.962Z" fill="#B55B52"/>
<path d="M236.105 218.154L242.358 219.876L240.258 223.956L233.324 220.5L236.105 218.154Z" fill="#B55B52"/>
<path d="M163.006 215.573C162.252 219.168 161.329 222.722 160.363 226.265C159.402 229.81 158.352 233.334 157.26 236.847L156.854 238.164L156.65 238.823C156.607 238.967 156.579 239.003 156.54 239.099C156.416 239.432 156.342 239.794 156.327 240.174C156.308 240.926 156.486 241.763 156.979 242.491C157.02 242.609 157.409 243.018 157.713 243.348L158.651 244.367L160.501 246.438C161.719 247.836 162.933 249.238 164.086 250.713L160.147 255.271C158.521 254.346 156.957 253.348 155.397 252.346L153.079 250.817L151.933 250.036C151.544 249.765 151.231 249.583 150.607 249.067C148.458 247.244 146.852 244.656 146.263 241.783C145.963 240.349 145.889 238.854 146.056 237.373C146.1 237.019 146.167 236.605 146.221 236.301L146.341 235.622L146.581 234.264C147.215 230.64 147.89 227.026 148.653 223.433C149.412 219.839 150.216 216.256 151.185 212.713L163.006 215.573Z" fill="#B55B52"/>
<path d="M160.216 250.391L164.879 248.007L166.935 255.931C166.935 255.931 163.194 257.365 160.298 255.523L160.216 250.391Z" fill="#B55B52"/>
<path d="M171.321 245.472L171.532 252.741L166.326 256.146L164.521 248.16L171.321 245.472Z" fill="#B55B52"/>
<path d="M186.565 178.21C186.679 178.771 187.067 179.164 187.434 179.089C187.8 179.015 188.004 178.5 187.89 177.94C187.776 177.379 187.387 176.986 187.021 177.061C186.656 177.135 186.452 177.65 186.565 178.21Z" fill="#263238"/>
<path d="M187.017 179.174C187.017 179.174 188.947 182.146 190.665 183.419C189.862 184.546 188.092 184.466 188.092 184.466L187.017 179.174Z" fill="#A02724"/>
<path d="M183.882 175.516C183.801 175.516 183.718 175.487 183.654 175.427C183.518 175.301 183.509 175.089 183.636 174.952C184.896 173.588 186.424 173.831 186.491 173.841C186.674 173.873 186.796 174.046 186.766 174.229C186.734 174.411 186.559 174.533 186.38 174.503C186.329 174.496 185.134 174.32 184.129 175.407C184.063 175.48 183.972 175.516 183.882 175.516Z" fill="#263238"/>
<path d="M170.269 186.087C171.515 191.27 172.759 200.768 168.311 204.226C168.311 204.226 170.048 209.484 181.865 209.484C194.858 209.484 188.074 206.097 188.074 206.097C180.984 204.717 181.165 198.558 182.401 194.531L170.269 186.087Z" fill="#B55B52"/>
<path d="M166.926 205.188C166.152 203.747 165.299 202.099 167.063 201.583C169.003 201.015 181.468 199.961 185.129 201.028C184.004 203.029 185.909 205.489 185.909 205.489L166.926 205.188Z" fill="#263238"/>
<path d="M177.247 447.658H185.4L186.211 431.25H178.059L177.247 447.658Z" fill="#B55B52"/>
<path d="M125.512 445.398L133.769 445.835L138.787 429.67L130.529 429.233L125.512 445.398Z" fill="#B55B52"/>
<path d="M133.517 445.181L125.737 443.497C125.454 443.436 125.166 443.579 125.045 443.842L122.344 449.701C122.064 450.309 122.435 451.022 123.091 451.152C125.817 451.694 127.172 451.82 130.592 452.56C132.697 453.016 137.448 454.174 140.355 454.803C143.199 455.419 144.264 452.641 143.131 452.123C138.048 449.801 135.925 447.756 134.548 445.85C134.301 445.508 133.931 445.272 133.517 445.181Z" fill="#263238"/>
<path d="M184.968 446.838H177.231C176.941 446.838 176.691 447.039 176.627 447.322L175.227 453.619C175.083 454.272 175.578 454.89 176.247 454.879C179.038 454.832 183.071 454.668 186.579 454.668C190.681 454.668 194.224 454.892 199.034 454.892C201.943 454.892 202.75 451.951 201.533 451.685C195.99 450.472 191.464 450.342 186.674 447.389C186.154 447.069 185.579 446.838 184.968 446.838Z" fill="#263238"/>
<path d="M153.549 206.622C147.397 209.547 145.724 227.282 145.724 227.282L160.945 234.316C160.945 234.316 164.723 228.75 165.012 220C165.315 210.832 159.84 203.63 153.549 206.622Z" fill="#263238"/>
<path opacity="0.4" d="M161.806 217.559C159.058 221.825 159.318 228.425 160.269 234.003L160.942 234.318C160.942 234.318 164.724 228.746 165.014 219.997C165.031 219.45 165.029 218.907 165.01 218.378L161.806 217.559Z" fill="black"/>
<path d="M196.024 206.193C196.024 206.193 203.565 214.711 196.443 267.434C185.024 267.434 164.102 267.434 158.546 267.434C158.285 261.616 161.941 233.239 156.329 205.828C156.329 205.828 162.825 204.524 169.016 204.226C173.858 203.993 180.868 203.838 185.125 204.226C190.738 204.739 196.024 206.193 196.024 206.193Z" fill="#407BFF"/>
<path opacity="0.6" d="M196.024 206.193C196.024 206.193 203.565 214.711 196.443 267.434C185.024 267.434 164.102 267.434 158.546 267.434C158.285 261.616 161.941 233.239 156.329 205.828C156.329 205.828 162.825 204.524 169.016 204.226C173.858 203.993 180.868 203.838 185.125 204.226C190.738 204.739 196.024 206.193 196.024 206.193Z" fill="#FAFAFA"/>
<path opacity="0.2" d="M199.336 222.307L199.191 222.182L191.654 218.154C190.888 229.759 196.076 237.034 199.162 240.216C199.587 232.781 199.577 226.916 199.336 222.307Z" fill="black"/>
<path opacity="0.2" d="M186.21 431.254L185.793 439.712H177.636L178.053 431.254H186.21Z" fill="black"/>
<path opacity="0.2" d="M130.527 429.237L138.787 429.674L136.196 438.006L127.936 437.57L130.527 429.237Z" fill="black"/>
<path d="M167.645 180.819C169.465 187.611 170.185 191.679 174.378 194.503C180.682 198.751 188.532 193.876 188.777 186.677C188.999 180.198 185.984 170.179 178.695 168.809C171.514 167.461 165.825 174.027 167.645 180.819Z" fill="#B55B52"/>
<path d="M182.999 267.434C182.999 267.434 174.958 321.58 170.545 341.866C165.71 364.079 139.79 437.574 139.79 437.574L127.107 434.828C127.107 434.828 143.361 374.935 147.418 343.879C149.001 331.76 150.912 312.225 153.33 295.937C155.671 280.163 158.546 267.434 158.546 267.434H182.999Z" fill="#263238"/>
<path d="M142.827 433.339C142.881 433.35 140.463 437.926 140.463 437.926L126.193 434.836L127.397 430.547L142.827 433.339Z" fill="#407BFF"/>
<path opacity="0.6" d="M142.827 433.339C142.881 433.35 140.463 437.926 140.463 437.926L126.193 434.836L127.397 430.547L142.827 433.339Z" fill="white"/>
<path opacity="0.6" d="M177.918 286.725C168.62 288.548 169.604 323.219 170.723 341.053C173.405 328.448 177.329 304.191 180.011 286.976C179.394 286.667 178.699 286.571 177.918 286.725Z" fill="black"/>
<path d="M196.443 267.434C196.443 267.434 200.225 320.408 199.454 342.015C198.653 364.488 187.997 438.075 187.997 438.075H175.995C175.995 438.075 175.554 365.801 175.021 343.73C174.439 319.668 171.533 267.434 171.533 267.434H196.443Z" fill="#263238"/>
<path d="M190.306 433.294C190.361 433.294 189.629 438.277 189.629 438.277H175.028L174.634 433.83L190.306 433.294Z" fill="#407BFF"/>
<path opacity="0.6" d="M190.306 433.294C190.361 433.294 189.629 438.277 189.629 438.277H175.028L174.634 433.83L190.306 433.294Z" fill="white"/>
<path d="M191.601 216.117C191.601 230.333 199.166 236.187 199.166 236.187L211.463 224.166C211.463 224.166 207.282 216.962 201.533 210.349C194.428 202.179 191.601 206.975 191.601 216.117Z" fill="#263238"/>
<path opacity="0.2" d="M188.347 189.25C188.035 190.121 187.215 191.598 185.158 192.187C182.156 193.046 182.117 195.589 182.117 195.589L182.154 195.637C185.018 194.691 187.402 192.325 188.347 189.25Z" fill="black"/>
<path d="M185.159 167.319C187.692 164.124 183.795 163.972 183.795 163.972C184.807 160.158 180.249 162.211 180.249 162.211C177.512 158.439 175.969 163.03 175.969 163.03C173.13 159.834 172.608 165.057 172.608 165.057C169.761 161.003 168.312 166.85 168.312 166.85C165.69 162.641 164.085 168.125 164.085 168.125C158.673 166.187 161.246 171.812 161.246 171.812C156.625 171.942 160.332 175.516 160.332 175.516C154.797 175.53 159.677 178.699 159.677 178.699C155.282 181.583 160.799 182.359 160.799 182.359C157.213 187.967 163.371 185.887 163.371 185.887C160.876 191.438 166.409 188.992 166.409 188.992C166.049 194.349 169.143 192.891 170.63 191.899C170.917 192.978 171.453 194.12 172.447 194.25C174.377 194.502 174.753 190.859 174.753 190.859C174.753 190.859 176.544 192.252 178.045 191.498C179.547 190.743 178.981 188.832 178.981 188.832C178.981 188.832 180.13 189.69 181.183 188.871C181.828 188.371 181.831 184.774 181.009 183.51L183.951 182.358C183.951 182.358 186.134 182.051 185.159 179.173C184.185 176.296 185.011 174.023 185.011 174.023C188.331 172.467 185.607 170.596 185.607 170.596C189.446 168.109 185.159 167.319 185.159 167.319Z" fill="#263238"/>
<path d="M179.2 181.104C179.662 182.887 180.834 184.419 182.059 185.331C183.903 186.703 185.28 185.353 185.149 183.267C185.031 181.389 183.929 178.412 181.895 177.855C179.893 177.306 178.673 179.065 179.2 181.104Z" fill="#B55B52"/>
</g>
<defs>
<clipPath id="clip0_764_2458">
<rect width="565" height="565" fill="white" transform="translate(0.180054 -12.1599)"/>
</clipPath>
</defs>
</svg>
