<svg width="500" height="500" viewBox="0 0 500 500" fill="none" xmlns="http://www.w3.org/2000/svg">
<path d="M430.293 421.581C483.535 367.142 460.486 282.674 357.336 263.403C254.186 244.132 231.943 128.698 138.136 152.776C44.329 176.853 8.71404 354.133 104.981 421.581H430.293Z" fill="#FFF8F8"/>
<path d="M423.733 407.618H430.293V243.346H423.733V407.618Z" fill="#3B364D"/>
<path d="M182.753 421.581C182.753 423.962 161.88 425.892 136.131 425.892C110.383 425.892 89.509 423.962 89.509 421.581C89.509 419.2 110.382 417.27 136.131 417.27C161.88 417.27 182.753 419.2 182.753 421.581Z" fill="#FFE5E2"/>
<path d="M309.02 435.113C359.065 435.113 399.635 431.118 399.635 426.191C399.635 421.264 359.065 417.269 309.02 417.269C258.975 417.269 218.405 421.264 218.405 426.191C218.405 431.118 258.975 435.113 309.02 435.113Z" fill="#FFE5E2"/>
<path d="M187.896 254.266H61.504C55.562 254.266 50.746 249.449 50.746 243.508V133.907C50.746 127.965 55.563 123.149 61.504 123.149H187.896C193.838 123.149 198.654 127.966 198.654 133.907V243.508C198.655 249.449 193.838 254.266 187.896 254.266Z" fill="#AAB2C8"/>
<path d="M188.626 133.988H60.774V243.427H188.626V133.988Z" fill="#E0E7FF"/>
<path d="M124.7 133.988V243.427" stroke="#AAB2C8" stroke-miterlimit="10"/>
<path d="M188.626 188.707H60.774" stroke="#AAB2C8" stroke-miterlimit="10"/>
<path opacity="0.54" d="M116.707 133.988L73.83 243.346H92.793L136.132 133.988H116.707Z" fill="white"/>
<path opacity="0.54" d="M149.862 133.988L106.985 243.346H125.948L169.287 133.988H149.862Z" fill="white"/>
<path d="M454.717 237.474H328.821V249.217H454.717V237.474Z" fill="#773C4D"/>
<path d="M454.716 237.474H374.417V249.217H454.716V237.474Z" fill="#965363"/>
<path d="M420.297 237.474H356.074C353.838 237.474 352.025 235.661 352.025 233.425V222.663C352.025 220.427 353.838 218.614 356.074 218.614H420.297V237.474Z" fill="#61648A"/>
<path d="M421.39 222.602H356.979V233.488H421.39V222.602Z" fill="#EDF1FC"/>
<path d="M402.801 222.602H356.823V233.488H402.801V222.602Z" fill="#E0E7FF"/>
<path d="M409.753 218.615H345.53C343.294 218.615 341.481 216.802 341.481 214.566V203.804C341.481 201.568 343.294 199.755 345.53 199.755H409.753V218.615Z" fill="#FFC55A"/>
<path d="M410.69 203.742H346.279V214.628H410.69V203.742Z" fill="#EDF1FC"/>
<path d="M392.577 203.742H346.279V214.628H392.577V203.742Z" fill="#E0E7FF"/>
<path d="M424.314 199.755H360.091C357.855 199.755 356.042 197.942 356.042 195.706V184.944C356.042 182.708 357.855 180.895 360.091 180.895H424.314V199.755Z" fill="#AF2F48"/>
<path d="M425.467 184.883H361.056V195.769H425.467V184.883Z" fill="#EDF1FC"/>
<path d="M404.256 184.883H360.841V195.769H404.256V184.883Z" fill="#E0E7FF"/>
<path d="M352.792 334.597C352.879 348.629 351.555 361.998 347.929 374.034C347.929 374.043 347.92 374.051 347.92 374.06C337.758 407.754 309.503 430.971 243.432 428.819C153.76 425.899 137.471 342.52 129.95 264.561C123.841 201.305 142.857 154.748 199.943 139.426C213.216 135.861 228.555 133.988 246.108 133.988C326.803 133.988 352.453 281.251 352.792 334.597Z" fill="#FFC55A"/>
<path d="M347.92 374.06C337.758 407.754 309.503 430.971 243.432 428.819C153.76 425.899 137.471 342.52 129.95 264.561C123.841 201.305 142.857 154.748 199.943 139.426C150.919 169.311 138.744 223.756 158.78 306.577C178.808 389.399 229.357 413.488 262.092 413.54C294.818 413.602 335.902 402.917 347.92 374.06Z" fill="#F49947"/>
<path d="M223.381 212.168C159.419 223.555 187.323 314.92 201.462 340.503C215.6 366.087 221.627 396.383 254.296 397.73C286.966 399.076 328.708 384.265 332.747 373.492C336.786 362.72 318.303 306.572 318.303 306.572C318.303 306.572 315.747 249.748 298.042 234.825C280.339 219.903 244.628 208.386 223.381 212.168Z" fill="#F49947"/>
<path d="M309.022 366.256C297.338 388.096 257.514 395.772 243.868 392.316C235.835 390.278 226.198 382.984 217.435 372.514C211.839 362.656 207.356 351.167 201.463 340.502C199.247 336.494 196.699 330.881 194.22 324.216C189.346 300.755 189.49 272.895 198.652 263.401C211.092 250.528 223.166 241.46 224.033 233.486C224.704 227.228 217.605 218.974 219.032 213.107C220.425 212.75 221.877 212.436 223.38 212.173C240.88 209.057 268.189 216.317 287.175 227.313C289.001 234.233 289.162 243.506 293.459 246.512C300.065 251.114 310.28 279.976 312.87 293.528C315.45 307.08 309.022 366.256 309.022 366.256Z" fill="#F27C49"/>
<path d="M395.898 400.901C396.414 409.121 420.195 398.63 423.342 394.084C423.342 394.084 410.32 431.503 403.542 431.503C396.764 431.503 378.286 412.013 378.286 412.013L380.504 400.901H395.898Z" fill="#AF2F48"/>
<path d="M403.542 431.503C396.165 434.668 414.599 388.139 423.342 389.188C432.085 390.237 413.068 427.417 403.542 431.503Z" fill="#D35473"/>
<path d="M398.722 347.026C398.243 371.08 391.994 400.904 391.994 400.904H376.594C376.594 400.904 367.129 380.606 362.693 360.177C361.577 355.052 360.784 349.919 360.532 345.099C360.532 345.099 336.669 352.315 313.583 347.984C303.979 346.189 293.102 343.138 283.672 340.184C270.442 336.053 260.062 332.114 260.062 332.114L260.846 331.12L277.684 309.82L323.004 303.005L328.312 302.203L360.533 312.191C389.109 315.276 399.21 322.971 398.722 347.026Z" fill="#31344C"/>
<path opacity="0.54" d="M362.693 360.177C361.577 355.052 360.784 349.919 360.532 345.099C360.532 345.099 336.669 352.315 313.583 347.984C303.979 346.189 293.102 343.138 283.672 340.184L260.847 331.12L258.851 330.327L255.069 314.57L303.814 297.54L323.005 303.005L355.243 312.177C347.451 326.174 363.131 342.729 366.573 347.706C370.016 352.682 379.803 344.647 386.008 347.706C392.212 350.764 367.626 349.3 362.693 360.177Z" fill="#232433"/>
<path d="M371.787 414.37C378.868 429.754 389.36 437.098 394.955 434.65L392.507 409.121L382.37 404.749L371.787 414.37Z" fill="#AF2F48"/>
<path d="M394.955 434.651C382.494 436.728 384.813 412.615 385.513 400.902C386.212 389.189 396.005 390.238 397.054 399.331C398.103 408.422 403.349 433.252 394.955 434.651Z" fill="#D35473"/>
<path d="M382.372 404.747L371.792 414.369C328.494 401.862 303.002 362.417 303.002 362.417C278.948 390.315 252.009 396.573 230.333 362.417C230.333 362.417 231.701 347.235 249.28 335.53C252.688 333.247 256.714 331.103 261.455 329.229C280.254 321.786 305.258 320.339 320.667 320.252C329.966 320.2 338.673 324.732 344.041 332.323C353.105 345.135 361.742 361.023 368.523 374.653C376.855 391.413 382.372 404.747 382.372 404.747Z" fill="#383952"/>
<path opacity="0.54" d="M382.372 404.747L371.792 414.369C328.494 401.862 303.002 362.417 303.002 362.417C278.948 390.315 252.009 396.573 230.333 362.417C230.333 362.417 231.701 347.235 249.28 335.53L267.425 332.175C246.247 373.765 297.162 364.064 306.348 356.482C315.534 348.891 324.206 341.291 328.311 340.873C332.416 340.455 310.767 356.447 326.036 374.654C341.296 392.869 376.515 404.216 368.523 374.654C376.855 391.413 382.372 404.747 382.372 404.747Z" fill="#232433"/>
<path d="M276.847 197.61H276.202C276.202 197.61 269.787 222.161 258.85 231.312C256.88 232.959 254.763 234.11 252.505 234.528C237.75 237.256 224.895 220.444 222.463 208.914C221.104 202.465 223.5 198.508 225.88 196.285C227.745 194.507 229.61 193.819 229.61 193.819C229.61 193.819 230.577 175.63 236.913 175.961C243.005 176.275 241.985 178.689 241.907 178.872C242.299 178.349 255.555 160.727 264.671 162.644C273.927 164.596 267.434 178.227 267.434 178.227C267.434 178.227 279.121 166.383 283.017 173.198C286.913 180.013 275.391 188.293 275.391 188.293C275.391 188.293 285.292 188.136 286.268 191.709C287.236 195.274 285.78 198.69 276.847 197.61Z" fill="#6D3744"/>
<path d="M258.85 231.312C256.88 232.959 254.763 234.11 252.505 234.528C237.75 237.256 224.895 220.444 222.463 208.914C221.104 202.465 223.5 198.508 225.88 196.285C228.076 199.135 231.013 204.852 237.715 197.61H240.827L258.85 231.312Z" fill="#542633"/>
<path d="M298.043 304.346L230.665 366.809C227.388 363.863 224.538 360.787 222.072 357.588H222.063C217.487 351.679 214.193 345.369 211.857 338.789C210.105 333.848 208.885 328.758 208.083 323.572C206.235 311.737 206.488 299.361 207.238 287.072C208.99 258.294 217.688 239.076 252.235 238.588C252.235 238.588 268.071 234.161 279.793 240.479C289.014 245.438 295.019 282.112 297.163 297.538C297.746 301.723 298.043 304.346 298.043 304.346Z" fill="#61648A"/>
<path opacity="0.36" d="M283.692 275.899C248.222 289.201 233.537 263.403 233.537 263.403L222.068 304.629L246.61 312.192L289.338 307.743L283.692 275.899Z" fill="#383952"/>
<path opacity="0.36" d="M298.043 304.346L230.665 366.809C227.388 363.863 224.538 360.787 222.072 357.588C233.794 356.699 258.973 328.67 252.358 327.206C246.44 325.907 226.073 339.765 211.858 338.789C210.106 333.848 208.886 328.758 208.084 323.572L229.733 304.625L297.163 297.539C297.746 301.723 298.043 304.346 298.043 304.346Z" fill="#383952"/>
<path d="M260.064 296.049C267.978 290.7 277.189 295.158 280.458 297.535C283.726 299.912 280.458 306.152 280.458 306.152C280.458 306.152 276.892 304.072 275.704 303.775C274.516 303.478 268.786 307.935 257.388 306.152C245.989 304.368 260.064 296.049 260.064 296.049Z" fill="#F4B8AB"/>
<path d="M213.824 258.725C229.344 247.151 238.135 257.321 237.384 277.324C236.633 297.326 236.633 297.326 236.633 297.326C236.633 297.326 256.426 291.01 261.268 291.01C261.268 291.01 261.69 304.696 261.268 309.609C261.268 309.609 237.335 332.769 221.543 334.524C205.752 336.279 208.91 305.047 207.506 290.659C206.103 276.271 208.432 262.746 213.824 258.725Z" fill="#61648A"/>
<path d="M277.721 307.078L289.494 259.391C290.694 254.529 295.056 251.113 300.064 251.113H367.619C372.054 251.113 375.301 255.293 374.203 259.591L360.57 309.455L277.721 307.078Z" fill="#C3C9F4"/>
<path d="M282.451 307.078L294.224 259.391C295.424 254.529 299.786 251.113 304.794 251.113H372.349C376.784 251.113 380.031 255.293 378.933 259.591L365.3 309.455L282.451 307.078Z" fill="#E0E7FF"/>
<path d="M345.783 311.832H259.838C258.525 311.832 257.461 310.768 257.461 309.455C257.461 308.142 258.525 307.078 259.838 307.078H345.783C347.096 307.078 348.16 308.142 348.16 309.455C348.159 310.767 347.095 311.832 345.783 311.832Z" fill="#C3C9F4"/>
<path d="M366.043 311.832H280.099C278.786 311.832 277.722 310.768 277.722 309.455C277.722 308.142 278.786 307.078 280.099 307.078H366.043C367.356 307.078 368.42 308.142 368.42 309.455C368.42 310.767 367.356 311.832 366.043 311.832Z" fill="#E0E7FF"/>
<path d="M337.305 280.148C336.172 286.348 333.362 291.028 331.028 290.602C328.694 290.176 327.721 284.804 328.854 278.604C329.987 272.404 332.797 267.724 335.131 268.15C337.465 268.577 338.438 273.949 337.305 280.148Z" fill="#C3C9F4"/>
<path d="M280.702 201.598C282.199 223.554 278.706 233.284 266.231 234.532V239.647C266.231 243.437 263.159 246.508 259.37 246.508C255.581 246.508 252.509 243.436 252.509 239.647V234.532C252.509 234.532 242.529 230.29 240.533 224.053C238.537 217.816 240.533 223.055 240.533 223.055L239.646 197.606H281.027L280.702 201.598Z" fill="#F4B8AB"/>
<path d="M241.161 213.492C238.023 207.771 234.333 210.17 233.594 213.492C232.856 216.814 239.5 224.901 241.161 222.057C242.822 219.213 241.161 213.492 241.161 213.492Z" fill="#F4B8AB"/>
<path d="M234.281 194.79C240.961 202.907 259.9 207.128 266.754 205.18C273.608 203.232 263.868 196.901 263.868 196.901C263.868 196.901 276.578 205.667 282.398 202.745C288.218 199.823 272.526 192.68 272.526 192.68L234.281 194.79Z" fill="#6D3744"/>
<path d="M256.974 212.168C256.974 213.342 256.764 214.293 256.504 214.293C256.244 214.293 256.034 213.341 256.034 212.168C256.034 210.994 256.245 210.042 256.504 210.042C256.763 210.043 256.974 210.994 256.974 212.168Z" stroke="#191918" stroke-width="2" stroke-miterlimit="10"/>
<path d="M270.46 212.168C270.46 213.342 270.249 214.293 269.99 214.293C269.73 214.293 269.519 213.341 269.519 212.168C269.519 210.994 269.73 210.042 269.99 210.042C270.249 210.043 270.46 210.994 270.46 212.168Z" stroke="#191918" stroke-width="2" stroke-miterlimit="10"/>
<path d="M265.026 224.027C258.567 224.175 253.558 219.524 253.558 219.524" stroke="#E56A85" stroke-miterlimit="10" stroke-linecap="round"/>
<path opacity="0.53" d="M266.231 234.532C260.705 235.029 254.296 234.826 254.296 234.826L266.231 239.646V234.532Z" fill="#DD6595"/>
<path opacity="0.53" d="M240.827 215.026C238.03 212.09 236.656 213.296 236.843 216.347C237.03 219.398 240.708 221.585 241.899 220.71C243.09 219.836 240.827 215.026 240.827 215.026Z" fill="#DD6595"/>
<path d="M131.426 367.927C119.018 363.369 112.181 365.142 108.382 360.077C108.382 360.077 118.511 358.304 124.082 360.077L131.426 367.927Z" fill="#7C9E1E"/>
<path d="M124.082 360.077C109.004 352.198 104.532 343.255 100.699 337.08C96.866 330.905 94.737 325.794 93.246 325.368C91.755 324.942 99.421 326.433 106.661 333.673C113.901 340.913 116.882 341.978 122.631 347.727C128.38 353.476 133.491 361.937 134.13 367.928H131.425L124.082 360.077Z" fill="#B7AC15"/>
<path d="M128.381 357.947C120.235 345.444 127.546 338.263 117.734 324.09C106.235 307.481 109.855 290.872 111.559 280.438C111.559 280.438 109.009 292.581 119.014 304.396C129.02 316.211 138.815 320.788 139.666 338.409C140.518 356.031 137.111 367.927 137.111 367.927H131.425L128.381 357.947Z" fill="#7C9E1E"/>
<path d="M135.796 367.927C133.066 356.216 138.39 336.228 138.816 316.425C139.242 296.622 128.169 281.929 144.565 263.404C144.565 263.404 141.158 266.811 145.843 280.439C150.528 294.067 160.962 308.334 155.851 326.646C150.74 344.959 139.728 359.957 139.804 367.927H135.796Z" fill="#B7AC15"/>
<path d="M139.803 367.927C138.099 353.873 152.442 331.969 164.58 327.072C164.58 327.072 165.857 337.837 157.979 346.615C150.1 355.393 144.243 367.928 144.243 367.928H139.803V367.927Z" fill="#A88F14"/>
<path d="M144.243 367.927C144.777 358.586 152.869 355.311 161.173 352.903C161.173 352.903 151.165 363.001 149.462 367.927H144.243Z" fill="#426313"/>
<path opacity="0.36" d="M148.14 368.993C149.555 361.918 152.745 359.693 152.161 359.289C151.577 358.885 147.947 364.839 146.123 367.927C146.123 367.927 143.693 359.857 147.332 352.903C150.971 345.949 154.407 340.693 154.407 340.693C154.407 340.693 142.683 354.236 142.076 361.082C142.076 361.082 140.863 354.202 142.885 345.325C144.906 336.448 150.162 327.958 148.242 317.447C146.322 306.935 144.244 295.718 144.244 295.718C144.244 295.718 145.117 306.406 146.124 315.666C147.131 324.926 144.387 329.778 141.716 339.683C139.045 349.588 140.54 363.682 139.388 363.609C138.236 363.536 136.417 366.164 136.417 366.164C136.417 366.164 135.197 351.003 133.381 338.066C131.565 325.129 131.768 323.386 123.884 315.666C116 307.946 114.99 303.227 114.99 303.227C114.99 303.227 120.314 313.808 124.727 320.681C129.14 327.554 130.555 330.586 130.555 342.715C130.555 354.844 131.161 361.661 132.172 363.609C133.183 365.558 124.693 352.083 118.022 347.5C111.351 342.917 105.893 336.651 105.287 335.64C104.681 334.629 111.756 347.364 117.011 350.801C122.267 354.238 131.427 365.962 131.427 365.962L116.405 361.919L133.382 368.994L148.14 368.993Z" fill="#426313"/>
<path d="M161.531 371.7L153.539 417.734C153.443 418.295 153.251 418.808 152.978 419.273C152.168 420.668 150.662 421.581 148.962 421.581H120.21C117.934 421.581 115.986 419.93 115.625 417.685L108.131 371.651C107.674 368.821 109.854 366.256 112.724 366.256H156.946C159.832 366.257 162.021 368.854 161.531 371.7Z" fill="#3A3852"/>
<path opacity="0.54" d="M152.979 419.273C152.169 420.668 150.663 421.581 148.963 421.581H120.211C117.935 421.581 115.987 419.93 115.626 417.685L108.132 371.651C107.675 368.821 109.855 366.256 112.725 366.256H127.931C113.83 388.156 137.348 413.606 152.979 419.273Z" fill="#232433"/>
<path d="M201.463 340.501C207.356 351.166 211.839 362.655 217.435 372.513C211.304 365.202 205.607 356.337 201.174 346.615C198.338 340.399 195.96 332.587 194.22 324.215C196.699 330.881 199.247 336.493 201.463 340.501Z" fill="#FFC55A"/>
</svg>
