<svg width="500" height="373" viewBox="0 0 500 373" fill="none" xmlns="http://www.w3.org/2000/svg">
<path d="M500 327.45H0V327.7H500V327.45Z" fill="#EBEBEB"/>
<path d="M449.9 343.54H416.78V343.79H449.9V343.54Z" fill="#EBEBEB"/>
<path d="M331.22 346.26H322.53V346.51H331.22V346.26Z" fill="#EBEBEB"/>
<path d="M415.78 334.26H396.59V334.51H415.78V334.26Z" fill="#EBEBEB"/>
<path d="M95.65 335.94H52.46V336.19H95.65V335.94Z" fill="#EBEBEB"/>
<path d="M110.89 335.94H104.56V336.19H110.89V335.94Z" fill="#EBEBEB"/>
<path d="M225.15 340.16H131.47V340.41H225.15V340.16Z" fill="#EBEBEB"/>
<path d="M237 282.85H43.91C42.3973 282.847 40.9475 282.245 39.8789 281.174C38.8102 280.103 38.21 278.653 38.21 277.14V5.71C38.21 4.19734 38.8102 2.7465 39.8789 1.67595C40.9475 0.605406 42.3973 0.00264913 43.91 0L237 0C238.514 0 239.967 0.601588 241.038 1.67242C242.108 2.74325 242.71 4.19561 242.71 5.71V277.14C242.71 277.89 242.562 278.632 242.275 279.325C241.988 280.018 241.568 280.647 241.038 281.178C240.507 281.708 239.878 282.128 239.185 282.415C238.492 282.702 237.75 282.85 237 282.85ZM43.91 0.25C42.4636 0.252649 41.0774 0.829067 40.0557 1.85273C39.0339 2.87639 38.46 4.26365 38.46 5.71V277.14C38.46 278.586 39.0339 279.974 40.0557 280.997C41.0774 282.021 42.4636 282.597 43.91 282.6H237C238.447 282.597 239.835 282.021 240.858 280.998C241.881 279.975 242.457 278.587 242.46 277.14V5.71C242.457 4.26273 241.881 2.87549 240.858 1.85212C239.835 0.828741 238.447 0.252643 237 0.25H43.91Z" fill="#EBEBEB"/>
<path d="M453.31 282.85H260.21C258.696 282.847 257.246 282.245 256.175 281.175C255.105 280.104 254.503 278.654 254.5 277.14V5.71C254.503 4.19643 255.105 2.7456 256.175 1.67534C257.246 0.60508 258.696 0.0026438 260.21 0L453.31 0C454.821 0.00529221 456.268 0.609215 457.335 1.67947C458.401 2.74973 459 4.19907 459 5.71V277.14C459 278.651 458.401 280.1 457.335 281.171C456.268 282.241 454.821 282.845 453.31 282.85ZM260.21 0.25C258.763 0.252643 257.375 0.828741 256.352 1.85212C255.329 2.87549 254.753 4.26273 254.75 5.71V277.14C254.753 278.587 255.329 279.975 256.352 280.998C257.375 282.021 258.763 282.597 260.21 282.6H453.31C454.757 282.597 456.145 282.021 457.168 280.998C458.191 279.975 458.767 278.587 458.77 277.14V5.71C458.767 4.26273 458.191 2.87549 457.168 1.85212C456.145 0.828741 454.757 0.252643 453.31 0.25H260.21Z" fill="#EBEBEB"/>
<path d="M222.69 128.78H66.15V327H222.69V128.78Z" fill="#F0F0F0"/>
<path d="M217.15 136H71.68V178.39H217.15V136Z" fill="#E0E0E0"/>
<path d="M79.94 142.87H71.68V178.39H79.94V142.87Z" fill="#EBEBEB"/>
<path d="M119.9 142.87H111.64V178.39H119.9V142.87Z" fill="#EBEBEB"/>
<path d="M165.256 141.977L157.116 143.38L163.15 178.384L171.29 176.981L165.256 141.977Z" fill="#EBEBEB"/>
<path d="M90.18 147.55H81.92V178.39H90.18V147.55Z" fill="#EBEBEB"/>
<path d="M109.17 147.55H100.91V178.39H109.17V147.55Z" fill="#EBEBEB"/>
<path d="M157.11 147.55H148.85V178.39H157.11V147.55Z" fill="#EBEBEB"/>
<path d="M130.75 146.486L122.687 148.278L129.378 178.383L137.441 176.591L130.75 146.486Z" fill="#EBEBEB"/>
<path d="M97.33 141.1H93.2V178.39H97.33V141.1Z" fill="#EBEBEB"/>
<path d="M146.48 141.1H142.35V178.39H146.48V141.1Z" fill="#EBEBEB"/>
<path d="M71.68 227.49L217.15 227.49V185.1L71.68 185.1V227.49Z" fill="#E0E0E0"/>
<path d="M208.89 227.49H217.15V191.97H208.89V227.49Z" fill="#EBEBEB"/>
<path d="M168.93 227.49H177.19V191.97H168.93V227.49Z" fill="#EBEBEB"/>
<path d="M117.534 226.083L125.674 227.486L131.707 192.482L123.567 191.079L117.534 226.083Z" fill="#EBEBEB"/>
<path d="M198.64 227.49H206.9V196.65H198.64V227.49Z" fill="#EBEBEB"/>
<path d="M179.66 227.49H187.92V196.65H179.66V227.49Z" fill="#EBEBEB"/>
<path d="M131.71 227.49H139.97V196.65H131.71V227.49Z" fill="#EBEBEB"/>
<path d="M151.398 225.692L159.461 227.484L166.152 197.379L158.089 195.587L151.398 225.692Z" fill="#EBEBEB"/>
<path d="M191.5 227.49H195.63V190.2H191.5V227.49Z" fill="#EBEBEB"/>
<path d="M142.35 227.49H146.48V190.2H142.35V227.49Z" fill="#EBEBEB"/>
<path d="M79.94 191.96H71.68V227.48H79.94V191.96Z" fill="#EBEBEB"/>
<path d="M90.18 196.64H81.92V227.48H90.18V196.64Z" fill="#EBEBEB"/>
<path d="M109.17 196.64H100.91V227.48H109.17V196.64Z" fill="#EBEBEB"/>
<path d="M97.33 190.2H93.2V227.49H97.33V190.2Z" fill="#EBEBEB"/>
<path d="M217.15 234.2H71.68V276.59H217.15V234.2Z" fill="#E0E0E0"/>
<path d="M163.43 241.06H155.17V276.58H163.43V241.06Z" fill="#EBEBEB"/>
<path d="M208.804 240.174L200.664 241.577L206.698 276.581L214.838 275.178L208.804 240.174Z" fill="#EBEBEB"/>
<path d="M133.71 245.74H125.45V276.58H133.71V245.74Z" fill="#EBEBEB"/>
<path d="M152.71 245.74H144.45V276.58H152.71V245.74Z" fill="#EBEBEB"/>
<path d="M200.65 245.74H192.39V276.58H200.65V245.74Z" fill="#EBEBEB"/>
<path d="M174.295 244.671L166.232 246.463L172.923 276.569L180.986 274.777L174.295 244.671Z" fill="#EBEBEB"/>
<path d="M140.86 239.3H136.73V276.59H140.86V239.3Z" fill="#EBEBEB"/>
<path d="M190.01 239.3H185.88V276.59H190.01V239.3Z" fill="#EBEBEB"/>
<path d="M113.726 240.173L105.586 241.576L111.619 276.58L119.759 275.177L113.726 240.173Z" fill="#EBEBEB"/>
<path d="M105.58 245.74H97.32V276.58H105.58V245.74Z" fill="#EBEBEB"/>
<path d="M79.2198 244.677L71.1565 246.469L77.8473 276.574L85.9105 274.782L79.2198 244.677Z" fill="#EBEBEB"/>
<path d="M94.94 239.3H90.81V276.59H94.94V239.3Z" fill="#EBEBEB"/>
<path d="M305.28 208.68H393.5C398.094 208.68 402.499 210.505 405.747 213.753C408.995 217.001 410.82 221.406 410.82 226V294.88H288V226C288.003 221.414 289.823 217.016 293.062 213.77C296.301 210.523 300.694 208.693 305.28 208.68Z" fill="#E6E6E6"/>
<path d="M261.88 259.74H277.66C279.013 259.735 280.353 259.996 281.605 260.509C282.856 261.021 283.995 261.776 284.955 262.728C285.915 263.681 286.678 264.814 287.201 266.061C287.723 267.309 287.995 268.647 288 270V327H251.58V270C251.591 267.275 252.68 264.666 254.611 262.743C256.541 260.82 259.155 259.74 261.88 259.74Z" fill="#E0E0E0"/>
<path d="M261.88 259.74H262.21C264.935 259.74 267.549 260.82 269.479 262.743C271.41 264.666 272.499 267.275 272.51 270V327H251.58V270C251.591 267.275 252.68 264.666 254.611 262.743C256.541 260.82 259.155 259.74 261.88 259.74Z" fill="#EBEBEB"/>
<path d="M397.97 300.83H276.91V327H397.97V300.83Z" fill="#E6E6E6"/>
<path d="M393.49 276.9H276.74C270.958 276.9 266.27 281.588 266.27 287.37V293.88C266.27 299.662 270.958 304.35 276.74 304.35H393.49C399.272 304.35 403.96 299.662 403.96 293.88V287.37C403.96 281.588 399.272 276.9 393.49 276.9Z" fill="#F5F5F5"/>
<path d="M393.29 276.9H378.82C373.038 276.9 368.35 281.588 368.35 287.37V293.88C368.35 299.662 373.038 304.35 378.82 304.35H393.29C399.072 304.35 403.76 299.662 403.76 293.88V287.37C403.76 281.588 399.072 276.9 393.29 276.9Z" fill="#E0E0E0"/>
<path d="M394.86 259.74H410.65C413.374 259.74 415.987 260.82 417.916 262.743C419.844 264.667 420.932 267.276 420.94 270V327H384.57V270C384.578 267.276 385.666 264.667 387.594 262.743C389.523 260.82 392.136 259.74 394.86 259.74Z" fill="#E0E0E0"/>
<path d="M394.86 259.74H395.2C397.924 259.74 400.537 260.82 402.466 262.743C404.394 264.667 405.482 267.276 405.49 270V327H384.57V270C384.578 267.276 385.666 264.667 387.594 262.743C389.523 260.82 392.136 259.74 394.86 259.74Z" fill="#F0F0F0"/>
<path d="M150.261 104.694C163.1 102.61 171.818 90.5127 169.734 77.6744C167.65 64.8362 155.553 56.1181 142.715 58.202C129.876 60.286 121.158 72.3828 123.242 85.2211C125.326 98.0593 137.423 106.777 150.261 104.694Z" fill="#E0E0E0"/>
<path d="M149.697 101.219C160.617 99.4467 168.032 89.1579 166.259 78.2386C164.487 67.3192 154.198 59.9042 143.279 61.6767C132.359 63.4491 124.944 73.7379 126.717 84.6572C128.489 95.5765 138.778 102.992 149.697 101.219Z" fill="#F0F0F0"/>
<path d="M145.53 95.1801V81.1801L136.26 86.4301" fill="#F0F0F0"/>
<path d="M145.53 95.1801V81.1801L136.26 86.4301" stroke="#E0E0E0" stroke-width="2" stroke-linecap="round" stroke-linejoin="round"/>
<path d="M428.61 51.73H277.86V185.5H428.61V51.73Z" fill="#E6E6E6"/>
<path d="M424.64 55.4H281.63V181.91H424.64V55.4Z" fill="#F0F0F0"/>
<path d="M315.19 55.4L281.63 181.63V122.31L299.35 55.4H315.19Z" fill="white"/>
<path d="M327.08 55.4L293.22 181.91H287.82L321.68 55.4H327.08Z" fill="white"/>
<path d="M424.64 135.22V155.44L417.79 181.91H412.39L424.64 135.22Z" fill="white"/>
<path d="M331.51 53.12H329.1V184.73H331.51V53.12Z" fill="#E6E6E6"/>
<path d="M378.2 53.12H375.79V184.73H378.2V53.12Z" fill="#E6E6E6"/>
<path d="M250 372.61C357.082 372.61 443.89 367.542 443.89 361.29C443.89 355.038 357.082 349.97 250 349.97C142.917 349.97 56.11 355.038 56.11 361.29C56.11 367.542 142.917 372.61 250 372.61Z" fill="#F5F5F5"/>
<path d="M401.9 336.28C401.9 336.28 406.65 325.91 401.22 315.7C395.79 305.49 394.22 303.07 397.68 300.98C401.14 298.89 402.73 309.15 402.73 309.15C404.441 304.511 404.616 299.446 403.23 294.7C400.83 287.31 399.32 275.27 402.6 273.98C405.88 272.69 403.23 288.98 406.09 294.55C407.542 290.648 408.48 286.574 408.88 282.43C409.27 276.49 408.66 267.01 411.25 264.58C413.84 262.15 415.51 263.83 412.96 276.93C411.427 284.758 410.581 292.705 410.43 300.68C410.43 300.68 416.06 283.5 419.85 283C423.64 282.5 423.63 288.06 420.39 292.89C417.15 297.72 410.9 306.36 409.88 310.81C409.88 310.81 416.07 297.88 421.63 301.81C427.19 305.74 416.79 313.59 412.15 316.41C407.51 319.23 404.29 337 404.29 337L401.9 336.28Z" fill="#407BFF"/>
<path opacity="0.2" d="M401.9 336.28C401.9 336.28 406.65 325.91 401.22 315.7C395.79 305.49 394.22 303.07 397.68 300.98C401.14 298.89 402.73 309.15 402.73 309.15C404.441 304.511 404.616 299.446 403.23 294.7C400.83 287.31 399.32 275.27 402.6 273.98C405.88 272.69 403.23 288.98 406.09 294.55C407.542 290.648 408.48 286.574 408.88 282.43C409.27 276.49 408.66 267.01 411.25 264.58C413.84 262.15 415.51 263.83 412.96 276.93C411.427 284.758 410.581 292.705 410.43 300.68C410.43 300.68 416.06 283.5 419.85 283C423.64 282.5 423.63 288.06 420.39 292.89C417.15 297.72 410.9 306.36 409.88 310.81C409.88 310.81 416.07 297.88 421.63 301.81C427.19 305.74 416.79 313.59 412.15 316.41C407.51 319.23 404.29 337 404.29 337L401.9 336.28Z" fill="black"/>
<path d="M405.65 340.53C405.65 340.53 401.02 330.09 406.57 319.96C412.12 309.83 413.72 307.44 410.29 305.3C406.86 303.16 405.14 313.39 405.14 313.39C403.482 308.73 403.366 303.661 404.81 298.93C407.3 291.58 408.96 279.56 405.69 278.22C402.42 276.88 404.88 293.22 401.96 298.75C400.555 294.825 399.664 290.734 399.31 286.58C398.99 280.64 399.72 271.17 397.15 268.7C394.58 266.23 392.9 267.88 395.3 281.02C396.737 288.87 397.487 296.83 397.54 304.81C397.54 304.81 392.11 287.54 388.34 286.98C384.57 286.42 384.5 291.98 387.68 296.87C390.86 301.76 397 310.48 398 315C398 315 392 302 386.36 305.85C380.72 309.7 391.06 317.7 395.66 320.59C400.26 323.48 403.28 341.23 403.28 341.23L405.65 340.53Z" fill="#407BFF"/>
<path d="M384.31 333.09H422.52L419.43 360.43H387.4L384.31 333.09Z" fill="#263238"/>
<path d="M242.6 356V359.59C242.6 359.696 242.579 359.801 242.538 359.898C242.497 359.996 242.438 360.085 242.362 360.159C242.287 360.234 242.197 360.292 242.099 360.332C242.001 360.372 241.896 360.391 241.79 360.39H140.37C139.505 360.392 138.654 360.181 137.889 359.777C137.125 359.373 136.472 358.787 135.987 358.071C135.502 357.355 135.201 356.531 135.109 355.671C135.017 354.811 135.137 353.942 135.46 353.14L167.6 273.54L219.54 273.89L217.77 284.22L206.31 351.1C206.223 351.608 206.247 352.128 206.382 352.625C206.516 353.122 206.758 353.584 207.089 353.978C207.42 354.372 207.834 354.689 208.3 354.907C208.767 355.125 209.275 355.239 209.79 355.24H241.79C241.997 355.237 242.197 355.315 242.348 355.457C242.499 355.598 242.59 355.793 242.6 356Z" fill="#263238"/>
<path opacity="0.5" d="M242.6 356V359.59C242.6 359.696 242.579 359.801 242.538 359.898C242.497 359.996 242.438 360.085 242.362 360.159C242.287 360.234 242.197 360.292 242.099 360.332C242.001 360.372 241.896 360.391 241.79 360.39H140.37C139.505 360.392 138.654 360.181 137.889 359.777C137.125 359.373 136.472 358.787 135.987 358.071C135.502 357.355 135.201 356.531 135.109 355.671C135.017 354.811 135.137 353.942 135.46 353.14L155.39 303.79L167.6 273.54L219.54 273.89L217.77 284.22L212.77 313.29L206.3 351.06C206.213 351.568 206.237 352.088 206.372 352.585C206.506 353.082 206.748 353.544 207.079 353.938C207.41 354.332 207.824 354.649 208.29 354.867C208.757 355.085 209.265 355.199 209.78 355.2H241.78C241.887 355.197 241.993 355.216 242.092 355.255C242.192 355.294 242.282 355.353 242.359 355.427C242.435 355.502 242.496 355.591 242.537 355.689C242.579 355.788 242.6 355.893 242.6 356Z" fill="white"/>
<path opacity="0.2" d="M209.79 355.24H143.79C143.408 355.24 143.033 355.145 142.697 354.965C142.36 354.785 142.074 354.524 141.862 354.207C141.65 353.889 141.52 353.525 141.483 353.145C141.446 352.765 141.504 352.382 141.65 352.03L169.83 284.26H217.76L206.31 351.1C206.223 351.607 206.247 352.128 206.382 352.625C206.516 353.122 206.758 353.584 207.089 353.978C207.42 354.372 207.834 354.689 208.3 354.907C208.767 355.125 209.275 355.239 209.79 355.24Z" fill="black"/>
<path opacity="0.1" d="M219.54 273.93L217.77 284.26L212.78 313.33L155.39 303.83L167.6 273.58L219.54 273.93Z" fill="black"/>
<path d="M320.53 125.55H80.08C78.4489 125.55 76.8846 126.198 75.7313 127.351C74.5779 128.505 73.93 130.069 73.93 131.7V294.48C73.9287 295.289 74.0868 296.089 74.3953 296.837C74.7037 297.584 75.1565 298.263 75.7278 298.835C76.299 299.407 76.9774 299.861 77.7242 300.171C78.471 300.481 79.2715 300.64 80.08 300.64H320.53C322.164 300.64 323.731 299.991 324.886 298.836C326.041 297.681 326.69 296.114 326.69 294.48V131.7C326.69 130.892 326.531 130.091 326.221 129.344C325.911 128.597 325.457 127.919 324.885 127.348C324.313 126.777 323.634 126.324 322.887 126.015C322.139 125.707 321.338 125.549 320.53 125.55Z" fill="#263238"/>
<path opacity="0.6" d="M320.53 125.55H80.08C78.4489 125.55 76.8846 126.198 75.7313 127.351C74.5779 128.505 73.93 130.069 73.93 131.7V294.48C73.9287 295.289 74.0868 296.089 74.3953 296.837C74.7037 297.584 75.1565 298.263 75.7278 298.835C76.299 299.407 76.9774 299.861 77.7242 300.171C78.471 300.481 79.2715 300.64 80.08 300.64H320.53C322.164 300.64 323.731 299.991 324.886 298.836C326.041 297.681 326.69 296.114 326.69 294.48V131.7C326.69 130.892 326.531 130.091 326.221 129.344C325.911 128.597 325.457 127.919 324.885 127.348C324.313 126.777 323.634 126.324 322.887 126.015C322.139 125.707 321.338 125.549 320.53 125.55Z" fill="white"/>
<path opacity="0.2" d="M85.18 300.63H80.08C78.4506 300.63 76.8879 299.983 75.7348 298.832C74.5818 297.681 73.9326 296.119 73.93 294.49V131.7C73.93 130.069 74.5779 128.505 75.7313 127.351C76.8846 126.198 78.4489 125.55 80.08 125.55H85.18C84.3698 125.546 83.5669 125.702 82.8173 126.009C82.0677 126.317 81.3861 126.769 80.8119 127.341C80.2376 127.912 79.7819 128.591 79.471 129.34C79.16 130.088 79 130.89 79 131.7V294.49C79 295.3 79.1601 296.101 79.4712 296.849C79.7822 297.596 80.2381 298.275 80.8125 298.846C81.3869 299.417 82.0685 299.868 82.818 300.174C83.5676 300.48 84.3703 300.635 85.18 300.63Z" fill="black"/>
<path d="M321.15 130.83H84.58V287.8H321.15V130.83Z" fill="#407BFF"/>
<path opacity="0.4" d="M199.6 190.59C210.944 190.59 220.14 181.394 220.14 170.05C220.14 158.706 210.944 149.51 199.6 149.51C188.256 149.51 179.06 158.706 179.06 170.05C179.06 181.394 188.256 190.59 199.6 190.59Z" fill="white"/>
<path d="M194.7 166.93V165C194.7 164.103 195.056 163.242 195.689 162.606C196.323 161.971 197.183 161.613 198.08 161.61H201.08C201.528 161.606 201.972 161.691 202.386 161.859C202.801 162.028 203.179 162.277 203.496 162.592C203.814 162.907 204.067 163.283 204.239 163.696C204.411 164.109 204.5 164.552 204.5 165V166.92H206.69V165C206.69 163.522 206.103 162.104 205.059 161.058C204.015 160.012 202.598 159.423 201.12 159.42H198.12C196.642 159.423 195.225 160.012 194.181 161.058C193.136 162.104 192.55 163.522 192.55 165V166.92L194.7 166.93Z" fill="white"/>
<path d="M189.75 169.46V179.55C189.75 179.697 189.779 179.843 189.835 179.979C189.892 180.114 189.974 180.238 190.078 180.342C190.182 180.446 190.306 180.528 190.441 180.585C190.577 180.641 190.723 180.67 190.87 180.67H208.33C208.627 180.67 208.912 180.552 209.122 180.342C209.332 180.132 209.45 179.847 209.45 179.55V169.46C209.45 169.163 209.332 168.878 209.122 168.668C208.912 168.458 208.627 168.34 208.33 168.34H190.87C190.723 168.34 190.577 168.369 190.441 168.425C190.306 168.482 190.182 168.564 190.078 168.668C189.974 168.772 189.892 168.895 189.835 169.031C189.779 169.167 189.75 169.313 189.75 169.46ZM200.23 175.17V177.17H199V175.17C198.821 175.068 198.671 174.924 198.563 174.749C198.454 174.574 198.392 174.375 198.38 174.17C198.38 173.838 198.512 173.521 198.746 173.286C198.981 173.052 199.298 172.92 199.63 172.92C199.962 172.92 200.279 173.052 200.514 173.286C200.748 173.521 200.88 173.838 200.88 174.17C200.865 174.378 200.798 174.579 200.684 174.754C200.571 174.929 200.414 175.072 200.23 175.17Z" fill="white"/>
<path d="M149.49 207.6H130.09C128.936 207.6 128 208.536 128 209.69V229.09C128 230.244 128.936 231.18 130.09 231.18H149.49C150.644 231.18 151.58 230.244 151.58 229.09V209.69C151.58 208.536 150.644 207.6 149.49 207.6Z" fill="white"/>
<path d="M179.4 207.57H160C158.846 207.57 157.91 208.506 157.91 209.66V229.06C157.91 230.214 158.846 231.15 160 231.15H179.4C180.554 231.15 181.49 230.214 181.49 229.06V209.66C181.49 208.506 180.554 207.57 179.4 207.57Z" fill="white"/>
<path d="M209.3 207.53H189.9C188.746 207.53 187.81 208.466 187.81 209.62V229.02C187.81 230.174 188.746 231.11 189.9 231.11H209.3C210.454 231.11 211.39 230.174 211.39 229.02V209.62C211.39 208.466 210.454 207.53 209.3 207.53Z" fill="white"/>
<path d="M239.2 207.5H219.8C218.646 207.5 217.71 208.436 217.71 209.59V228.99C217.71 230.144 218.646 231.08 219.8 231.08H239.2C240.354 231.08 241.29 230.144 241.29 228.99V209.59C241.29 208.436 240.354 207.5 239.2 207.5Z" fill="white"/>
<path d="M269.1 207.47H249.7C248.546 207.47 247.61 208.406 247.61 209.56V228.96C247.61 230.114 248.546 231.05 249.7 231.05H269.1C270.254 231.05 271.19 230.114 271.19 228.96V209.56C271.19 208.406 270.254 207.47 269.1 207.47Z" fill="white"/>
<path d="M254.21 219.72C254.21 215.57 256.43 213.2 259.41 213.2C262.39 213.2 264.6 215.57 264.6 219.72C264.6 223.87 262.38 226.23 259.41 226.23C256.44 226.23 254.21 223.86 254.21 219.72ZM262.78 219.72C262.78 216.46 261.39 214.82 259.41 214.82C257.43 214.82 256.03 216.46 256.03 219.72C256.03 222.98 257.41 224.61 259.41 224.61C261.41 224.61 262.78 223 262.78 219.72Z" fill="#263238"/>
<path d="M144.53 219.55C144.53 223.9 142.07 226.23 138.53 226.23C137.425 226.27 136.33 226.01 135.36 225.48L136.06 224.06C136.801 224.494 137.652 224.702 138.51 224.66C141.09 224.66 142.73 223.05 142.73 219.86V219.41C142.304 219.97 141.746 220.416 141.106 220.708C140.465 220.999 139.762 221.127 139.06 221.08C136.53 221.08 134.71 219.57 134.71 217.23C134.71 214.89 136.71 213.23 139.2 213.23C142.6 213.2 144.53 215.5 144.53 219.55ZM142.29 217.13C142.29 215.82 141.29 214.68 139.29 214.68C138.94 214.638 138.585 214.67 138.248 214.775C137.911 214.879 137.601 215.054 137.336 215.287C137.072 215.52 136.86 215.807 136.714 216.128C136.568 216.449 136.492 216.797 136.49 217.15C136.49 218.64 137.6 219.61 139.39 219.61C139.745 219.644 140.102 219.607 140.442 219.499C140.782 219.392 141.096 219.218 141.367 218.986C141.638 218.755 141.859 218.471 142.018 218.152C142.176 217.833 142.269 217.486 142.29 217.13Z" fill="#263238"/>
<path d="M164.5 219.72C164.5 215.57 166.72 213.21 169.7 213.21C172.68 213.21 174.89 215.57 174.89 219.72C174.89 223.87 172.67 226.23 169.7 226.23C166.73 226.23 164.5 223.86 164.5 219.72ZM173.07 219.72C173.07 216.46 171.69 214.82 169.7 214.82C167.71 214.82 166.32 216.46 166.32 219.72C166.32 222.98 167.7 224.61 169.7 224.61C171.7 224.61 173.07 223 173.07 219.72Z" fill="#263238"/>
<path d="M204.2 224.5V226.08H195.05V224.85L200.23 219.85C201.58 218.54 201.83 217.74 201.83 216.94C201.83 215.63 200.91 214.83 199.12 214.83C198.508 214.797 197.897 214.906 197.333 215.147C196.77 215.388 196.269 215.755 195.87 216.22L194.63 215.14C195.215 214.493 195.937 213.984 196.743 213.65C197.549 213.316 198.419 213.166 199.29 213.21C201.94 213.21 203.65 214.58 203.65 216.76C203.65 218 203.29 219.11 201.56 220.76L197.67 224.51L204.2 224.5Z" fill="#263238"/>
<path d="M231 213.35V226.08H229.2V214.93H226.32V213.35H231Z" fill="#263238"/>
<g opacity="0.6">
<path d="M177.23 201.84V202.28H173.76V197.38H177.12V197.83H174.28V199.57H176.81V200H174.28V201.82L177.23 201.84Z" fill="white"/>
<path d="M181.73 200.15V202.28H181.23V200.2C181.26 200.045 181.252 199.885 181.208 199.733C181.164 199.581 181.085 199.442 180.976 199.327C180.868 199.211 180.734 199.124 180.585 199.07C180.436 199.017 180.277 199 180.12 199.02C179.944 199.007 179.767 199.034 179.602 199.097C179.437 199.159 179.288 199.258 179.165 199.384C179.042 199.511 178.949 199.663 178.891 199.83C178.833 199.997 178.812 200.174 178.83 200.35V202.28H178.34V198.6H178.81V199.28C178.96 199.048 179.168 198.861 179.414 198.736C179.66 198.611 179.935 198.554 180.21 198.57C180.419 198.554 180.629 198.584 180.825 198.659C181.021 198.733 181.198 198.85 181.343 199.001C181.488 199.152 181.598 199.334 181.665 199.532C181.732 199.731 181.754 199.942 181.73 200.15Z" fill="white"/>
<path d="M185 202.06C184.78 202.238 184.503 202.331 184.22 202.32C184.076 202.332 183.931 202.313 183.795 202.263C183.66 202.214 183.536 202.136 183.433 202.034C183.331 201.932 183.251 201.809 183.201 201.674C183.15 201.539 183.129 201.394 183.14 201.25V199H182.48V198.58H183.14V197.78H183.64V198.58H184.76V199H183.64V201.2C183.628 201.287 183.635 201.376 183.662 201.461C183.689 201.545 183.734 201.622 183.794 201.686C183.855 201.75 183.929 201.8 184.011 201.832C184.094 201.864 184.182 201.877 184.27 201.87C184.471 201.878 184.667 201.81 184.82 201.68L185 202.06Z" fill="white"/>
<path d="M189 200.6H185.92C185.943 200.962 186.109 201.3 186.381 201.54C186.652 201.78 187.008 201.902 187.37 201.88C187.582 201.887 187.793 201.847 187.988 201.765C188.183 201.682 188.358 201.557 188.5 201.4L188.78 201.72C188.507 201.976 188.167 202.151 187.799 202.223C187.431 202.296 187.05 202.263 186.7 202.13C186.35 201.997 186.044 201.767 185.818 201.469C185.591 201.17 185.454 200.813 185.42 200.44C185.408 200.197 185.445 199.954 185.53 199.726C185.616 199.499 185.747 199.291 185.915 199.115C186.084 198.94 186.287 198.801 186.511 198.708C186.736 198.614 186.977 198.567 187.22 198.57C187.463 198.565 187.705 198.611 187.929 198.705C188.154 198.798 188.357 198.937 188.525 199.113C188.693 199.288 188.823 199.497 188.907 199.726C188.99 199.954 189.025 200.197 189.01 200.44C189.01 200.44 189 200.54 189 200.6ZM185.92 200.23H188.53C188.501 199.904 188.352 199.6 188.11 199.378C187.868 199.157 187.553 199.034 187.225 199.034C186.897 199.034 186.582 199.157 186.34 199.378C186.098 199.6 185.949 199.904 185.92 200.23Z" fill="white"/>
<path d="M191.87 198.57V199.06H191.75C191.574 199.051 191.399 199.081 191.236 199.148C191.073 199.214 190.927 199.317 190.808 199.447C190.69 199.577 190.601 199.732 190.55 199.9C190.498 200.068 190.485 200.246 190.51 200.42V202.29H190V198.6H190.48V199.32C190.608 199.069 190.81 198.862 191.058 198.728C191.306 198.595 191.59 198.539 191.87 198.57Z" fill="white"/>
<path d="M197.75 198.6L195.91 202.73C195.6 203.45 195.21 203.73 194.68 203.73C194.516 203.736 194.353 203.709 194.2 203.651C194.048 203.592 193.908 203.504 193.79 203.39L194 203C194.087 203.09 194.191 203.162 194.306 203.21C194.421 203.258 194.545 203.282 194.67 203.28C195 203.28 195.22 203.13 195.43 202.67L195.59 202.31L194 198.6H194.52L195.9 201.73L197.29 198.6H197.75Z" fill="white"/>
<path d="M198 200.44C198 200.068 198.11 199.705 198.317 199.396C198.523 199.086 198.817 198.845 199.161 198.703C199.504 198.561 199.882 198.524 200.247 198.596C200.611 198.669 200.946 198.848 201.209 199.111C201.472 199.374 201.651 199.709 201.724 200.073C201.796 200.438 201.759 200.816 201.617 201.159C201.475 201.503 201.234 201.797 200.925 202.003C200.615 202.21 200.252 202.32 199.88 202.32C199.631 202.328 199.383 202.285 199.151 202.194C198.919 202.102 198.708 201.964 198.532 201.788C198.356 201.612 198.218 201.401 198.126 201.169C198.035 200.937 197.992 200.689 198 200.44ZM201.24 200.44C201.226 200.172 201.134 199.914 200.975 199.698C200.816 199.482 200.597 199.317 200.345 199.224C200.093 199.132 199.82 199.115 199.559 199.176C199.298 199.238 199.06 199.374 198.876 199.569C198.692 199.764 198.569 200.009 198.522 200.274C198.476 200.538 198.508 200.81 198.615 201.056C198.722 201.302 198.899 201.511 199.124 201.658C199.349 201.804 199.612 201.882 199.88 201.88C200.064 201.879 200.246 201.841 200.414 201.766C200.582 201.692 200.733 201.584 200.858 201.449C200.983 201.314 201.079 201.155 201.139 200.981C201.2 200.808 201.224 200.623 201.21 200.44H201.24Z" fill="white"/>
<path d="M206.05 198.6V202.28H205.58V201.61C205.443 201.837 205.247 202.024 205.013 202.149C204.779 202.274 204.515 202.333 204.25 202.32C204.039 202.341 203.825 202.314 203.626 202.242C203.426 202.169 203.245 202.053 203.097 201.901C202.948 201.75 202.835 201.567 202.766 201.366C202.698 201.165 202.675 200.951 202.7 200.74V198.6H203.19V200.69C203.16 200.845 203.168 201.005 203.212 201.157C203.256 201.309 203.335 201.448 203.444 201.563C203.552 201.679 203.686 201.766 203.835 201.82C203.984 201.873 204.143 201.89 204.3 201.87C204.474 201.879 204.648 201.849 204.81 201.783C204.972 201.718 205.117 201.618 205.236 201.49C205.355 201.363 205.445 201.211 205.499 201.045C205.553 200.879 205.571 200.703 205.55 200.53V198.6H206.05Z" fill="white"/>
<path d="M209.3 198.57V199.06H209.18C209.004 199.051 208.829 199.081 208.666 199.148C208.503 199.214 208.357 199.317 208.238 199.447C208.12 199.577 208.031 199.732 207.98 199.9C207.928 200.068 207.915 200.246 207.94 200.42V202.29H207.44V198.6H207.92V199.32C208.048 199.07 208.248 198.865 208.494 198.731C208.74 198.598 209.021 198.541 209.3 198.57Z" fill="white"/>
<path d="M211.75 199.83C211.734 199.317 211.872 198.81 212.145 198.376C212.419 197.941 212.816 197.598 213.286 197.39C213.756 197.183 214.277 197.12 214.783 197.21C215.288 197.301 215.755 197.54 216.124 197.897C216.493 198.255 216.747 198.714 216.853 199.217C216.959 199.719 216.913 200.242 216.72 200.718C216.528 201.194 216.197 201.602 215.771 201.889C215.346 202.176 214.844 202.33 214.33 202.33C213.994 202.345 213.658 202.291 213.344 202.172C213.029 202.053 212.743 201.87 212.501 201.636C212.259 201.402 212.068 201.121 211.939 200.811C211.81 200.5 211.746 200.166 211.75 199.83ZM216.38 199.83C216.392 199.418 216.28 199.011 216.058 198.664C215.836 198.316 215.515 198.043 215.136 197.879C214.758 197.716 214.339 197.67 213.933 197.748C213.528 197.825 213.156 198.023 212.864 198.314C212.573 198.606 212.375 198.978 212.298 199.384C212.22 199.789 212.266 200.208 212.429 200.586C212.592 200.965 212.866 201.286 213.214 201.508C213.561 201.73 213.968 201.842 214.38 201.83C214.91 201.83 215.419 201.619 215.794 201.244C216.169 200.869 216.38 200.36 216.38 199.83Z" fill="white"/>
<path d="M218.94 197.83H217.22V197.38H221.22V197.83H219.49V202.28H218.97L218.94 197.83Z" fill="white"/>
<path d="M225.85 199.06C225.85 200.11 225.09 200.74 223.85 200.74H222.54V202.28H222V197.38H223.83C225.09 197.38 225.85 198 225.85 199.06ZM225.33 199.06C225.33 198.28 224.81 197.83 223.83 197.83H222.53V200.28H223.83C224.81 200.28 225.33 199.83 225.33 199.06Z" fill="white"/>
</g>
<g opacity="0.6">
<path d="M180.15 243.94L180.35 243.54C180.795 243.937 181.374 244.151 181.97 244.14C182.88 244.14 183.28 243.75 183.28 243.27C183.28 241.93 180.28 242.75 180.28 240.94C180.28 240.22 180.84 239.59 182.08 239.59C182.619 239.581 183.149 239.734 183.6 240.03L183.43 240.44C183.027 240.18 182.56 240.037 182.08 240.03C181.19 240.03 180.79 240.43 180.79 240.92C180.79 242.27 183.79 241.46 183.79 243.24C183.79 243.96 183.22 244.58 181.97 244.58C181.304 244.605 180.654 244.376 180.15 243.94Z" fill="white"/>
<path d="M188 242.85H184.92C184.943 243.212 185.109 243.55 185.381 243.79C185.652 244.029 186.008 244.152 186.37 244.13C186.582 244.137 186.793 244.097 186.988 244.014C187.183 243.932 187.358 243.807 187.5 243.65L187.78 243.97C187.507 244.226 187.168 244.4 186.801 244.473C186.434 244.546 186.054 244.515 185.704 244.383C185.354 244.25 185.048 244.022 184.821 243.725C184.594 243.428 184.455 243.072 184.42 242.7C184.406 242.457 184.443 242.213 184.527 241.985C184.612 241.756 184.743 241.548 184.912 241.372C185.081 241.197 185.284 241.058 185.509 240.965C185.734 240.871 185.976 240.825 186.22 240.83C186.463 240.825 186.704 240.871 186.928 240.965C187.152 241.058 187.354 241.197 187.522 241.373C187.689 241.549 187.818 241.758 187.9 241.986C187.983 242.215 188.017 242.458 188 242.7C188 242.7 188 242.79 188 242.85ZM184.92 242.48H187.53C187.501 242.154 187.352 241.85 187.11 241.628C186.868 241.407 186.553 241.284 186.225 241.284C185.897 241.284 185.582 241.407 185.34 241.628C185.098 241.85 184.949 242.154 184.92 242.48Z" fill="white"/>
<path d="M192.43 242.4V244.54H191.94V242.45C191.97 242.295 191.962 242.135 191.918 241.983C191.874 241.831 191.795 241.692 191.686 241.577C191.578 241.461 191.444 241.374 191.295 241.32C191.146 241.267 190.987 241.25 190.83 241.27C190.653 241.257 190.475 241.283 190.31 241.347C190.144 241.41 189.994 241.51 189.871 241.638C189.748 241.765 189.654 241.919 189.597 242.087C189.54 242.255 189.52 242.433 189.54 242.61V244.54H189V240.85H189.48V241.53C189.629 241.299 189.838 241.112 190.084 240.989C190.331 240.866 190.605 240.811 190.88 240.83C191.091 240.805 191.305 240.829 191.506 240.9C191.707 240.97 191.888 241.086 192.038 241.237C192.187 241.388 192.3 241.572 192.368 241.773C192.436 241.975 192.457 242.189 192.43 242.4Z" fill="white"/>
<path d="M197.16 239.34V244.54H196.68V243.81C196.533 244.052 196.324 244.251 196.074 244.384C195.824 244.518 195.543 244.582 195.26 244.57C194.764 244.57 194.288 244.373 193.938 244.022C193.587 243.672 193.39 243.196 193.39 242.7C193.39 242.204 193.587 241.728 193.938 241.378C194.288 241.027 194.764 240.83 195.26 240.83C195.535 240.821 195.808 240.882 196.053 241.008C196.298 241.134 196.507 241.321 196.66 241.55V239.34H197.16ZM196.67 242.7C196.658 242.432 196.568 242.173 196.411 241.956C196.253 241.739 196.035 241.572 195.784 241.478C195.533 241.383 195.26 241.365 194.998 241.424C194.736 241.483 194.498 241.618 194.312 241.812C194.126 242.006 194.002 242.25 193.954 242.514C193.905 242.778 193.936 243.05 194.041 243.297C194.146 243.544 194.322 243.755 194.545 243.903C194.769 244.051 195.032 244.13 195.3 244.13C195.486 244.133 195.67 244.098 195.842 244.026C196.014 243.955 196.169 243.848 196.297 243.714C196.426 243.58 196.525 243.42 196.589 243.246C196.654 243.071 196.681 242.886 196.67 242.7Z" fill="white"/>
<path d="M203.16 242.25V244.54H202.68V244C202.543 244.206 202.352 244.372 202.129 244.479C201.905 244.587 201.657 244.632 201.41 244.61C200.58 244.61 200.07 244.18 200.07 243.54C200.07 242.9 200.43 242.54 201.49 242.54H202.66V242.31C202.66 241.68 202.3 241.31 201.66 241.31C201.212 241.305 200.777 241.457 200.43 241.74L200.21 241.37C200.636 241.04 201.162 240.867 201.7 240.88C201.889 240.858 202.081 240.877 202.262 240.937C202.443 240.997 202.609 241.095 202.748 241.226C202.887 241.356 202.996 241.515 203.067 241.692C203.138 241.869 203.17 242.06 203.16 242.25ZM202.66 243.43V242.83H201.5C200.79 242.83 200.56 243.11 200.56 243.49C200.56 243.87 200.9 244.18 201.49 244.18C201.739 244.193 201.986 244.128 202.196 243.993C202.406 243.859 202.568 243.662 202.66 243.43Z" fill="white"/>
<path d="M207.93 240.85V244.09C207.969 244.341 207.949 244.597 207.87 244.838C207.792 245.079 207.657 245.298 207.478 245.478C207.299 245.657 207.079 245.792 206.838 245.87C206.597 245.949 206.341 245.969 206.09 245.93C205.466 245.956 204.855 245.753 204.37 245.36L204.63 244.99C205.035 245.323 205.546 245.5 206.07 245.49C207.01 245.49 207.43 245.06 207.43 244.15V243.68C207.273 243.912 207.059 244.1 206.809 244.226C206.559 244.352 206.28 244.412 206 244.4C205.754 244.418 205.508 244.386 205.275 244.304C205.043 244.223 204.829 244.095 204.649 243.927C204.468 243.76 204.324 243.557 204.226 243.331C204.127 243.105 204.076 242.861 204.076 242.615C204.076 242.369 204.127 242.125 204.226 241.899C204.324 241.673 204.468 241.47 204.649 241.303C204.829 241.135 205.043 241.007 205.275 240.925C205.508 240.844 205.754 240.812 206 240.83C206.284 240.816 206.567 240.876 206.821 241.004C207.075 241.132 207.292 241.324 207.45 241.56V240.85H207.93ZM207.45 242.61C207.46 242.331 207.386 242.056 207.239 241.819C207.091 241.582 206.876 241.395 206.621 241.281C206.367 241.168 206.084 241.133 205.809 241.181C205.534 241.229 205.28 241.359 205.079 241.552C204.878 241.746 204.74 241.995 204.682 242.268C204.624 242.541 204.648 242.825 204.753 243.084C204.857 243.342 205.036 243.564 205.267 243.72C205.498 243.876 205.771 243.96 206.05 243.96C206.233 243.971 206.415 243.944 206.587 243.881C206.759 243.818 206.915 243.72 207.047 243.593C207.178 243.466 207.282 243.313 207.352 243.144C207.421 242.974 207.455 242.793 207.45 242.61Z" fill="white"/>
<path d="M212.1 242.25V244.54H211.63V244C211.492 244.206 211.301 244.371 211.078 244.478C210.855 244.585 210.607 244.631 210.36 244.61C209.52 244.61 209.01 244.18 209.01 243.54C209.01 242.9 209.38 242.54 210.44 242.54H211.6V242.31C211.6 241.68 211.25 241.31 210.6 241.31C210.156 241.306 209.724 241.458 209.38 241.74L209.15 241.37C209.579 241.04 210.109 240.867 210.65 240.88C210.839 240.858 211.03 240.877 211.211 240.937C211.392 240.997 211.557 241.095 211.695 241.226C211.834 241.357 211.941 241.516 212.011 241.693C212.081 241.87 212.112 242.06 212.1 242.25ZM211.6 243.43V242.83H210.45C209.73 242.83 209.5 243.11 209.5 243.49C209.5 243.87 209.85 244.18 210.44 244.18C210.688 244.194 210.934 244.129 211.143 243.994C211.351 243.86 211.511 243.662 211.6 243.43Z" fill="white"/>
<path d="M213.34 239.69C213.343 239.596 213.382 239.507 213.449 239.442C213.516 239.376 213.606 239.34 213.7 239.34C213.747 239.337 213.794 239.344 213.838 239.36C213.882 239.375 213.922 239.4 213.957 239.432C213.991 239.463 214.019 239.502 214.039 239.544C214.058 239.587 214.069 239.633 214.07 239.68C214.071 239.729 214.063 239.778 214.045 239.823C214.027 239.869 213.999 239.91 213.965 239.945C213.93 239.979 213.889 240.006 213.843 240.025C213.798 240.043 213.749 240.051 213.7 240.05C213.605 240.05 213.513 240.012 213.445 239.945C213.378 239.877 213.34 239.785 213.34 239.69ZM213.45 240.85H213.95V244.54H213.45V240.85Z" fill="white"/>
<path d="M218.72 242.4V244.54H218.23V242.45C218.26 242.295 218.252 242.135 218.208 241.983C218.164 241.831 218.085 241.692 217.976 241.577C217.868 241.461 217.734 241.374 217.585 241.32C217.436 241.267 217.277 241.25 217.12 241.27C216.943 241.257 216.765 241.283 216.6 241.347C216.434 241.41 216.284 241.51 216.161 241.638C216.038 241.765 215.944 241.919 215.887 242.087C215.83 242.255 215.81 242.434 215.83 242.61V244.54H215.34V240.85H215.81V241.53C215.96 241.299 216.168 241.112 216.414 240.989C216.661 240.866 216.935 240.811 217.21 240.83C217.418 240.812 217.628 240.841 217.823 240.914C218.019 240.987 218.195 241.104 218.34 241.254C218.485 241.405 218.594 241.586 218.66 241.784C218.726 241.982 218.746 242.193 218.72 242.4Z" fill="white"/>
</g>
<path opacity="0.4" d="M227.46 269.54H171.73C169.528 269.537 167.417 268.661 165.86 267.103C164.304 265.544 163.43 263.432 163.43 261.23C163.43 259.028 164.304 256.916 165.86 255.358C167.417 253.799 169.528 252.923 171.73 252.92H227.46C229.664 252.92 231.778 253.796 233.336 255.354C234.894 256.912 235.77 259.026 235.77 261.23C235.77 263.434 234.894 265.548 233.336 267.106C231.778 268.665 229.664 269.54 227.46 269.54Z" fill="white"/>
<path d="M177.86 260.8C177.887 260.221 178.081 259.663 178.418 259.192C178.756 258.721 179.222 258.358 179.761 258.146C180.301 257.935 180.89 257.884 181.457 258C182.025 258.116 182.547 258.394 182.96 258.8L182.44 259.31C182.239 259.092 181.995 258.92 181.722 258.804C181.45 258.689 181.156 258.633 180.86 258.64C180.565 258.62 180.268 258.661 179.989 258.76C179.71 258.859 179.455 259.014 179.239 259.217C179.022 259.419 178.85 259.663 178.732 259.935C178.614 260.206 178.553 260.499 178.553 260.795C178.553 261.091 178.614 261.384 178.732 261.655C178.85 261.927 179.022 262.171 179.239 262.373C179.455 262.575 179.71 262.731 179.989 262.83C180.268 262.929 180.565 262.97 180.86 262.95C181.157 262.955 181.451 262.897 181.723 262.78C181.996 262.663 182.24 262.489 182.44 262.27L182.96 262.78C182.547 263.186 182.025 263.464 181.457 263.58C180.89 263.696 180.301 263.645 179.761 263.434C179.222 263.222 178.756 262.859 178.418 262.388C178.081 261.917 177.887 261.359 177.86 260.78V260.8Z" fill="white"/>
<path d="M183.53 260.8C183.504 260.202 183.658 259.61 183.971 259.099C184.285 258.589 184.744 258.185 185.289 257.937C185.834 257.69 186.441 257.612 187.031 257.713C187.622 257.813 188.168 258.088 188.601 258.502C189.034 258.916 189.333 259.45 189.459 260.035C189.586 260.62 189.535 261.23 189.312 261.786C189.089 262.342 188.705 262.818 188.209 263.154C187.714 263.49 187.129 263.669 186.53 263.67C186.142 263.691 185.753 263.631 185.388 263.496C185.024 263.361 184.691 263.152 184.41 262.883C184.129 262.615 183.906 262.291 183.754 261.933C183.603 261.574 183.527 261.189 183.53 260.8ZM188.68 260.8C188.684 260.368 188.559 259.944 188.322 259.582C188.084 259.221 187.744 258.939 187.346 258.771C186.947 258.603 186.508 258.558 186.083 258.64C185.659 258.723 185.269 258.93 184.962 259.235C184.656 259.54 184.447 259.929 184.362 260.353C184.278 260.778 184.321 261.217 184.487 261.617C184.653 262.016 184.934 262.357 185.294 262.596C185.654 262.835 186.078 262.962 186.51 262.96C186.797 262.97 187.082 262.921 187.349 262.816C187.616 262.711 187.859 262.552 188.062 262.35C188.266 262.147 188.425 261.905 188.532 261.639C188.638 261.372 188.688 261.087 188.68 260.8Z" fill="white"/>
<path d="M195.52 258V263.59H194.86L191.5 259.42V263.59H190.7V258H191.36L194.72 262.17V258H195.52Z" fill="white"/>
<path d="M198.31 258.7H196.39V258H201V258.69H199.1V263.59H198.31V258.7Z" fill="white"/>
<path d="M201.89 258H202.69V263.59H201.89V258Z" fill="white"/>
<path d="M209.19 258V263.59H208.53L205.17 259.42V263.59H204.37V258H205L208.36 262.17V258H209.19Z" fill="white"/>
<path d="M210.82 261.19V258H211.62V261.15C211.62 262.39 212.19 262.95 213.2 262.95C214.21 262.95 214.78 262.39 214.78 261.15V258H215.56V261.18C215.56 261.809 215.31 262.411 214.866 262.856C214.421 263.3 213.819 263.55 213.19 263.55C212.561 263.55 211.959 263.3 211.514 262.856C211.07 262.411 210.82 261.809 210.82 261.18V261.19Z" fill="white"/>
<path d="M221.26 262.91V263.6H217.2V258H221.2V258.69H218V260.41H220.8V261.09H218V262.9L221.26 262.91Z" fill="white"/>
<path opacity="0.1" d="M296.49 131.57C263.78 164.34 179.77 237.27 84.58 231.88V131.57H296.49Z" fill="white"/>
<path opacity="0.1" d="M321.14 191.8V288.54H178.72C184.18 269 195.1 242.25 216.28 223.12C254.38 188.72 298.6 188.83 321.14 191.8Z" fill="white"/>
<path d="M351.23 116.14L354.55 130.8L357.87 116.14H351.23Z" fill="#407BFF"/>
<path opacity="0.7" d="M351.23 116.14L354.55 130.8L357.87 116.14H351.23Z" fill="white"/>
<path d="M391.71 74.63H317.4C312.656 74.63 308.81 78.4759 308.81 83.22V110.8C308.81 115.544 312.656 119.39 317.4 119.39H391.71C396.454 119.39 400.3 115.544 400.3 110.8V83.22C400.3 78.4759 396.454 74.63 391.71 74.63Z" fill="#407BFF"/>
<path opacity="0.7" d="M391.71 74.63H317.4C312.656 74.63 308.81 78.4759 308.81 83.22V110.8C308.81 115.544 312.656 119.39 317.4 119.39H391.71C396.454 119.39 400.3 115.544 400.3 110.8V83.22C400.3 78.4759 396.454 74.63 391.71 74.63Z" fill="white"/>
<g opacity="0.5">
<path d="M327.08 91.0501V93.0001H326.29V91.0001L324.07 87.3501H324.93L326.72 90.3501L328.52 87.3501H329.31L327.08 91.0501Z" fill="#263238"/>
<path d="M329.13 90.8701C329.114 90.4299 329.23 89.995 329.463 89.6212C329.696 89.2474 330.035 88.9518 330.437 88.7722C330.84 88.5926 331.286 88.5372 331.72 88.6132C332.154 88.6893 332.555 88.8932 332.872 89.1988C333.189 89.5045 333.408 89.8979 333.5 90.3287C333.592 90.7594 333.553 91.2078 333.388 91.6163C333.224 92.0248 332.941 92.3748 332.576 92.6213C332.211 92.8679 331.78 92.9998 331.34 93.0001C331.053 93.0137 330.766 92.9686 330.497 92.8674C330.228 92.7662 329.983 92.6111 329.776 92.4117C329.569 92.2123 329.405 91.9726 329.294 91.7075C329.183 91.4424 329.127 91.1575 329.13 90.8701ZM332.76 90.8701C332.777 90.6729 332.752 90.4745 332.688 90.2873C332.624 90.1001 332.521 89.9282 332.388 89.7826C332.254 89.637 332.091 89.5207 331.91 89.4412C331.729 89.3617 331.533 89.3206 331.335 89.3206C331.137 89.3206 330.941 89.3617 330.76 89.4412C330.579 89.5207 330.416 89.637 330.282 89.7826C330.148 89.9282 330.046 90.1001 329.982 90.2873C329.918 90.4745 329.893 90.6729 329.91 90.8701C329.893 91.0673 329.918 91.2657 329.982 91.4529C330.046 91.6401 330.148 91.8119 330.282 91.9576C330.416 92.1032 330.579 92.2195 330.76 92.299C330.941 92.3785 331.137 92.4196 331.335 92.4196C331.533 92.4196 331.729 92.3785 331.91 92.299C332.091 92.2195 332.254 92.1032 332.388 91.9576C332.521 91.8119 332.624 91.6401 332.688 91.4529C332.752 91.2657 332.777 91.0673 332.76 90.8701Z" fill="#263238"/>
<path d="M338.55 88.75V93H337.83V92.36C337.664 92.5829 337.446 92.7621 337.195 92.8822C336.944 93.0024 336.668 93.06 336.39 93.05C336.142 93.0755 335.891 93.045 335.656 92.9608C335.421 92.8765 335.208 92.7407 335.032 92.5632C334.856 92.3857 334.723 92.1711 334.641 91.9352C334.56 91.6993 334.532 91.4481 334.56 91.2V88.75H335.33V91.1C335.33 91.93 335.75 92.35 336.48 92.35C336.664 92.3604 336.847 92.3302 337.018 92.2615C337.188 92.1928 337.341 92.0874 337.466 91.9528C337.591 91.8182 337.685 91.6576 337.741 91.4825C337.797 91.3075 337.814 91.1222 337.79 90.94V88.75H338.55Z" fill="#263238"/>
<path d="M342.3 88.71V89.46H342.12C341.933 89.4479 341.746 89.4774 341.573 89.5464C341.399 89.6155 341.243 89.7223 341.115 89.8592C340.988 89.9961 340.893 90.1597 340.837 90.3379C340.78 90.5162 340.764 90.7048 340.79 90.89V93H340V88.75H340.74V89.46C340.902 89.2003 341.135 88.9919 341.411 88.8592C341.688 88.7264 341.996 88.6747 342.3 88.71Z" fill="#263238"/>
<path d="M345.11 90.1901C345.082 89.5915 345.234 88.9984 345.546 88.4869C345.858 87.9755 346.316 87.5693 346.862 87.3206C347.407 87.072 348.014 86.9922 348.605 87.0917C349.196 87.1911 349.743 87.4652 350.177 87.8787C350.61 88.2921 350.91 88.8259 351.038 89.4114C351.165 89.9968 351.115 90.607 350.892 91.1634C350.67 91.7198 350.286 92.1968 349.79 92.5331C349.294 92.8693 348.709 93.0494 348.11 93.0501C347.722 93.072 347.334 93.014 346.969 92.8799C346.605 92.7457 346.271 92.5382 345.99 92.2701C345.709 92.0021 345.486 91.6792 345.334 91.3214C345.183 90.9636 345.107 90.5785 345.11 90.1901ZM350.26 90.1901C350.266 89.7572 350.143 89.3324 349.907 88.9698C349.67 88.6072 349.331 88.3231 348.933 88.1538C348.535 87.9845 348.095 87.9376 347.67 88.0191C347.245 88.1006 346.853 88.3068 346.546 88.6115C346.238 88.9161 346.029 89.3054 345.943 89.7298C345.858 90.1541 345.9 90.5943 346.066 90.9942C346.232 91.3941 346.513 91.7357 346.873 91.9754C347.233 92.215 347.657 92.342 348.09 92.34C348.376 92.3497 348.661 92.3008 348.927 92.1964C349.193 92.092 349.435 91.9343 349.639 91.733C349.842 91.5317 350.002 91.291 350.109 91.0257C350.215 90.7603 350.267 90.476 350.26 90.1901Z" fill="#263238"/>
<path d="M353.32 88.09H351.4V87.39H356V88.09H354.08V93H353.29L353.32 88.09Z" fill="#263238"/>
<path d="M361.42 89.34C361.42 90.56 360.54 91.34 359.08 91.34H357.7V93H356.9V87.4H359.08C360.54 87.39 361.42 88.13 361.42 89.34ZM360.62 89.34C360.62 88.54 360.08 88.09 359.06 88.09H357.7V90.6H359.06C360.08 90.6 360.62 90.14 360.62 89.34Z" fill="#263238"/>
<path d="M364.37 90.1901C364.367 89.8016 364.443 89.4165 364.594 89.0588C364.746 88.701 364.969 88.3781 365.25 88.11C365.531 87.8419 365.865 87.6344 366.229 87.5002C366.594 87.3661 366.982 87.3082 367.37 87.3301C367.767 87.314 368.162 87.3834 368.53 87.5335C368.897 87.6836 369.228 87.9109 369.5 88.2001L368.98 88.7001C368.735 88.4343 368.428 88.2339 368.086 88.1169C367.744 88 367.379 87.9703 367.022 88.0305C366.666 88.0907 366.33 88.2389 366.046 88.4616C365.761 88.6844 365.537 88.9747 365.393 89.3061C365.249 89.6375 365.191 89.9997 365.222 90.3596C365.254 90.7195 365.375 91.0659 365.574 91.3673C365.773 91.6686 366.045 91.9154 366.363 92.0853C366.682 92.2552 367.039 92.3428 367.4 92.3401C367.696 92.3472 367.99 92.2912 368.262 92.1756C368.535 92.0601 368.779 91.8877 368.98 91.6701L369.5 92.1701C369.227 92.4613 368.895 92.6906 368.526 92.8424C368.156 92.9942 367.759 93.065 367.36 93.0501C366.973 93.072 366.585 93.0141 366.221 92.8799C365.857 92.7456 365.524 92.5379 365.244 92.2697C364.963 92.0015 364.741 91.6784 364.591 91.3207C364.44 90.9629 364.365 90.5781 364.37 90.1901Z" fill="#263238"/>
<path d="M369.93 90.8701C369.914 90.4299 370.03 89.995 370.263 89.6212C370.496 89.2474 370.835 88.9518 371.237 88.7722C371.64 88.5926 372.086 88.5372 372.52 88.6132C372.954 88.6893 373.355 88.8932 373.672 89.1988C373.989 89.5045 374.208 89.8979 374.3 90.3287C374.392 90.7594 374.353 91.2078 374.188 91.6163C374.024 92.0248 373.741 92.3748 373.376 92.6213C373.011 92.8679 372.581 92.9998 372.14 93.0001C371.853 93.0137 371.566 92.9686 371.297 92.8674C371.028 92.7662 370.783 92.6111 370.576 92.4117C370.369 92.2123 370.205 91.9726 370.094 91.7075C369.983 91.4424 369.927 91.1575 369.93 90.8701ZM373.56 90.8701C373.577 90.6729 373.552 90.4745 373.488 90.2873C373.424 90.1001 373.322 89.9282 373.188 89.7826C373.054 89.637 372.891 89.5207 372.71 89.4412C372.529 89.3617 372.333 89.3206 372.135 89.3206C371.937 89.3206 371.741 89.3617 371.56 89.4412C371.379 89.5207 371.216 89.637 371.082 89.7826C370.949 89.9282 370.846 90.1001 370.782 90.2873C370.718 90.4745 370.694 90.6729 370.71 90.8701C370.694 91.0673 370.718 91.2657 370.782 91.4529C370.846 91.6401 370.949 91.8119 371.082 91.9576C371.216 92.1032 371.379 92.2195 371.56 92.299C371.741 92.3785 371.937 92.4196 372.135 92.4196C372.333 92.4196 372.529 92.3785 372.71 92.299C372.891 92.2195 373.054 92.1032 373.188 91.9576C373.322 91.8119 373.424 91.6401 373.488 91.4529C373.552 91.2657 373.577 91.0673 373.56 90.8701Z" fill="#263238"/>
<path d="M379.4 87.0601V93.0001H378.67V92.3301C378.495 92.5633 378.267 92.7507 378.004 92.8761C377.741 93.0015 377.451 93.0612 377.16 93.0501C376.611 93.0127 376.097 92.7684 375.722 92.3665C375.346 91.9646 375.137 91.4351 375.137 90.8851C375.137 90.335 375.346 89.8055 375.722 89.4036C376.097 89.0017 376.611 88.7574 377.16 88.7201C377.442 88.7114 377.723 88.7684 377.98 88.8863C378.237 89.0043 378.463 89.1801 378.64 89.4001V87.0601H379.4ZM378.64 90.8701C378.626 90.5902 378.531 90.3205 378.365 90.0946C378.199 89.8686 377.971 89.6963 377.708 89.599C377.445 89.5017 377.16 89.4838 376.887 89.5475C376.614 89.6111 376.366 89.7535 376.173 89.957C375.981 90.1605 375.852 90.4161 375.803 90.692C375.755 90.968 375.788 91.2521 375.9 91.5092C376.011 91.7662 376.196 91.9848 376.431 92.1379C376.665 92.291 376.94 92.3717 377.22 92.3701C377.414 92.3733 377.607 92.3361 377.786 92.2608C377.965 92.1856 378.127 92.0738 378.26 91.9327C378.394 91.7916 378.497 91.6243 378.562 91.4413C378.627 91.2584 378.654 91.0638 378.64 90.8701Z" fill="#263238"/>
<path d="M384.67 91.13H381.24C381.288 91.4934 381.473 91.8246 381.758 92.0553C382.042 92.2861 382.405 92.3987 382.77 92.37C382.999 92.379 383.227 92.337 383.438 92.2471C383.649 92.1571 383.838 92.0215 383.99 91.85L384.42 92.35C384.107 92.6675 383.708 92.8876 383.273 92.9835C382.837 93.0795 382.383 93.0473 381.965 92.8908C381.547 92.7343 381.184 92.4601 380.919 92.1015C380.653 91.743 380.498 91.3152 380.47 90.87C380.459 90.5859 380.506 90.3026 380.609 90.0375C380.712 89.7725 380.868 89.5313 381.067 89.3289C381.267 89.1265 381.506 88.9671 381.77 88.8607C382.033 88.7542 382.316 88.7029 382.6 88.71C382.887 88.6957 383.173 88.7434 383.44 88.8499C383.707 88.9563 383.948 89.1189 384.146 89.3267C384.344 89.5345 384.496 89.7826 384.59 90.0541C384.683 90.3256 384.718 90.6141 384.69 90.9C384.687 90.977 384.681 91.0537 384.67 91.13ZM381.24 90.58H384C383.971 90.2407 383.815 89.9247 383.565 89.6945C383.314 89.4642 382.986 89.3365 382.645 89.3365C382.304 89.3365 381.976 89.4642 381.725 89.6945C381.475 89.9247 381.319 90.2407 381.29 90.58H381.24Z" fill="#263238"/>
</g>
<g opacity="0.5">
<path d="M343 101.75C343 104.9 341.23 106.58 338.64 106.58C337.842 106.608 337.051 106.422 336.35 106.04L336.85 105.04C337.388 105.355 338.007 105.508 338.63 105.48C340.5 105.48 341.69 104.31 341.69 102V101.67C341.382 102.077 340.978 102.4 340.513 102.612C340.049 102.823 339.539 102.915 339.03 102.88C337.2 102.88 335.88 101.79 335.88 100.09C335.891 99.6817 335.985 99.2799 336.156 98.9092C336.328 98.5386 336.573 98.2069 336.878 97.9344C337.182 97.662 337.539 97.4545 337.926 97.3248C338.313 97.1951 338.723 97.1458 339.13 97.18C341.6 97.15 343 98.81 343 101.75ZM341.37 100C341.37 99 340.61 98.22 339.17 98.22C338.919 98.1934 338.664 98.2199 338.424 98.2976C338.183 98.3753 337.961 98.5026 337.773 98.6712C337.584 98.8399 337.433 99.0462 337.33 99.2767C337.226 99.5073 337.171 99.7571 337.17 100.01C337.17 101.09 337.97 101.79 339.26 101.79C339.517 101.816 339.777 101.79 340.023 101.713C340.27 101.637 340.499 101.511 340.696 101.344C340.893 101.177 341.054 100.972 341.17 100.741C341.286 100.51 341.354 100.258 341.37 100Z" fill="#263238"/>
<path d="M344.26 101.87C344.26 98.87 345.87 97.15 348.03 97.15C350.19 97.15 351.78 98.86 351.78 101.87C351.78 104.88 350.17 106.58 348.03 106.58C345.89 106.58 344.26 104.87 344.26 101.87ZM350.46 101.87C350.46 99.51 349.46 98.32 348.03 98.32C346.6 98.32 345.58 99.51 345.58 101.87C345.58 104.23 346.58 105.41 348.03 105.41C349.48 105.41 350.46 104.22 350.46 101.87Z" fill="#263238"/>
<path d="M359.49 105.33V106.48H352.86V105.58L356.62 101.96C357.62 101.01 357.77 100.43 357.77 99.85C357.77 98.9 357.1 98.32 355.77 98.32C355.328 98.2939 354.885 98.3707 354.478 98.5442C354.07 98.7177 353.708 98.9832 353.42 99.32L352.52 98.54C352.943 98.0716 353.465 97.703 354.048 97.4609C354.63 97.2187 355.26 97.1091 355.89 97.14C357.81 97.14 359.05 98.14 359.05 99.71C359.035 100.276 358.891 100.832 358.63 101.334C358.368 101.837 357.995 102.273 357.54 102.61L354.72 105.32L359.49 105.33Z" fill="#263238"/>
<path d="M363.43 97.26V106.48H362.12V98.4H360V97.26H363.43Z" fill="#263238"/>
<path d="M365.44 101.87C365.44 98.87 367.05 97.15 369.21 97.15C371.37 97.15 372.96 98.86 372.96 101.87C372.96 104.88 371.36 106.58 369.21 106.58C367.06 106.58 365.44 104.87 365.44 101.87ZM371.65 101.87C371.65 99.51 370.65 98.32 369.21 98.32C367.77 98.32 366.76 99.51 366.76 101.87C366.76 104.23 367.76 105.41 369.21 105.41C370.66 105.41 371.65 104.22 371.65 101.87Z" fill="#263238"/>
</g>
<path d="M346.33 159.14L347.33 159.82L348.46 160.55C349.23 161.03 350.02 161.48 350.81 161.93C352.4 162.82 354.02 163.68 355.67 164.44C358.938 165.975 362.356 167.168 365.87 168H366.03H366.1H365.85C365.41 168.036 364.985 168.177 364.61 168.41C364.176 168.684 363.829 169.076 363.61 169.54C363.536 169.686 363.495 169.847 363.49 170.01C363.49 170.07 363.56 169.81 363.49 169.52C363.474 169.162 363.437 168.804 363.38 168.45C363.054 166.695 362.61 164.965 362.05 163.27C360.9 159.69 359.55 156.01 358.2 152.4L362.06 150.32C364.381 153.649 366.447 157.149 368.24 160.79C369.205 162.718 370.001 164.725 370.62 166.79C370.791 167.395 370.928 168.01 371.03 168.63C371.168 169.436 371.198 170.256 371.12 171.07C371.053 171.721 370.878 172.357 370.6 172.95C370.165 173.872 369.469 174.647 368.6 175.18C367.817 175.669 366.922 175.951 366 176C365.666 176.012 365.331 175.995 365 175.95H364.7H364.5C360.257 175.367 356.11 174.22 352.17 172.54C350.221 171.736 348.318 170.824 346.47 169.81C345.55 169.29 344.64 168.76 343.74 168.2C343.29 167.91 342.84 167.63 342.4 167.32C341.96 167.01 341.54 166.73 341 166.32L346.33 159.14Z" fill="#DC897C"/>
<path d="M345.21 158C348.711 158.422 352.036 159.772 354.84 161.91L350.84 174.29C350.84 174.29 331.4 156.42 345.21 158Z" fill="#407BFF"/>
<path opacity="0.6" d="M345.17 168.45C346.951 170.49 348.833 172.439 350.81 174.29L352.46 169.2L354.84 161.91C352.039 159.774 348.718 158.424 345.22 158C336.72 157 340.78 163.41 345.17 168.45Z" fill="white"/>
<path opacity="0.2" d="M345.17 168.45C346.951 170.49 348.833 172.439 350.81 174.29L352.46 169.2C350.385 167.583 347.831 166.704 345.2 166.7C345.14 167.281 345.13 167.867 345.17 168.45Z" fill="black"/>
<path d="M302 139.74C302 139.74 292.7 170.66 312.29 174.81C331.88 178.96 334 164.73 334 164.73C334 164.73 317.9 140.37 302 139.74Z" fill="#263238"/>
<path d="M297.41 149.74C297.684 149.242 298.067 148.813 298.532 148.486C298.996 148.158 299.529 147.941 300.09 147.85" stroke="#263238" stroke-width="0.48" stroke-linecap="round" stroke-linejoin="round"/>
<path d="M300.21 153.82C300.085 155.022 299.813 156.204 299.4 157.34C299.71 157.525 300.064 157.623 300.425 157.623C300.786 157.623 301.14 157.525 301.45 157.34L300.21 153.82Z" fill="#DE5753"/>
<path d="M298.32 152.47C298.53 153.02 299 153.35 299.32 153.21C299.64 153.07 299.82 152.51 299.61 151.97C299.4 151.43 298.93 151.09 298.61 151.23C298.29 151.37 298.12 151.92 298.32 152.47Z" fill="#263238"/>
<path d="M298.77 151.19H297.4C297.4 151.19 298.38 152 298.77 151.19Z" fill="#263238"/>
<path d="M318.23 157.65C318.196 157.74 318.148 157.824 318.09 157.9C318 158.07 317.9 158.23 317.8 158.4C317.214 159.454 316.434 160.387 315.5 161.15C312.5 163.54 309.89 164.26 307.62 163.57L307.29 163.46C303.92 162.09 301.29 158.06 299.2 152.73C298.273 150.644 297.688 148.422 297.47 146.15C297.47 146.15 297.47 146.07 297.47 146.05C297.47 146.03 297.47 145.87 297.47 145.79C297.392 144.488 297.64 143.187 298.192 142.004C298.744 140.822 299.582 139.796 300.63 139.02C301.526 138.316 302.499 137.716 303.53 137.23C313.52 132.36 323.24 148.22 318.23 157.65Z" fill="#E4897B"/>
<path opacity="0.2" d="M317.8 158.4C317.214 159.454 316.434 160.387 315.5 161.15C312.5 163.54 309.89 164.26 307.62 163.57C309.827 163.035 311.815 161.83 313.31 160.12C313.887 159.522 314.588 159.059 315.364 158.761C316.14 158.464 316.971 158.341 317.8 158.4Z" fill="black"/>
<path d="M297.42 146.1C297.42 146.1 300.21 153.44 308.36 153.31C308.36 153.31 314.72 159.31 319.01 157.4C324.86 154.81 326.06 144.17 320.1 136.74C312.36 127.1 295.48 134 297.42 146.1Z" fill="#263238"/>
<path d="M304 152.88C303.48 151.78 303.49 149.5 305.32 148.94C307.15 148.38 310.32 152.28 306.38 155.32C305.82 155.76 305.08 155.19 304 152.88Z" fill="#E4897B"/>
<path d="M306.19 132.74C306.19 132.74 298.63 134.23 296.19 138.74C293.33 143.97 293.19 148.04 300.79 150.69C300.79 150.69 310.4 141.69 314.54 140.69C316.954 140.097 319.412 139.703 321.89 139.51C319.13 131.57 309.24 129.43 306.19 132.74Z" fill="#263238"/>
<path d="M313.52 161.35C313.52 161.35 318.72 164.95 320.07 170.89L336.28 161.43C336.28 161.43 323.59 158.53 321.41 153.62C321.41 153.62 312.93 154.68 313.52 161.35Z" fill="#E4897B"/>
<path d="M329.62 200.3C329.62 200.3 308.62 179.66 306.36 173.19C306.36 173.19 315.19 159.43 332.84 158.86C350.49 158.29 362.5 191.86 362.5 191.86L329.62 200.3Z" fill="#407BFF"/>
<path opacity="0.6" d="M362.5 191.86L329.63 200.3C329.63 200.3 325.05 195.79 319.93 190.3C318.35 188.59 316.7 186.79 315.11 185.01C310.94 180.28 307.26 175.66 306.37 173.15C306.37 173.15 315.19 159.4 332.84 158.82C350.49 158.24 362.5 191.86 362.5 191.86Z" fill="white"/>
<path d="M310 149.78C310 149.78 313.07 159.98 323.85 163.37C334.63 166.76 331.92 177.75 342.37 176.46C347.93 175.77 352.69 164.46 335.64 154.46C325.7 148.64 329.56 129.55 308.46 131.34C308.44 131.35 312.82 144.44 310 149.78Z" fill="#263238"/>
<path d="M320.47 355.78L315.47 354.64C316.22 329.64 319.83 299.4 323.02 276.7C323.52 273.14 324.02 269.77 324.48 266.64C324.71 265.15 324.92 263.71 325.13 262.33C326.13 255.53 327.05 250.14 327.6 246.82C328.01 244.39 328.24 243.06 328.24 243.06L346.24 247.45L344.93 252L340.68 267L340.2 268.72L337.38 278.6L332.6 295.4C332.92 320.83 320.47 355.78 320.47 355.78Z" fill="#E4897B"/>
<path d="M363.27 351.59L358.15 351.34C354.25 324.46 352.61 290.84 351.9 267.47C351.8 263.84 351.71 260.47 351.64 257.39C351.64 257.23 351.64 257.09 351.64 256.94C351.51 250.85 351.45 246.01 351.42 242.94C351.42 240.54 351.42 239.22 351.42 239.22L369.89 240.44L369.1 248.13L367.94 259.44L367.71 261.66L366.91 269.36L364.75 290C369.47 315 363.27 351.59 363.27 351.59Z" fill="#E4897B"/>
<path d="M365.19 350.6C365.19 349.96 357.29 350.46 357.29 350.46C357.29 350.46 352.44 355.39 347.73 356.46C343.02 357.53 345.66 360.39 350.92 360.39H363.92C367.68 360.43 365.34 357.25 365.19 350.6Z" fill="#263238"/>
<path d="M352.45 352.29C352.337 352.186 352.258 352.049 352.225 351.9C352.191 351.75 352.203 351.593 352.26 351.45C352.288 351.337 352.34 351.231 352.413 351.14C352.485 351.048 352.576 350.973 352.68 350.92C353.24 350.691 353.853 350.622 354.45 350.72C353.81 350.38 353.25 349.96 353.22 349.55C353.19 349.14 353.38 349.06 353.74 348.89C353.897 348.819 354.068 348.782 354.24 348.782C354.412 348.782 354.583 348.819 354.74 348.89C355.81 349.33 356.47 351.17 356.5 351.25C356.52 351.301 356.52 351.359 356.5 351.41V351.46C356.481 351.482 356.457 351.499 356.43 351.51C355.41 352.032 354.307 352.371 353.17 352.51C352.912 352.522 352.657 352.444 352.45 352.29ZM352.89 351.29C352.836 351.318 352.787 351.356 352.748 351.402C352.708 351.448 352.679 351.502 352.66 351.56C352.58 351.87 352.66 351.95 352.66 351.98C353.04 352.28 354.48 351.85 355.66 351.36C354.762 351.077 353.803 351.049 352.89 351.28V351.29ZM353.89 349.29C353.78 349.34 353.6 349.45 353.61 349.56C353.61 349.91 354.76 350.56 355.92 350.97C355.662 350.275 355.189 349.679 354.57 349.27C354.468 349.231 354.359 349.211 354.25 349.21C354.138 349.207 354.026 349.224 353.92 349.26L353.89 349.29Z" fill="#263238"/>
<path d="M323 350.6C323 349.96 315.11 350.46 315.11 350.46C315.11 350.46 310.26 355.39 305.55 356.46C300.84 357.53 303.47 360.39 308.73 360.39H321.73C325.5 360.43 323.17 357.25 323 350.6Z" fill="#263238"/>
<path d="M310.27 352.29C310.159 352.184 310.082 352.048 310.049 351.899C310.015 351.749 310.026 351.593 310.08 351.45C310.108 351.337 310.16 351.231 310.233 351.14C310.305 351.048 310.396 350.973 310.5 350.92C311.06 350.692 311.673 350.623 312.27 350.72C311.63 350.38 311.07 349.96 311.05 349.55C311.03 349.14 311.2 349.06 311.56 348.89C311.717 348.819 311.887 348.782 312.06 348.782C312.232 348.782 312.403 348.819 312.56 348.89C313.63 349.33 314.29 351.17 314.32 351.25C314.332 351.275 314.339 351.302 314.339 351.33C314.339 351.358 314.332 351.385 314.32 351.41C314.32 351.41 314.32 351.41 314.32 351.46L314.25 351.51C313.226 352.03 312.12 352.369 310.98 352.51C310.725 352.518 310.475 352.441 310.27 352.29ZM310.71 351.29C310.657 351.318 310.61 351.356 310.572 351.402C310.534 351.449 310.506 351.502 310.49 351.56C310.41 351.87 310.49 351.95 310.54 351.98C310.91 352.28 312.35 351.85 313.54 351.36C312.623 351.065 311.642 351.037 310.71 351.28V351.29ZM311.71 349.29C311.6 349.34 311.42 349.45 311.43 349.56C311.43 349.91 312.58 350.56 313.75 350.97C313.488 350.274 313.012 349.678 312.39 349.27C312.288 349.23 312.179 349.21 312.07 349.21C311.958 349.207 311.846 349.224 311.74 349.26L311.71 349.29Z" fill="#263238"/>
<path d="M325.36 250.57L329.62 220.57V200.3C340.85 191.86 362.5 191.86 362.5 191.86C362.5 191.86 379.13 214.92 371.05 252.86L350.17 255.86L348.84 248.77L346.22 256L325.36 250.57Z" fill="#263238"/>
<path opacity="0.2" d="M325.36 250.57L329.62 220.57V200.3C340.85 191.86 362.5 191.86 362.5 191.86C362.5 191.86 379.13 214.92 371.05 252.86L350.17 255.86L348.84 248.77L346.22 256L325.36 250.57Z" fill="white"/>
<path opacity="0.2" d="M348.84 248.86L352.84 236.37C352.84 236.37 357.06 235.1 362.48 226.71C362.5 226.71 361.56 241 348.84 248.86Z" fill="black"/>
<path opacity="0.2" d="M339.94 206.06L349.31 205.16C350.805 208.667 351.323 212.513 350.81 216.29L344.81 219.9L340.46 216.81C340.46 216.81 340.32 208.87 339.94 206.06Z" fill="black"/>
<path opacity="0.2" d="M362.5 203.76C363.757 206.851 364.686 210.065 365.27 213.35L368.59 214.76L370.38 212.53C370.38 212.53 369.17 205.99 367.12 202.8L362.5 203.76Z" fill="black"/>
<path d="M324.97 248.86L347.13 255.37L345.74 258.34L324.69 251.87L324.97 248.86Z" fill="#263238"/>
<path d="M349.31 254.94L349.68 257.67L371.41 254.94L371.74 251.48L349.31 254.94Z" fill="#263238"/>
<path d="M353.87 196C357.426 195.419 361.018 195.085 364.62 195L363.28 192.78C359.775 192.691 356.269 192.901 352.8 193.41L353.87 196Z" fill="#263238"/>
<path d="M333.94 198.77C332.397 199.416 330.889 200.14 329.42 200.94V203.67C331.033 202.85 332.65 202.107 334.27 201.44L333.94 198.77Z" fill="#263238"/>
<path d="M335.32 201C340.878 198.821 346.645 197.216 352.53 196.21L351.53 193.55C345.826 194.499 340.249 196.099 334.91 198.32L335.32 201Z" fill="#263238"/>
<path d="M275.24 208.86L269.56 206.58L268.56 211.93C268.56 211.93 273.68 215.04 275.82 211.34L275.24 208.86Z" fill="#E4897B"/>
<path d="M266.74 206.91L264.92 211.05L268.6 211.93L269.56 206.57L266.74 206.91Z" fill="#E4897B"/>
<path d="M362.41 151.25L361.74 145.16L356.56 146.85C356.56 146.85 356.24 152.85 360.51 152.96L362.41 151.25Z" fill="#E4897B"/>
<path d="M360.11 142.84L355.6 143.19L356.56 146.85L361.74 145.16L360.11 142.84Z" fill="#E4897B"/>
<path opacity="0.2" d="M319.93 190.33C318.35 188.62 316.7 186.82 315.11 185.04C314.5 181.32 314.11 178.04 314.11 178.04C316.015 179.453 317.542 181.314 318.557 183.457C319.572 185.601 320.044 187.961 319.93 190.33Z" fill="black"/>
<path d="M314.69 176.32C314.1 178.81 313.4 181.08 312.69 183.42C311.98 185.76 311.11 188.02 310.23 190.3C309.35 192.58 308.41 194.83 307.36 197.05C306.85 198.17 306.36 199.28 305.74 200.37C305.47 200.92 305.16 201.46 304.87 202.01L304.42 202.82L304.2 203.24C304.06 203.47 303.93 203.71 303.78 203.92C302.79 205.343 301.5 206.531 300 207.4C298.795 208.122 297.526 208.731 296.21 209.22C293.811 210.093 291.342 210.762 288.83 211.22C284.018 212.12 279.135 212.585 274.24 212.61L273.84 208.25C276.06 207.76 278.37 207.25 280.6 206.68C282.83 206.11 285.06 205.51 287.2 204.8C289.287 204.151 291.325 203.355 293.3 202.42C294.175 202.01 295.008 201.518 295.79 200.95C296.322 200.601 296.775 200.144 297.12 199.61C297.123 199.58 297.123 199.55 297.12 199.52L297.29 199.15L297.64 198.37C297.87 197.86 298.12 197.37 298.33 196.82C298.77 195.82 299.23 194.74 299.64 193.68C300.49 191.56 301.28 189.42 302.05 187.26C302.82 185.1 303.51 182.9 304.19 180.71C304.87 178.52 305.53 176.27 306.13 174.17L314.69 176.32Z" fill="#DC897C"/>
<path d="M309.79 168.79C304.9 171.98 302.28 180.31 301.45 184.38L311.61 191.86L316.74 186.86C318.82 175.38 311.65 167.58 309.79 168.79Z" fill="#407BFF"/>
<path opacity="0.6" d="M309.79 168.79C304.9 171.98 302.28 180.31 301.45 184.38L311.61 191.86L316.74 186.86C318.82 175.38 311.65 167.58 309.79 168.79Z" fill="white"/>
<path d="M359.39 153.2L352.13 153.97C352.028 153.974 351.927 153.957 351.832 153.92C351.737 153.883 351.651 153.826 351.579 153.754C351.508 153.681 351.452 153.594 351.416 153.499C351.38 153.404 351.364 153.302 351.37 153.2L350.93 137.82C350.914 137.604 350.979 137.389 351.112 137.217C351.245 137.045 351.436 136.929 351.65 136.89L358.9 136.12C359.002 136.116 359.103 136.133 359.198 136.17C359.293 136.207 359.379 136.264 359.451 136.337C359.522 136.409 359.578 136.496 359.614 136.591C359.65 136.686 359.666 136.788 359.66 136.89L360.1 152.27C360.114 152.485 360.05 152.697 359.919 152.868C359.789 153.039 359.601 153.157 359.39 153.2Z" fill="#263238"/>
<path opacity="0.6" d="M359.39 153.2L352.13 153.97C352.028 153.974 351.927 153.957 351.832 153.92C351.737 153.883 351.651 153.826 351.579 153.754C351.508 153.681 351.452 153.594 351.416 153.499C351.38 153.404 351.364 153.302 351.37 153.2L350.93 137.82C350.914 137.604 350.979 137.389 351.112 137.217C351.245 137.045 351.436 136.929 351.65 136.89L358.9 136.12C359.002 136.116 359.103 136.133 359.198 136.17C359.293 136.207 359.379 136.264 359.451 136.337C359.522 136.409 359.578 136.496 359.614 136.591C359.65 136.686 359.666 136.788 359.66 136.89L360.1 152.27C360.114 152.485 360.05 152.697 359.919 152.868C359.789 153.039 359.601 153.157 359.39 153.2Z" fill="white"/>
<path d="M358.75 153.27L351.5 154.04C351.398 154.044 351.296 154.027 351.2 153.99C351.105 153.953 351.018 153.896 350.946 153.824C350.874 153.752 350.817 153.665 350.78 153.57C350.743 153.474 350.726 153.372 350.73 153.27L350.3 137.89C350.291 137.683 350.357 137.479 350.485 137.316C350.614 137.152 350.796 137.04 351 137L358.25 136.23C358.352 136.224 358.455 136.24 358.55 136.277C358.646 136.313 358.732 136.37 358.804 136.443C358.876 136.516 358.932 136.603 358.967 136.699C359.003 136.795 359.017 136.898 359.01 137L359.45 152.38C359.459 152.587 359.393 152.791 359.265 152.954C359.136 153.118 358.954 153.23 358.75 153.27Z" fill="#263238"/>
<path opacity="0.7" d="M358.75 153.27L351.5 154.04C351.398 154.044 351.296 154.027 351.2 153.99C351.105 153.953 351.018 153.896 350.946 153.824C350.874 153.752 350.817 153.665 350.78 153.57C350.743 153.474 350.726 153.372 350.73 153.27L350.3 137.89C350.291 137.683 350.357 137.479 350.485 137.316C350.614 137.152 350.796 137.04 351 137L358.25 136.23C358.352 136.224 358.455 136.24 358.55 136.277C358.646 136.313 358.732 136.37 358.804 136.443C358.876 136.516 358.932 136.603 358.967 136.699C359.003 136.795 359.017 136.898 359.01 137L359.45 152.38C359.459 152.587 359.393 152.791 359.265 152.954C359.136 153.118 358.954 153.23 358.75 153.27Z" fill="white"/>
<path d="M358.27 136.49L356.37 136.69L356.13 137.27L353.19 137.59L352.92 137.06L351.02 137.26C350.883 137.286 350.761 137.362 350.676 137.473C350.591 137.583 350.55 137.721 350.56 137.86L350.99 153.24C350.987 153.306 350.998 153.373 351.022 153.435C351.046 153.497 351.083 153.553 351.13 153.6C351.177 153.647 351.233 153.684 351.295 153.708C351.357 153.732 351.424 153.743 351.49 153.74L358.74 152.97C358.878 152.941 359 152.864 359.085 152.751C359.169 152.639 359.21 152.5 359.2 152.36L358.77 137C358.774 136.933 358.764 136.865 358.741 136.802C358.717 136.739 358.681 136.682 358.634 136.633C358.587 136.585 358.53 136.548 358.467 136.523C358.405 136.498 358.337 136.487 358.27 136.49Z" fill="#407BFF"/>
<path opacity="0.8" d="M357.3 142L351.97 142.57C351.905 142.573 351.84 142.562 351.779 142.539C351.718 142.515 351.663 142.479 351.617 142.433C351.571 142.387 351.535 142.332 351.512 142.271C351.488 142.21 351.477 142.145 351.48 142.08V140.59C351.468 140.453 351.507 140.317 351.591 140.208C351.674 140.099 351.795 140.024 351.93 140L357.27 139.43C357.335 139.427 357.399 139.438 357.46 139.462C357.52 139.485 357.574 139.521 357.62 139.568C357.665 139.614 357.7 139.669 357.722 139.73C357.745 139.791 357.754 139.855 357.75 139.92L357.8 141.41C357.806 141.553 357.758 141.693 357.665 141.803C357.573 141.912 357.442 141.983 357.3 142Z" fill="white"/>
</svg>
