<svg width="403" height="403" viewBox="0 0 403 403" fill="none" xmlns="http://www.w3.org/2000/svg">
<path d="M201.5 385.211C306.371 385.211 391.386 336.128 391.386 275.58C391.386 215.033 306.371 165.95 201.5 165.95C96.6291 165.95 11.6145 215.033 11.6145 275.58C11.6145 336.128 96.6291 385.211 201.5 385.211Z" fill="#F0F0F0"/>
<path d="M162.205 358.66C198.369 358.66 227.685 341.735 227.685 320.856C227.685 299.977 198.369 283.051 162.205 283.051C126.041 283.051 96.7249 299.977 96.7249 320.856C96.7249 341.735 126.041 358.66 162.205 358.66Z" fill="#E0E0E0"/>
<path d="M348.414 273.559L340.737 269.126C340.737 269.126 338.855 252.682 340.107 239.947C341.865 222.052 353.422 200.52 367.21 205.577C380.996 210.634 360.888 228.858 356.412 244.037C351.936 259.214 348.414 273.559 348.414 273.559Z" fill="#27DEBF"/>
<path opacity="0.15" d="M348.414 273.559L340.737 269.126C340.737 269.126 338.855 252.682 340.107 239.947C341.865 222.052 353.422 200.52 367.21 205.577C380.996 210.634 360.888 228.858 356.412 244.037C351.936 259.214 348.414 273.559 348.414 273.559Z" fill="black"/>
<path d="M344.376 271.693C344.381 271.693 344.387 271.693 344.392 271.693C344.649 271.684 344.85 271.47 344.841 271.213C343.493 231.45 363.287 211.448 363.487 211.252C363.67 211.071 363.672 210.777 363.491 210.595C363.309 210.412 363.015 210.41 362.834 210.59C362.631 210.791 342.55 231.079 343.911 271.246C343.92 271.495 344.127 271.693 344.376 271.693Z" fill="white"/>
<path d="M353.242 276.323L347.778 273.169C347.778 273.169 346.848 261.885 352.381 248.177C357.197 236.243 369.147 226.343 375.158 228.424C381.168 230.504 381.019 234.766 378.088 239.237C375.158 243.708 357.33 254.364 353.242 276.323Z" fill="#27DEBF"/>
<path d="M350.36 275.124H350.363C350.619 275.122 350.827 274.915 350.825 274.657C350.717 249.517 374.323 232.525 374.562 232.356C374.771 232.208 374.821 231.918 374.672 231.708C374.526 231.499 374.236 231.447 374.024 231.598C373.783 231.769 349.785 249.043 349.895 274.662C349.897 274.918 350.104 275.124 350.36 275.124Z" fill="white"/>
<path d="M64.206 263.68L71.2955 258.895C71.2955 258.895 74.4164 240.32 71.5172 224.004C67.4404 201.065 51.6203 193.431 45.9751 195.828C40.3298 198.225 39.1232 205.067 49.6561 218.164C55.8703 225.89 63.9883 242.322 64.206 263.68Z" fill="#27DEBF"/>
<g opacity="0.15">
<path d="M64.206 263.68L71.2955 258.895C71.2955 258.895 74.4164 240.32 71.5172 224.004C67.4404 201.065 51.6203 193.431 45.9751 195.828C40.3298 198.225 39.1232 205.067 49.6561 218.164C55.8703 225.89 63.9883 242.322 64.206 263.68Z" fill="black"/>
</g>
<path d="M66.6409 254.491C66.6167 254.491 66.5934 254.49 66.57 254.487C66.2887 254.453 66.0864 254.199 66.1202 253.917C68.6809 232.317 59.5626 208.884 49.6456 199.56C49.4393 199.367 49.4288 199.04 49.6238 198.834C49.8189 198.629 50.1437 198.617 50.35 198.812C60.4476 208.306 69.74 232.12 67.1406 254.037C67.1092 254.295 66.8924 254.486 66.6409 254.491Z" fill="white"/>
<path d="M45.6357 276.206C44.5106 276.882 41.2213 274.442 40.3113 273.856C38.7533 272.854 37.479 271.416 36.619 269.779C35.6188 267.874 35.3359 265.818 35.5962 263.684C35.7316 262.577 36.0193 261.495 36.3063 260.419C36.5884 259.361 36.8705 258.304 37.1526 257.245C37.4307 256.202 37.7119 255.122 37.554 254.054C37.2364 251.902 35.2915 250.427 33.5248 249.156C31.571 247.751 29.5294 245.887 29.4899 243.289C29.4593 241.284 30.462 239.402 31.6734 237.805C32.8856 236.208 34.3324 234.79 35.4229 233.107C36.208 231.896 36.8116 230.48 36.6521 229.045C36.5529 228.154 36.1668 227.319 35.7244 226.54C34.7741 224.866 33.5344 223.34 32.8663 221.535C32.1981 219.73 32.2448 217.468 33.6384 216.14C34.7821 215.05 36.5094 214.868 38.0867 214.942C39.5464 215.01 40.9835 215.64 42.2723 216.325C46.4409 218.538 48.8896 223.377 53.3 225.058C55.0015 225.706 56.8536 225.819 58.622 226.251C60.3904 226.682 62.2023 227.546 63.0486 229.158C64.717 232.336 61.8121 236.348 63.0074 239.733C64.0649 242.728 67.0165 243.825 68.7139 246.509C69.4563 247.684 69.6489 249.054 69.5594 250.441C69.4079 252.788 69.0984 254.514 68.0248 257.141C67.1374 259.313 64.5018 263.484 64.5018 263.484C64.5018 263.484 45.8074 276.103 45.6357 276.206Z" fill="#27DEBF"/>
<path d="M56.5312 269.523C56.524 269.523 56.5175 269.523 56.5175 269.523C56.2266 269.517 56.0025 269.281 56.0081 268.998C56.4627 248.593 46.4216 226.268 39.3086 219.864C39.0982 219.674 39.0805 219.35 39.2707 219.138C39.4609 218.928 39.785 218.912 39.9961 219.101C47.2517 225.634 57.496 248.329 57.0358 269.021C57.0285 269.298 56.8053 269.518 56.5312 269.523Z" fill="white"/>
<path d="M52.7721 244.664C52.7221 244.665 52.6705 244.66 52.6205 244.644C46.0307 242.746 37.8594 242.546 37.778 242.545C37.4943 242.538 37.2695 242.303 37.2751 242.019C37.2815 241.736 37.4919 241.508 37.8006 241.516C37.8836 241.519 46.1846 241.72 52.9051 243.657C53.1775 243.735 53.3355 244.02 53.2565 244.292C53.1912 244.515 52.9913 244.66 52.7721 244.664Z" fill="white"/>
<path d="M242.734 249.654L239.676 247.887C238.713 247.33 237.932 245.977 237.932 244.864L237.931 117.905C237.931 116.792 238.712 115.439 239.676 114.882L324.584 65.8615C325.548 65.3053 327.11 65.3053 328.074 65.8615L331.133 67.6266C332.097 68.1828 332.878 69.536 332.878 70.6491V197.607C332.878 198.72 332.097 200.073 331.133 200.63L246.223 249.654C245.26 250.211 243.697 250.211 242.734 249.654Z" fill="#455A64"/>
<path d="M332.863 70.3654C332.743 69.4627 332.009 69.1322 331.131 69.64L246.227 118.669C245.743 118.951 245.316 119.419 244.993 119.967L238.441 116.186C238.755 115.638 239.19 115.163 239.674 114.881L324.586 65.8599C325.545 65.3037 327.109 65.3037 328.076 65.8599L331.131 67.625C332.017 68.1328 332.751 69.3176 332.863 70.3654Z" fill="#455A64"/>
<path d="M245.928 249.795C244.961 250.206 243.607 250.157 242.737 249.658L239.674 247.884C238.715 247.328 237.933 245.974 237.933 244.862V117.903C237.933 117.347 238.126 116.735 238.441 116.186L244.993 119.967C244.671 120.515 244.478 121.135 244.478 121.691V248.65C244.478 249.65 245.106 250.109 245.928 249.795Z" fill="#263238"/>
<path d="M244.478 121.69V248.648C244.478 249.761 245.259 250.211 246.223 249.655L331.133 200.63C332.097 200.074 332.878 198.721 332.878 197.608V70.6483C332.878 69.5352 332.097 69.0847 331.133 69.6408L246.223 118.667C245.26 119.224 244.478 120.577 244.478 121.69Z" fill="#37474F"/>
<path d="M224.65 170.084C223.554 169.431 218.468 166.537 218.202 166.384C217.396 165.893 217.106 164.7 217.855 163.894L237.933 142.357L244.478 146.113L224.408 167.658C223.683 168.431 223.916 169.552 224.65 170.084Z" fill="#455A64"/>
<path d="M244.479 146.117L224.406 167.655C223.4 168.734 224.249 170.486 225.719 170.365L244.479 168.82V146.117Z" fill="#37474F"/>
<path d="M288.678 107.361C298.574 101.647 306.596 106.279 306.596 117.706C306.596 129.132 298.574 143.027 288.678 148.741C278.782 154.455 270.76 149.822 270.76 138.396C270.76 126.968 278.783 113.074 288.678 107.361Z" fill="#27DEBF"/>
<path d="M288.552 116.353C291.762 114.5 294.366 116.002 294.366 119.709C294.366 123.416 291.763 127.924 288.552 129.777C285.342 131.63 282.739 130.129 282.739 126.421C282.739 122.714 285.342 118.206 288.552 116.353Z" fill="white"/>
<path d="M300.009 136.12C300.009 130.03 295.732 127.561 290.458 130.607L287.161 132.51C281.887 135.555 277.611 142.962 277.611 149.052V150.713C278.563 151.029 279.597 151.185 280.69 151.188C283.095 151.193 285.804 150.4 288.679 148.741C292.978 146.258 296.922 142.23 300.009 137.533V136.12Z" fill="white"/>
<path d="M277.328 205.312L300.029 192.205C300.993 191.649 301.774 192.1 301.774 193.213V200.524C301.774 201.637 300.993 202.99 300.029 203.546L277.328 216.654C276.364 217.21 275.583 216.759 275.583 215.646V208.335C275.583 207.222 276.364 205.868 277.328 205.312Z" fill="#27DEBF"/>
<path d="M266.217 188.98L311.139 163.044C312.296 162.377 313.233 162.918 313.233 164.253V166.974C313.233 168.31 312.296 169.934 311.139 170.601L266.218 196.537C265.061 197.204 264.124 196.663 264.124 195.328V192.607C264.123 191.271 265.061 189.647 266.217 188.98Z" fill="#FAFAFA"/>
<path d="M271.47 170.209C272.081 169.856 272.557 169.803 272.895 170.052C273.234 170.301 273.403 170.852 273.403 171.708C273.403 172.565 273.234 173.315 272.895 173.961C272.557 174.609 272.081 175.108 271.47 175.461L270.257 176.161V178.764C270.257 178.85 270.237 178.934 270.197 179.02C270.156 179.106 270.108 179.165 270.052 179.196L269.439 179.551C269.383 179.584 269.335 179.581 269.293 179.541C269.253 179.502 269.233 179.441 269.233 179.354V171.815C269.233 171.73 269.253 171.643 269.293 171.558C269.335 171.473 269.382 171.413 269.439 171.381L271.47 170.209ZM270.257 174.702L271.432 174.023C271.72 173.857 271.95 173.637 272.122 173.363C272.293 173.088 272.379 172.735 272.379 172.299C272.379 171.863 272.293 171.61 272.122 171.543C271.949 171.475 271.72 171.524 271.432 171.691L270.257 172.369V174.702Z" fill="#FAFAFA"/>
<path d="M276.784 167.141C276.864 167.094 276.926 167.092 276.966 167.135C277.007 167.178 277.042 167.256 277.072 167.372L278.93 173.675C278.935 173.695 278.937 173.721 278.937 173.753C278.937 173.838 278.917 173.924 278.877 174.009C278.837 174.094 278.789 174.154 278.733 174.185L278.187 174.501C278.086 174.559 278.014 174.567 277.974 174.524C277.933 174.481 277.906 174.434 277.89 174.379L277.565 173.272L275.169 174.656L274.844 176.139C274.828 176.21 274.8 176.291 274.761 176.38C274.719 176.47 274.649 176.543 274.548 176.602L274.002 176.917C273.947 176.948 273.898 176.945 273.858 176.906C273.817 176.867 273.797 176.805 273.797 176.72C273.797 176.689 273.8 176.661 273.805 176.634L275.663 168.186C275.693 168.036 275.728 167.917 275.769 167.828C275.809 167.739 275.87 167.671 275.951 167.624L276.784 167.141ZM277.2 172.025L276.367 169.18L275.534 172.987L277.2 172.025Z" fill="#FAFAFA"/>
<path d="M281.757 164.153C282.095 163.958 282.393 163.856 282.651 163.848C282.908 163.838 283.123 163.89 283.295 164C283.467 164.111 283.597 164.268 283.685 164.469C283.773 164.671 283.823 164.882 283.834 165.101C283.839 165.191 283.819 165.278 283.777 165.361C283.734 165.444 283.685 165.502 283.629 165.534L283.098 165.84C283.012 165.891 282.949 165.901 282.905 165.876C282.863 165.851 282.822 165.805 282.788 165.741C282.712 165.589 282.598 165.487 282.443 165.431C282.289 165.377 282.06 165.436 281.757 165.612C281.625 165.688 281.5 165.782 281.382 165.893C281.263 166.005 281.159 166.126 281.071 166.259C280.982 166.391 280.913 166.532 280.862 166.677C280.811 166.823 280.786 166.97 280.786 167.118C280.786 167.297 280.81 167.43 280.858 167.514C280.906 167.599 280.986 167.65 281.101 167.666C281.214 167.683 281.365 167.671 281.552 167.633C281.739 167.595 281.972 167.543 282.249 167.476C282.552 167.401 282.813 167.37 283.034 167.38C283.253 167.389 283.432 167.448 283.572 167.559C283.711 167.67 283.814 167.829 283.883 168.039C283.951 168.249 283.985 168.513 283.985 168.831C283.985 169.182 283.934 169.536 283.834 169.894C283.733 170.251 283.588 170.591 283.402 170.913C283.214 171.235 282.985 171.537 282.711 171.819C282.439 172.101 282.132 172.34 281.794 172.536C281.51 172.699 281.24 172.803 280.983 172.846C280.725 172.89 280.496 172.871 280.297 172.788C280.097 172.704 279.937 172.558 279.814 172.348C279.694 172.137 279.626 171.866 279.61 171.532C279.605 171.442 279.625 171.355 279.667 171.272C279.709 171.19 279.759 171.132 279.814 171.099L280.345 170.793C280.431 170.742 280.497 170.729 280.542 170.749C280.588 170.769 280.625 170.817 280.656 170.892C280.692 170.974 280.735 171.05 280.785 171.122C280.836 171.194 280.903 171.244 280.989 171.272C281.075 171.3 281.183 171.302 281.312 171.279C281.441 171.255 281.6 171.188 281.793 171.076C281.944 170.99 282.091 170.887 282.233 170.77C282.374 170.654 282.498 170.523 282.605 170.38C282.71 170.238 282.796 170.088 282.862 169.928C282.927 169.769 282.96 169.601 282.96 169.421C282.96 169.251 282.925 169.132 282.854 169.063C282.784 168.995 282.676 168.964 282.532 168.97C282.388 168.975 282.21 169.004 281.998 169.056C281.786 169.108 281.541 169.161 281.263 169.212C281.01 169.264 280.789 169.281 280.599 169.262C280.41 169.244 280.253 169.176 280.129 169.061C280.006 168.946 279.913 168.779 279.853 168.561C279.792 168.343 279.763 168.06 279.763 167.708C279.763 167.359 279.813 167.006 279.914 166.653C280.015 166.3 280.154 165.965 280.332 165.654C280.508 165.341 280.719 165.054 280.964 164.793C281.209 164.53 281.475 164.317 281.757 164.153Z" fill="#FAFAFA"/>
<path d="M287.047 161.099C287.387 160.904 287.684 160.802 287.941 160.793C288.199 160.784 288.414 160.835 288.587 160.945C288.758 161.057 288.887 161.213 288.976 161.414C289.065 161.617 289.114 161.828 289.124 162.046C289.129 162.137 289.111 162.224 289.068 162.307C289.024 162.39 288.975 162.448 288.92 162.479L288.388 162.786C288.302 162.836 288.238 162.847 288.196 162.822C288.153 162.797 288.114 162.751 288.079 162.686C288.002 162.536 287.889 162.432 287.734 162.377C287.58 162.323 287.351 162.382 287.047 162.557C286.916 162.634 286.792 162.727 286.672 162.839C286.553 162.951 286.45 163.072 286.361 163.205C286.273 163.338 286.203 163.477 286.153 163.623C286.102 163.769 286.077 163.915 286.077 164.064C286.077 164.243 286.1 164.375 286.149 164.459C286.197 164.546 286.277 164.596 286.391 164.612C286.506 164.628 286.656 164.617 286.843 164.579C287.029 164.541 287.262 164.489 287.54 164.422C287.844 164.347 288.104 164.316 288.325 164.325C288.544 164.335 288.724 164.393 288.862 164.504C289.002 164.616 289.106 164.775 289.173 164.984C289.242 165.195 289.276 165.458 289.276 165.777C289.276 166.127 289.225 166.481 289.124 166.84C289.024 167.197 288.878 167.537 288.692 167.858C288.506 168.181 288.276 168.482 288.002 168.765C287.73 169.047 287.424 169.286 287.086 169.481C286.801 169.644 286.531 169.748 286.274 169.792C286.017 169.836 285.788 169.816 285.588 169.733C285.388 169.65 285.228 169.504 285.106 169.293C284.985 169.083 284.917 168.811 284.902 168.477C284.897 168.387 284.916 168.3 284.959 168.218C285.001 168.134 285.05 168.077 285.106 168.045L285.637 167.738C285.722 167.688 285.788 167.674 285.833 167.695C285.88 167.715 285.917 167.762 285.948 167.838C285.983 167.92 286.027 167.995 286.077 168.068C286.128 168.139 286.195 168.189 286.282 168.218C286.367 168.246 286.475 168.248 286.603 168.225C286.732 168.201 286.892 168.134 287.085 168.023C287.237 167.936 287.383 167.834 287.524 167.716C287.665 167.6 287.79 167.47 287.896 167.327C288.002 167.184 288.088 167.035 288.154 166.875C288.219 166.717 288.251 166.549 288.251 166.369C288.251 166.198 288.216 166.079 288.146 166.01C288.075 165.943 287.967 165.911 287.823 165.917C287.68 165.922 287.502 165.951 287.289 166.003C287.077 166.055 286.832 166.108 286.554 166.159C286.302 166.211 286.08 166.229 285.891 166.21C285.702 166.191 285.544 166.124 285.422 166.009C285.297 165.893 285.205 165.727 285.144 165.508C285.084 165.29 285.054 165.007 285.054 164.656C285.054 164.306 285.105 163.954 285.206 163.6C285.306 163.246 285.446 162.913 285.623 162.601C285.8 162.288 286.01 162.002 286.256 161.74C286.501 161.476 286.764 161.263 287.047 161.099Z" fill="#FAFAFA"/>
<path d="M292.922 162.108L292.27 165.973C292.245 166.104 292.213 166.218 292.175 166.313C292.137 166.409 292.081 166.479 292.005 166.523L291.39 166.877C291.314 166.921 291.255 166.919 291.212 166.869C291.168 166.819 291.14 166.741 291.126 166.634L290.154 159.831C290.15 159.794 290.147 159.765 290.147 159.742C290.147 159.657 290.167 159.57 290.208 159.485C290.248 159.399 290.295 159.34 290.352 159.308L290.912 158.984C290.963 158.956 291.011 158.951 291.057 158.971C291.102 158.992 291.133 159.055 291.147 159.164L291.784 163.745L292.345 160.305C292.356 160.244 292.379 160.159 292.418 160.052C292.455 159.945 292.519 159.865 292.61 159.812L293.232 159.453C293.323 159.401 293.387 159.407 293.425 159.47C293.463 159.534 293.486 159.59 293.497 159.638L294.058 162.431L294.695 157.115C294.709 156.989 294.74 156.891 294.786 156.817C294.831 156.744 294.879 156.693 294.93 156.665L295.49 156.341C295.546 156.309 295.594 156.312 295.634 156.352C295.675 156.391 295.695 156.453 295.695 156.538C295.695 156.561 295.692 156.594 295.688 156.635L294.717 164.559C294.701 164.685 294.673 164.797 294.631 164.896C294.587 164.994 294.529 165.066 294.452 165.11L293.838 165.464C293.761 165.508 293.705 165.504 293.667 165.452C293.629 165.399 293.598 165.323 293.572 165.22L292.922 162.108Z" fill="#FAFAFA"/>
<path d="M296.697 158.691C296.713 158.247 296.766 157.804 296.859 157.365C296.953 156.926 297.091 156.512 297.273 156.123C297.455 155.735 297.682 155.377 297.955 155.053C298.229 154.727 298.551 154.458 298.926 154.241C299.294 154.027 299.615 153.924 299.888 153.93C300.161 153.936 300.388 154.031 300.57 154.214C300.752 154.397 300.89 154.651 300.987 154.976C301.083 155.303 301.139 155.682 301.155 156.117C301.159 156.262 301.163 156.424 301.166 156.6C301.168 156.778 301.17 156.961 301.17 157.152C301.17 157.343 301.168 157.529 301.166 157.708C301.163 157.89 301.159 158.055 301.155 158.205C301.139 158.651 301.085 159.092 300.992 159.531C300.898 159.97 300.76 160.384 300.578 160.773C300.396 161.161 300.167 161.518 299.892 161.84C299.616 162.162 299.294 162.43 298.926 162.643C298.551 162.859 298.229 162.964 297.955 162.959C297.682 162.952 297.455 162.86 297.273 162.681C297.091 162.503 296.953 162.248 296.859 161.916C296.766 161.585 296.712 161.206 296.697 160.779C296.692 160.634 296.687 160.474 296.685 160.295C296.682 160.118 296.681 159.934 296.681 159.744C296.681 159.553 296.682 159.367 296.685 159.187C296.688 159.007 296.692 158.842 296.697 158.691ZM300.131 156.766C300.111 156.217 299.993 155.852 299.778 155.668C299.563 155.485 299.279 155.495 298.925 155.7C298.571 155.905 298.287 156.222 298.072 156.654C297.856 157.085 297.739 157.586 297.719 158.158C297.708 158.46 297.703 158.792 297.703 159.154C297.703 159.515 297.708 159.84 297.719 160.13C297.738 160.679 297.856 161.043 298.072 161.222C298.287 161.402 298.571 161.389 298.925 161.185C299.279 160.981 299.563 160.665 299.778 160.238C299.993 159.81 300.11 159.311 300.131 158.739C300.141 158.437 300.146 158.106 300.146 157.744C300.146 157.382 300.141 157.057 300.131 156.766Z" fill="#FAFAFA"/>
<path d="M304.694 151.027C305.325 150.663 305.804 150.612 306.133 150.874C306.461 151.136 306.626 151.667 306.626 152.469C306.626 153.037 306.542 153.569 306.373 154.068C306.203 154.566 305.954 155.008 305.626 155.392L306.672 157.671C306.687 157.708 306.694 157.747 306.694 157.787C306.694 157.856 306.677 157.925 306.644 157.996C306.612 158.065 306.572 158.113 306.527 158.14L305.882 158.511C305.781 158.569 305.706 158.576 305.659 158.53C305.61 158.482 305.576 158.435 305.556 158.385L304.564 156.237L303.556 156.82V159.54C303.556 159.625 303.536 159.711 303.495 159.795C303.454 159.881 303.407 159.94 303.351 159.973L302.737 160.327C302.681 160.359 302.634 160.355 302.593 160.316C302.551 160.277 302.532 160.216 302.532 160.13V152.591C302.532 152.505 302.551 152.419 302.593 152.335C302.634 152.249 302.68 152.19 302.737 152.157L304.694 151.027ZM303.557 155.361L304.655 154.726C304.944 154.56 305.173 154.349 305.345 154.094C305.517 153.84 305.602 153.495 305.602 153.059C305.602 152.623 305.516 152.381 305.345 152.332C305.173 152.284 304.944 152.343 304.655 152.51L303.557 153.144V155.361Z" fill="#FAFAFA"/>
<path d="M310.068 147.924C310.442 147.708 310.766 147.597 311.042 147.589C311.318 147.583 311.547 147.666 311.733 147.84C311.917 148.013 312.057 148.269 312.157 148.609C312.255 148.95 312.314 149.359 312.335 149.837C312.355 150.4 312.355 150.977 312.335 151.564C312.315 152.066 312.255 152.544 312.157 152.997C312.057 153.452 311.918 153.87 311.736 154.256C311.553 154.642 311.327 154.987 311.056 155.295C310.786 155.604 310.47 155.862 310.105 156.072L308.195 157.175C308.139 157.207 308.092 157.204 308.051 157.164C308.01 157.126 307.99 157.064 307.99 156.978V149.439C307.99 149.354 308.01 149.267 308.051 149.183C308.092 149.097 308.139 149.037 308.195 149.005L310.068 147.924ZM311.311 150.428C311.301 150.185 311.269 149.972 311.217 149.789C311.164 149.606 311.085 149.464 310.981 149.365C310.877 149.265 310.748 149.216 310.592 149.216C310.435 149.218 310.247 149.281 310.031 149.407L309.016 149.993V155.244L310.069 154.637C310.276 154.517 310.455 154.369 310.607 154.191C310.759 154.015 310.885 153.819 310.986 153.604C311.087 153.39 311.164 153.159 311.218 152.911C311.27 152.662 311.302 152.411 311.312 152.157C311.33 151.568 311.33 150.993 311.311 150.428Z" fill="#FAFAFA"/>
<path d="M199.386 30.9464C200.795 31.2583 202.122 31.7572 203.369 32.4415C204.616 33.1266 205.673 33.9656 206.538 34.9586C207.402 35.9508 208.025 37.0792 208.405 38.343C208.785 39.6052 208.813 40.9722 208.488 42.4399C208.223 43.6384 207.805 44.6395 207.235 45.4399C206.663 46.241 206.008 46.9293 205.268 47.5032C204.528 48.0779 203.747 48.5816 202.93 49.0129C202.11 49.4449 201.335 49.8551 200.606 50.242C199.875 50.6305 199.213 51.0593 198.624 51.5252C198.033 51.9918 197.621 52.5455 197.385 53.1847C197.251 53.5015 197.053 53.7554 196.791 53.948C196.528 54.1422 196.232 54.2011 195.902 54.1293L192.486 53.3725C192.156 53.3 191.89 53.1162 191.689 52.8188C191.488 52.523 191.439 52.2143 191.541 51.8911C191.86 50.7353 192.333 49.7632 192.964 48.9758C193.595 48.1883 194.294 47.5105 195.065 46.9414C195.835 46.3732 196.636 45.8832 197.466 45.4697C198.295 45.0554 199.068 44.6532 199.785 44.2615C200.5 43.8706 201.111 43.4547 201.615 43.017C202.121 42.5794 202.444 42.045 202.583 41.4155C202.836 40.2774 202.564 39.2345 201.767 38.2874C200.97 37.3412 199.778 36.6923 198.19 36.3401C195.643 35.7759 193.488 36.6351 191.725 38.9169C191.502 39.2135 191.29 39.4255 191.09 39.5536C190.887 39.6826 190.592 39.7036 190.202 39.6165L186.561 38.8105C186.292 38.7509 186.078 38.609 185.924 38.3865C185.769 38.1641 185.725 37.9021 185.791 37.6023C186.052 36.5602 186.613 35.5607 187.469 34.6024C188.325 33.6448 189.369 32.8389 190.598 32.1828C191.828 31.5283 193.203 31.0697 194.722 30.8093C196.244 30.5498 197.797 30.5941 199.386 30.9464ZM195.531 56.877C195.86 56.9495 196.118 57.1325 196.304 57.4259C196.491 57.7185 196.548 58.0296 196.475 58.3592L195.598 62.3143C195.525 62.6447 195.343 62.9027 195.05 63.0888C194.757 63.2766 194.447 63.3331 194.117 63.2597L190.251 62.4037C189.921 62.3296 189.663 62.1482 189.476 61.854C189.289 61.5615 189.232 61.2512 189.305 60.9207L190.181 56.9648C190.255 56.636 190.437 56.3773 190.73 56.1903C191.024 56.0049 191.334 55.9469 191.664 56.0202L195.531 56.877Z" fill="#27DEBF"/>
<path d="M203.689 68.7558C204.672 68.5954 205.651 68.5737 206.626 68.6946C207.601 68.8138 208.492 69.0806 209.301 69.4957C210.11 69.9124 210.798 70.4758 211.365 71.1883C211.933 71.9016 212.3 72.7705 212.467 73.7933C212.603 74.6299 212.591 75.3795 212.431 76.038C212.271 76.6973 212.026 77.3067 211.699 77.8652C211.372 78.423 211.001 78.9453 210.586 79.4313C210.172 79.9181 209.78 80.3783 209.412 80.8144C209.043 81.2504 208.728 81.6945 208.469 82.1443C208.21 82.594 208.087 83.0543 208.1 83.5241C208.095 83.7619 208.033 83.9755 207.915 84.1665C207.796 84.3576 207.621 84.472 207.392 84.5099L205.008 84.8992C204.777 84.9371 204.56 84.8863 204.354 84.7477C204.149 84.6098 204.038 84.4245 204.022 84.1907C203.931 83.3678 203.986 82.6247 204.189 81.9573C204.39 81.2915 204.666 80.6766 205.014 80.1156C205.362 79.5546 205.75 79.0347 206.176 78.5568C206.603 78.0796 206.995 77.6234 207.354 77.1882C207.712 76.7554 207.997 76.3322 208.209 75.9228C208.421 75.5117 208.492 75.0877 208.42 74.6477C208.291 73.8546 207.849 73.2549 207.095 72.8511C206.342 72.4481 205.412 72.3369 204.303 72.5182C202.526 72.8084 201.365 73.9118 200.818 75.826C200.751 76.0727 200.67 76.2629 200.573 76.3967C200.477 76.5313 200.293 76.62 200.021 76.6643L197.481 77.0802C197.293 77.1108 197.12 77.0745 196.963 76.9714C196.807 76.8674 196.712 76.7118 196.677 76.5023C196.578 75.768 196.681 74.983 196.986 74.1496C197.289 73.3162 197.751 72.5319 198.372 71.7977C198.993 71.0626 199.757 70.4178 200.664 69.8616C201.573 69.3055 202.581 68.9372 203.689 68.7558ZM207.854 86.3661C208.084 86.329 208.297 86.3806 208.492 86.5192C208.686 86.6603 208.802 86.8449 208.84 87.0738L209.292 89.8351C209.329 90.0648 209.278 90.2776 209.138 90.4719C208.998 90.6669 208.814 90.7822 208.583 90.8201L205.885 91.2609C205.656 91.2988 205.443 91.248 205.249 91.1086C205.054 90.9684 204.938 90.7838 204.9 90.5541L204.448 87.7927C204.411 87.5638 204.462 87.351 204.601 87.156C204.742 86.9617 204.926 86.8449 205.156 86.807L207.854 86.3661Z" fill="#27DEBF"/>
<g opacity="0.2">
<path d="M203.689 68.7558C204.672 68.5954 205.651 68.5737 206.626 68.6946C207.601 68.8138 208.492 69.0806 209.301 69.4957C210.11 69.9124 210.798 70.4758 211.365 71.1883C211.933 71.9016 212.3 72.7705 212.467 73.7933C212.603 74.6299 212.591 75.3795 212.431 76.038C212.271 76.6973 212.026 77.3067 211.699 77.8652C211.372 78.423 211.001 78.9453 210.586 79.4313C210.172 79.9181 209.78 80.3783 209.412 80.8144C209.043 81.2504 208.728 81.6945 208.469 82.1443C208.21 82.594 208.087 83.0543 208.1 83.5241C208.095 83.7619 208.033 83.9755 207.915 84.1665C207.796 84.3576 207.621 84.472 207.392 84.5099L205.008 84.8992C204.777 84.9371 204.56 84.8863 204.354 84.7477C204.149 84.6098 204.038 84.4245 204.022 84.1907C203.931 83.3678 203.986 82.6247 204.189 81.9573C204.39 81.2915 204.666 80.6766 205.014 80.1156C205.362 79.5546 205.75 79.0347 206.176 78.5568C206.603 78.0796 206.995 77.6234 207.354 77.1882C207.712 76.7554 207.997 76.3322 208.209 75.9228C208.421 75.5117 208.492 75.0877 208.42 74.6477C208.291 73.8546 207.849 73.2549 207.095 72.8511C206.342 72.4481 205.412 72.3369 204.303 72.5182C202.526 72.8084 201.365 73.9118 200.818 75.826C200.751 76.0727 200.67 76.2629 200.573 76.3967C200.477 76.5313 200.293 76.62 200.021 76.6643L197.481 77.0802C197.293 77.1108 197.12 77.0745 196.963 76.9714C196.807 76.8674 196.712 76.7118 196.677 76.5023C196.578 75.768 196.681 74.983 196.986 74.1496C197.289 73.3162 197.751 72.5319 198.372 71.7977C198.993 71.0626 199.757 70.4178 200.664 69.8616C201.573 69.3055 202.581 68.9372 203.689 68.7558ZM207.854 86.3661C208.084 86.329 208.297 86.3806 208.492 86.5192C208.686 86.6603 208.802 86.8449 208.84 87.0738L209.292 89.8351C209.329 90.0648 209.278 90.2776 209.138 90.4719C208.998 90.6669 208.814 90.7822 208.583 90.8201L205.885 91.2609C205.656 91.2988 205.443 91.248 205.249 91.1086C205.054 90.9684 204.938 90.7838 204.9 90.5541L204.448 87.7927C204.411 87.5638 204.462 87.351 204.601 87.156C204.742 86.9617 204.926 86.8449 205.156 86.807L207.854 86.3661Z" fill="black"/>
</g>
<path d="M226.479 73.0953C226.704 73.2557 226.84 73.4758 226.888 73.7555C226.935 74.0359 226.878 74.2882 226.719 74.5131L224.799 77.214C224.639 77.4397 224.419 77.5759 224.139 77.6226C223.858 77.671 223.606 77.6138 223.381 77.4542L220.742 75.5778C220.517 75.4174 220.381 75.1982 220.334 74.9185C220.285 74.6372 220.343 74.3857 220.503 74.1609L222.423 71.4592C222.583 71.2343 222.802 71.0981 223.083 71.0505C223.363 71.003 223.614 71.0594 223.84 71.2198L226.479 73.0953ZM237.645 54.7895C238.606 55.4721 239.448 56.2709 240.169 57.1841C240.891 58.0981 241.42 59.0661 241.754 60.0889C242.089 61.1133 242.199 62.1603 242.083 63.2331C241.967 64.3067 241.553 65.344 240.84 66.3467C240.258 67.1656 239.625 67.7854 238.941 68.2069C238.256 68.6293 237.543 68.9388 236.803 69.1355C236.061 69.3329 235.313 69.4635 234.56 69.5288C233.804 69.5925 233.091 69.6545 232.417 69.7142C231.744 69.7738 231.109 69.8858 230.517 70.0495C229.923 70.2123 229.435 70.4984 229.055 70.9046C228.853 71.1005 228.623 71.2286 228.364 71.2907C228.104 71.3528 227.863 71.3036 227.638 71.1432L225.304 69.4845C225.08 69.3249 224.938 69.1016 224.88 68.8139C224.823 68.5269 224.884 68.2779 225.064 68.0667C225.674 67.2978 226.339 66.7167 227.065 66.3241C227.791 65.9324 228.534 65.6439 229.296 65.4609C230.057 65.2779 230.817 65.1635 231.574 65.1167C232.33 65.0692 233.041 65.012 233.706 64.9451C234.369 64.8782 234.961 64.7605 235.483 64.5912C236.002 64.422 236.416 64.1229 236.721 63.6933C237.274 62.9156 237.401 62.0443 237.103 61.0771C236.804 60.1107 236.113 59.2418 235.03 58.4713C233.289 57.2349 231.391 57.1954 229.337 58.3528C229.074 58.5051 228.847 58.5986 228.655 58.6309C228.461 58.6631 228.233 58.5849 227.967 58.3963L225.481 56.6288C225.297 56.4982 225.182 56.3241 225.136 56.1073C225.09 55.8888 225.141 55.6793 225.285 55.4746C225.814 54.7725 226.554 54.1971 227.505 53.7481C228.456 53.2992 229.498 53.0243 230.634 52.9228C231.768 52.8212 232.949 52.9131 234.177 53.2016C235.403 53.4886 236.559 54.0181 237.645 54.7895Z" fill="#27DEBF"/>
<g opacity="0.6">
<path d="M226.479 73.0953C226.704 73.2557 226.84 73.4758 226.888 73.7555C226.935 74.0359 226.878 74.2882 226.719 74.5131L224.799 77.214C224.639 77.4397 224.419 77.5759 224.139 77.6226C223.858 77.671 223.606 77.6138 223.381 77.4542L220.742 75.5778C220.517 75.4174 220.381 75.1982 220.334 74.9185C220.285 74.6372 220.343 74.3857 220.503 74.1609L222.423 71.4592C222.583 71.2343 222.802 71.0981 223.083 71.0505C223.363 71.003 223.614 71.0594 223.84 71.2198L226.479 73.0953ZM237.645 54.7895C238.606 55.4721 239.448 56.2709 240.169 57.1841C240.891 58.0981 241.42 59.0661 241.754 60.0889C242.089 61.1133 242.199 62.1603 242.083 63.2331C241.967 64.3067 241.553 65.344 240.84 66.3467C240.258 67.1656 239.625 67.7854 238.941 68.2069C238.256 68.6293 237.543 68.9388 236.803 69.1355C236.061 69.3329 235.313 69.4635 234.56 69.5288C233.804 69.5925 233.091 69.6545 232.417 69.7142C231.744 69.7738 231.109 69.8858 230.517 70.0495C229.923 70.2123 229.435 70.4984 229.055 70.9046C228.853 71.1005 228.623 71.2286 228.364 71.2907C228.104 71.3528 227.863 71.3036 227.638 71.1432L225.304 69.4845C225.08 69.3249 224.938 69.1016 224.88 68.8139C224.823 68.5269 224.884 68.2779 225.064 68.0667C225.674 67.2978 226.339 66.7167 227.065 66.3241C227.791 65.9324 228.534 65.6439 229.296 65.4609C230.057 65.2779 230.817 65.1635 231.574 65.1167C232.33 65.0692 233.041 65.012 233.706 64.9451C234.369 64.8782 234.961 64.7605 235.483 64.5912C236.002 64.422 236.416 64.1229 236.721 63.6933C237.274 62.9156 237.401 62.0443 237.103 61.0771C236.804 60.1107 236.113 59.2418 235.03 58.4713C233.289 57.2349 231.391 57.1954 229.337 58.3528C229.074 58.5051 228.847 58.5986 228.655 58.6309C228.461 58.6631 228.233 58.5849 227.967 58.3963L225.481 56.6288C225.297 56.4982 225.182 56.3241 225.136 56.1073C225.09 55.8888 225.141 55.6793 225.285 55.4746C225.814 54.7725 226.554 54.1971 227.505 53.7481C228.456 53.2992 229.498 53.0243 230.634 52.9228C231.768 52.8212 232.949 52.9131 234.177 53.2016C235.403 53.4886 236.559 54.0181 237.645 54.7895Z" fill="white"/>
</g>
<path d="M166.46 144.445H137.825V75.0603C137.825 62.5133 147.997 52.3408 160.545 52.3408H163.191C175.739 52.3408 185.91 62.5125 185.91 75.0603V124.996C185.91 135.738 177.202 144.445 166.46 144.445Z" fill="#263238"/>
<path d="M135.041 311.471C134.806 313.213 134.305 315.247 134.212 320.179C134.112 325.464 133.141 327.341 133.012 331.679C132.865 336.636 133.721 338.492 135.733 341.277C137.745 344.064 143.024 346.592 145.255 341.882C147.513 337.116 147.199 334.088 146.486 329.224C145.748 324.197 145.655 321.421 145.227 317.587C144.85 314.207 144.399 311.64 144.399 311.64L135.041 311.471Z" fill="#263238"/>
<path d="M150.047 276.353L132.634 276.037C132.893 287.661 134.74 300.564 135.041 311.47C135.098 313.523 134.99 327.423 135.764 331.647C136.927 337.994 144.461 337.137 144.861 333.338C145.261 329.54 144.376 313.313 144.4 311.639C144.334 304.645 147.612 292.837 149.331 280.282C149.415 279.665 149.967 276.954 150.047 276.353Z" fill="#FFA8A7"/>
<path d="M172.415 302.425C172.415 302.425 171.727 302.056 171.585 302.789C171.417 303.662 171.165 305.461 170.803 306.894C170.299 308.886 169.88 312.166 170.182 313.789C170.484 315.411 174.268 317.5 176.724 318.255C180.347 319.367 182.834 321.185 184.819 323.053C187.252 325.343 192.501 327.505 196.076 327.479C200.306 327.449 203.255 326.071 204.648 323.806C206.104 321.44 203.378 321.266 198.544 318.13C197.446 317.417 196.197 316.612 194.791 315.694C187.132 310.691 184.328 308.01 182.162 303.007L172.415 302.425Z" fill="#263238"/>
<path d="M182.222 299.328C182.093 295.729 184.562 265.197 184.562 265.197L168.025 272.736C171.567 293.872 172.321 298.856 172.384 302.314C172.357 302.395 172.287 302.688 172.291 303.2C172.306 307.307 176.94 309.521 180.555 312.259C181.983 313.34 186.135 316.533 190.331 318.642C192.958 319.962 198.291 320.082 198.952 318.392C194.553 315.032 188.155 310.005 184.656 306.169C182.985 304.336 182.351 302.927 182.222 299.328Z" fill="#FFA8A7"/>
<path d="M139.769 162.939C133.421 176.881 133.421 187.662 134.471 205.45C135.433 221.768 136.968 236.132 136.968 236.132C136.722 239.028 132.697 244.678 132.177 257.473C131.69 269.436 133.001 284.643 133.001 284.643C133.001 284.643 142.034 289.65 148.714 284.599C148.714 284.599 155.16 253.819 157.049 238.845C158.697 225.778 161.562 209.08 161.562 209.08L167.629 238.774C167.629 238.774 165.321 246.095 164.781 251.672C163.928 260.48 168.854 277.775 168.854 277.775C168.854 277.775 178.188 280.561 183.889 275.505C183.889 275.505 186.021 247.386 186.816 236.775C187.882 222.566 185.641 184.102 183.888 163.739L139.769 162.939Z" fill="#455A64"/>
<path d="M161.562 209.08L164.07 186.728C164.07 186.728 175.307 185.227 180.397 180.442C180.397 180.442 176.572 187.449 167.157 188.809L163.531 209.608L167.63 238.774L161.562 209.08Z" fill="#263238"/>
<path d="M207.058 157.446C207.758 150.595 207.731 146.031 207.671 145.153C207.426 141.606 206.791 141.029 201.832 134.744C195.137 126.258 189.424 118.632 183.38 111.044C179.065 105.627 174.53 104.794 170.1 105.039C167.002 105.21 173.045 120.096 176.089 128.905L193.459 147.588C193.994 148.326 194.24 149.234 194.15 150.14L193.084 166.046L198.286 173.004C198.286 173.004 206.163 166.212 207.058 157.446Z" fill="#FFA8A7"/>
<path d="M153.367 105.521C150.007 105.752 143.898 106.29 143.898 106.29C140.372 108.257 139.482 109.87 138.825 114.552C138.547 116.544 140.17 121.858 141.564 129.409L144.21 143.412L143.923 150.357C142.55 154.594 139.443 159.861 136.706 167.625C150.163 175.135 161.45 175.413 171.685 174.099C179.491 173.097 183.621 171.208 184.997 169.343C184.71 161.673 184.168 156.938 184.035 148.925C183.979 145.559 184.182 142.163 184.312 138.289C189.549 133.988 189.608 126.835 186.752 122.211C180.116 111.467 173.664 104.703 169.391 105.05L153.367 105.521Z" fill="#27DEBF"/>
<path opacity="0.6" d="M153.367 105.521C150.007 105.752 143.898 106.29 143.898 106.29C140.372 108.257 139.482 109.87 138.825 114.552C138.547 116.544 140.17 121.858 141.564 129.409L144.21 143.412L143.923 150.357C142.55 154.594 139.443 159.861 136.706 167.625C150.163 175.135 161.45 175.413 171.685 174.099C179.491 173.097 183.621 171.208 184.997 169.343C184.71 161.673 184.168 156.938 184.035 148.925C183.979 145.559 184.182 142.163 184.312 138.289C189.549 133.988 189.608 126.835 186.752 122.211C180.116 111.467 173.664 104.703 169.391 105.05L153.367 105.521Z" fill="white"/>
<path opacity="0.1" d="M173.895 138.406C173.895 138.406 167.749 143.176 160.734 140.689C153.72 138.202 152.696 132.07 152.696 132.07C152.696 132.07 151.951 140.088 160.799 142.823C169.339 145.461 173.895 138.406 173.895 138.406Z" fill="black"/>
<path d="M182.229 83.5096C181.965 95.1459 178.188 98.0225 176.296 98.8486C174.403 99.6748 170.75 99.171 167.205 98.5843V105.567C167.205 105.567 171.296 109.857 170.99 113.055C170.676 116.261 164.56 116.617 159.965 113.485C156.611 111.201 154.216 108.589 153.171 107.35C152.79 106.9 152.585 106.334 152.585 105.744V89.3112C152.585 89.3112 150.642 91.369 147.205 89.0138C143.775 86.6668 143.478 82.2861 145.577 79.8069C147.072 78.0466 150.874 77.9225 152.701 80.658C153.725 82.6666 153.866 84.6832 155.015 83.8482C158.081 81.6413 156.437 76.6248 160.139 74.1455C160.147 74.1455 160.147 74.1375 160.155 74.1375C161.262 73.5427 162.519 72.9801 163.924 72.4924C170.527 70.2115 176.246 68.294 177.626 63.7812C180.229 65.3271 182.552 69.7819 182.229 83.5096Z" fill="#FFA8A7"/>
<path d="M169.214 93.9062C170.058 93.9062 170.741 93.2224 170.741 92.3789C170.741 91.5353 170.058 90.8515 169.214 90.8515C168.371 90.8515 167.687 91.5353 167.687 92.3789C167.687 93.2224 168.371 93.9062 169.214 93.9062Z" fill="#B16668"/>
<path d="M168.192 81.7453C168.239 82.6682 167.556 83.4492 166.669 83.4919C165.781 83.5338 165.024 82.8205 164.977 81.8976C164.931 80.9756 165.613 80.1938 166.501 80.151C167.389 80.1099 168.146 80.8232 168.192 81.7453Z" fill="#263238"/>
<path d="M180.407 81.9041C180.45 82.7423 179.829 83.4532 179.021 83.4911C178.134 83.533 177.53 82.9648 177.484 82.0427C177.442 81.2045 178.062 80.4936 178.869 80.4549C179.677 80.417 180.365 81.0658 180.407 81.9041Z" fill="#263238"/>
<path d="M166.122 85.889C163.232 85.889 160.88 83.5371 160.88 80.6467C160.88 77.0826 164.553 77.0826 166.122 77.0826C167.692 77.0826 171.365 77.0826 171.365 80.6467C171.365 83.5379 169.013 85.889 166.122 85.889ZM166.122 77.9096C162.945 77.9096 161.707 78.6769 161.707 80.6475C161.707 83.0825 163.687 85.0628 166.122 85.0628C168.557 85.0628 170.538 83.0825 170.538 80.6475C170.538 78.6769 169.3 77.9096 166.122 77.9096Z" fill="#455A64"/>
<path d="M179.43 85.889C176.54 85.889 174.188 83.5371 174.188 80.6467C174.188 77.0826 177.861 77.0826 179.43 77.0826C180.999 77.0826 184.672 77.0826 184.672 80.6467C184.672 83.5379 182.32 85.889 179.43 85.889ZM179.43 77.9096C176.253 77.9096 175.015 78.6769 175.015 80.6475C175.015 83.0825 176.995 85.0628 179.43 85.0628C181.865 85.0628 183.845 83.0825 183.845 80.6475C183.845 78.6769 182.607 77.9096 179.43 77.9096Z" fill="#455A64"/>
<path d="M172.179 78.9573L172.437 88.747L177.589 87.1503L172.179 78.9573Z" fill="#F28F8F"/>
<path d="M167.201 98.5818C163.458 98.091 155.76 95.8793 154.56 92.8359C154.56 92.8359 154.96 94.7485 157.259 96.72C159.559 98.6907 167.201 100.912 167.201 100.912V98.5818Z" fill="#F28F8F"/>
<path d="M167.378 74.2036L163.964 76.2847C163.404 75.3022 163.716 74.04 164.659 73.4653C165.602 72.8906 166.819 73.2211 167.378 74.2036Z" fill="#263238"/>
<path d="M181.286 76.524L177.483 75.1958C177.813 74.123 178.932 73.5515 179.982 73.9182C181.032 74.2842 181.616 75.4513 181.286 76.524Z" fill="#263238"/>
<path d="M170.95 81.0643C170.722 81.0643 170.538 80.8757 170.538 80.6468C170.538 79.9762 171.864 79.5425 173.055 79.5425C174.245 79.5425 175.014 79.9762 175.014 80.6468C175.014 80.8749 174.829 81.0602 174.601 81.0602C174.372 81.0602 174.187 80.8757 174.187 80.6468C174.15 80.571 173.769 80.3695 173.054 80.3695C172.339 80.3695 171.401 80.571 171.362 80.654C171.363 80.8829 171.178 81.0643 170.95 81.0643Z" fill="#455A64"/>
<path d="M161.307 80.7152C161.292 80.7152 161.277 80.7144 161.26 80.7128L152.047 79.8738C151.882 79.7206 151.446 79.2701 150.537 78.8937L161.352 79.8915C161.579 79.9165 161.742 80.1212 161.718 80.3485C161.693 80.5589 161.514 80.7152 161.307 80.7152Z" fill="#455A64"/>
<path d="M123.482 90.3171C126.494 86.292 128.549 83.2501 131.299 79.7996C132.86 77.8402 133.859 76.4418 135.361 74.4317C136.395 73.0478 137.001 71.8807 138.148 71.4519C139.437 70.9691 140.681 70.0148 141.51 69.1435C142.103 68.5205 142.588 67.8055 143.1 67.1148C144.822 64.7943 146.879 62.7229 149.187 60.9844C151.612 59.1572 154.306 57.7636 156.794 56.0226C158.279 54.9837 159.871 53.258 158.064 51.6477C157.525 51.1665 156.84 50.8795 156.133 50.7256C151.748 49.7673 147.921 51.2793 143.632 52.3763C141.767 52.8526 139.933 53.4499 138.169 54.2212C137.313 54.5952 136.46 55.0022 135.751 55.6091C134.645 56.5554 133.983 57.9022 133.265 59.1668C131.336 62.5649 127.341 65.5632 124.529 68.2085C121.23 71.3116 118.281 74.1568 114.518 77.5807C111.131 80.662 107.818 83.5032 104.711 86.8682C102.142 89.6522 103.077 91.83 103.443 92.582C105.537 96.8892 107.881 98.4335 110.682 101.101C115.534 105.723 132.244 119.017 137.787 123.405C138.974 124.344 139.905 125.562 140.504 126.951L141.563 129.41C147.882 130.573 152.098 121.085 146.864 109.662C146.016 107.809 144.669 106.232 143.022 105.031C136.427 100.219 123.482 90.3171 123.482 90.3171Z" fill="#FFA8A7"/>
<path d="M123.482 90.3171C123.482 90.3171 120.624 94.1368 115.759 95.6327C115.759 95.6327 119.789 96.6612 125.306 91.7099L123.482 90.3171Z" fill="#F28F8F"/>
<path d="M205.418 149.036L205.439 149.038L204.406 148.148L204.405 148.161C204.172 147.974 203.81 147.915 203.342 148.042L192.151 151.086C191.114 151.368 189.988 152.42 189.636 153.436L181.583 176.672C181.397 177.21 181.471 177.625 181.731 177.859L181.722 177.862L182.788 178.78L182.787 178.767C183.019 178.96 183.385 179.022 183.86 178.893L195.051 175.85C196.088 175.568 197.214 174.515 197.566 173.5C199.148 168.932 204.039 154.829 205.62 150.263C205.819 149.689 205.72 149.259 205.418 149.036Z" fill="#455A64"/>
<path d="M182.619 177.564L190.672 154.328C191.024 153.312 192.15 152.261 193.187 151.979L204.378 148.935C205.415 148.653 205.971 149.248 205.619 150.263C204.038 154.83 199.147 168.933 197.566 173.5C197.214 174.516 196.088 175.569 195.051 175.851L183.86 178.894C182.823 179.175 182.267 178.58 182.619 177.564Z" fill="#27DEBF"/>
<path d="M191.97 152.623C191.387 153.084 190.886 153.717 190.671 154.33L182.615 177.559C182.441 178.081 182.493 178.49 182.727 178.725L181.726 177.866L181.736 177.855C181.47 177.62 181.398 177.211 181.583 176.67L189.639 153.43C189.833 152.858 190.293 152.275 190.835 151.815L191.97 152.623Z" fill="#37474F"/>
<path d="M202.343 159.624C201.554 161.991 198.742 163.57 194.119 164.666C189.497 165.761 186.936 170.67 187.683 172.163C188.43 173.657 195.899 175.044 198.887 174.617C201.875 174.19 204.88 169.872 205.785 168.535C206.689 167.199 207.743 157.865 206.783 156.585C205.823 155.304 203.805 155.501 203.805 155.501L202.343 159.624Z" fill="#F28F8F"/>
</svg>
